<svg version="1.1" xmlns="http://www.w3.org/2000/svg" viewBox="0 0 1308.1253593440622 1299" width="1308.1253593440622" height="1299">
  <!-- svg-source:excalidraw -->
  
  <defs>
    <style class="style-fonts">
      @font-face {
        font-family: "Virgil";
        src: url("https://excalidraw.com/Virgil.woff2");
      }
      @font-face {
        font-family: "Cascadia";
        src: url("https://excalidraw.com/Cascadia.woff2");
      }
      @font-face {
        font-family: "Assistant";
        src: url("https://app.excalidraw.com//dist/excalidraw-assets/Assistant-Regular.woff2");
      }
    </style>
    
  </defs>
  <g stroke-linecap="round" transform="translate(148.3420341487497 309) rotate(0 401.5 302.5)"><path d="M32 0 C262.92 -1.55, 494.55 -1.11, 771 0 M32 0 C256.05 0.08, 480.02 0.43, 771 0 M771 0 C794.24 0, 801.37 10.65, 803 32 M771 0 C793.84 1.5, 804.68 9.46, 803 32 M803 32 C803.82 182.49, 803.51 332.57, 803 573 M803 32 C803.48 183.32, 803.04 334.02, 803 573 M803 573 C801.99 593.98, 791.94 606.73, 771 605 M803 573 C802.51 595.84, 790.09 607.01, 771 605 M771 605 C582.37 603.03, 394.32 603.21, 32 605 M771 605 C605.52 604.27, 440.02 604.38, 32 605 M32 605 C9.63 606.2, 0.57 596.27, 0 573 M32 605 C8.9 607.14, -1.71 593.66, 0 573 M0 573 C1.23 398.8, -0.03 224.45, 0 32 M0 573 C0.35 423.01, -0.16 272.53, 0 32 M0 32 C-0.49 9.57, 11.38 1.6, 32 0 M0 32 C-1.58 8.71, 8.55 -0.97, 32 0" stroke="#1e1e1e" stroke-width="2" fill="none"></path></g><g transform="translate(153.3420341487497 314) rotate(0 43.141666412353516 25)"><text x="0" y="0" font-family="Virgil, Segoe UI Emoji" font-size="20px" fill="#1e1e1e" text-anchor="start" style="white-space: pre;" direction="ltr" dominant-baseline="text-before-edge">    </text><text x="0" y="25" font-family="Virgil, Segoe UI Emoji" font-size="20px" fill="#1e1e1e" text-anchor="start" style="white-space: pre;" direction="ltr" dominant-baseline="text-before-edge">    Node</text></g><g stroke-linecap="round" transform="translate(643.3420341487497 10) rotate(0 117 64.5)"><path d="M160.79 4.81 C174.48 6.78, 186.93 13.15, 197.54 18.68 C208.15 24.22, 218.37 30.52, 224.46 38.04 C230.55 45.56, 233.74 55.58, 234.08 63.82 C234.42 72.06, 231.85 79.83, 226.49 87.48 C221.14 95.13, 212.35 103.61, 201.94 109.69 C191.53 115.77, 177.76 120.71, 164.05 123.97 C150.33 127.24, 134.77 129.03, 119.67 129.28 C104.56 129.53, 87.51 128.43, 73.4 125.45 C59.28 122.47, 45.6 117.28, 34.97 111.39 C24.33 105.5, 15.5 97.6, 9.59 90.11 C3.68 82.61, -0.36 74.5, -0.5 66.43 C-0.64 58.36, 3.09 49.56, 8.73 41.67 C14.36 33.79, 22.95 25.31, 33.31 19.14 C43.66 12.97, 57.15 7.82, 70.86 4.64 C84.58 1.47, 99.72 -0.06, 115.58 0.1 C131.45 0.26, 156.9 4.1, 166.04 5.62 C175.19 7.13, 171.24 8.05, 170.45 9.2 M159.24 3.34 C173.14 5.2, 186.11 12.42, 196.96 18.27 C207.81 24.12, 218.01 30.89, 224.34 38.41 C230.66 45.94, 234.6 55.03, 234.91 63.41 C235.21 71.78, 232 81.23, 226.19 88.67 C220.38 96.11, 210.39 102.16, 200.06 108.06 C189.72 113.96, 177.59 120.51, 164.17 124.07 C150.76 127.63, 134.7 129.1, 119.58 129.44 C104.47 129.77, 87.53 128.93, 73.48 126.07 C59.43 123.21, 46.16 118.41, 35.3 112.29 C24.45 106.17, 14.06 97.03, 8.35 89.34 C2.64 81.66, 1.27 74.14, 1.02 66.19 C0.78 58.23, 1.79 49.18, 6.86 41.62 C11.93 34.07, 20.89 26.71, 31.45 20.85 C42.02 14.99, 56.27 9.93, 70.25 6.48 C84.23 3.03, 100.23 0.26, 115.32 0.16 C130.4 0.06, 153.55 5.14, 160.78 5.87 C168.02 6.6, 159.6 3.95, 158.75 4.52" stroke="#1e1e1e" stroke-width="2" fill="none"></path></g><g transform="translate(689.7855438016816 61.891612613467686) rotate(0 70.32499694824219 12.5)"><text x="70.32499694824219" y="0" font-family="Virgil, Segoe UI Emoji" font-size="20px" fill="#1e1e1e" text-anchor="middle" style="white-space: pre;" direction="ltr" dominant-baseline="text-before-edge">Cloud Provider</text></g><g stroke-linecap="round" transform="translate(517.3420341487497 704) rotate(0 201 85.5)"><path d="M32 0 C151.77 1, 271.68 1.86, 370 0 M32 0 C148.75 -1.34, 266.26 -0.54, 370 0 M370 0 C390 1.5, 402.75 10.96, 402 32 M370 0 C393.39 -1.41, 402.15 12.41, 402 32 M402 32 C402.58 60.55, 403.05 90.53, 402 139 M402 32 C401.98 72.27, 402.32 113.4, 402 139 M402 139 C402.85 159.97, 389.36 172.45, 370 171 M402 139 C401.45 162, 393.33 172.01, 370 171 M370 171 C258.09 170.57, 148.71 171.72, 32 171 M370 171 C247.48 170.07, 124.76 170.28, 32 171 M32 171 C10.86 169.44, 1.01 160, 0 139 M32 171 C12.5 171.41, 1.27 161.21, 0 139 M0 139 C-0.45 117.42, 0.48 93.36, 0 32 M0 139 C-0.34 96.09, 0.82 54.11, 0 32 M0 32 C-0.3 12.45, 10.29 -1.2, 32 0 M0 32 C-1.78 9.33, 11.54 1.6, 32 0" stroke="#1e1e1e" stroke-width="2" fill="none"></path></g><g transform="translate(628.9253700252145 777) rotate(0 89.41666412353516 12.5)"><text x="89.41666412353516" y="0" font-family="Virgil, Segoe UI Emoji" font-size="20px" fill="#1e1e1e" text-anchor="middle" style="white-space: pre;" direction="ltr" dominant-baseline="text-before-edge">Pod with Workload</text></g><g stroke-linecap="round" transform="translate(596.3420341487497 363) rotate(0 155.5 67.5)"><path d="M32 0 C102 0.09, 172.45 -0.25, 279 0 M32 0 C87.95 -0.91, 143.44 -0.89, 279 0 M279 0 C299.97 -1.97, 311.23 12.42, 311 32 M279 0 C301.71 -1.21, 311.05 12.05, 311 32 M311 32 C312.46 51.94, 309.57 69.81, 311 103 M311 32 C309.91 58.87, 309.83 86.31, 311 103 M311 103 C311.62 124.75, 299.37 135.43, 279 135 M311 103 C310.95 126.55, 301.54 136.29, 279 135 M279 135 C204.02 132.74, 126.39 132.78, 32 135 M279 135 C197.92 134.75, 117.27 134.78, 32 135 M32 135 C9.4 133.6, -0.11 124.06, 0 103 M32 135 C9.5 133.45, 0.21 123.08, 0 103 M0 103 C2.18 80.34, -1.03 53.73, 0 32 M0 103 C-0.13 83.51, -0.74 65.13, 0 32 M0 32 C1.35 11.91, 12.35 1.34, 32 0 M0 32 C0.17 9.98, 10.29 -1.19, 32 0" stroke="#1e1e1e" stroke-width="2" fill="none"></path></g><g transform="translate(607.2420280452341 393) rotate(0 144.60000610351562 37.5)"><text x="144.60000610351562" y="0" font-family="Virgil, Segoe UI Emoji" font-size="20px" fill="#1e1e1e" text-anchor="middle" style="white-space: pre;" direction="ltr" dominant-baseline="text-before-edge">Azure Disk CSI Driver Node </text><text x="144.60000610351562" y="25" font-family="Virgil, Segoe UI Emoji" font-size="20px" fill="#1e1e1e" text-anchor="middle" style="white-space: pre;" direction="ltr" dominant-baseline="text-before-edge">Pod</text><text x="144.60000610351562" y="50" font-family="Virgil, Segoe UI Emoji" font-size="20px" fill="#1e1e1e" text-anchor="middle" style="white-space: pre;" direction="ltr" dominant-baseline="text-before-edge">(Part of Daemonset)</text></g><g stroke-linecap="round" transform="translate(308.3420341487497 328) rotate(0 104 85)"><path d="M131.25 21.5 C143.09 30.38, 153.98 42.74, 181.75 64.5 M131.25 21.5 C142.86 29.23, 152.32 38.88, 181.75 64.5 M181.75 64.5 C208.12 85.74, 206.34 87.73, 181.75 107.5 M181.75 64.5 C210.06 85.89, 206.7 88.04, 181.75 107.5 M181.75 107.5 C164.44 121.61, 146.34 134.38, 131.25 148.5 M181.75 107.5 C164.51 121.96, 147.2 134.38, 131.25 148.5 M131.25 148.5 C103.36 171.3, 105.54 168.34, 78.75 148.5 M131.25 148.5 C105.08 171.1, 103.41 171.27, 78.75 148.5 M78.75 148.5 C58.47 136.49, 41.99 119.49, 26.25 107.5 M78.75 148.5 C62.88 136.49, 48.65 124.71, 26.25 107.5 M26.25 107.5 C1.76 85.39, 0.26 85.23, 26.25 64.5 M26.25 107.5 C-0.67 86.89, 0.94 86.87, 26.25 64.5 M26.25 64.5 C39.44 52.09, 53.24 44.47, 78.75 21.5 M26.25 64.5 C42.51 51.29, 60.93 37.29, 78.75 21.5 M78.75 21.5 C104.99 1.57, 104.84 1.3, 131.25 21.5 M78.75 21.5 C103.11 -1.11, 107.04 -1.61, 131.25 21.5" stroke="#1e1e1e" stroke-width="2" fill="none"></path></g><g transform="translate(367.3837020869821 375.5) rotate(0 44.95833206176758 37.5)"><text x="44.95833206176758" y="0" font-family="Virgil, Segoe UI Emoji" font-size="20px" fill="#1e1e1e" text-anchor="middle" style="white-space: pre;" direction="ltr" dominant-baseline="text-before-edge">PVC </text><text x="44.95833206176758" y="25" font-family="Virgil, Segoe UI Emoji" font-size="20px" fill="#1e1e1e" text-anchor="middle" style="white-space: pre;" direction="ltr" dominant-baseline="text-before-edge">Mount </text><text x="44.95833206176758" y="50" font-family="Virgil, Segoe UI Emoji" font-size="20px" fill="#1e1e1e" text-anchor="middle" style="white-space: pre;" direction="ltr" dominant-baseline="text-before-edge">Directory</text></g><g stroke-linecap="round" transform="translate(598.8630531487497 1022) rotate(0 199.5 51.5)"><path d="M234.91 1.26 C254.9 1.38, 277.12 3.15, 295.26 5.58 C313.4 8.01, 329.62 11.75, 343.75 15.85 C357.89 19.95, 371.18 25.47, 380.05 30.17 C388.92 34.87, 394.49 39.08, 397 44.04 C399.5 49, 398.63 54.63, 395.07 59.92 C391.52 65.21, 385.32 71, 375.65 75.8 C365.99 80.61, 352.09 85.14, 337.08 88.75 C322.06 92.35, 304.25 95.28, 285.55 97.44 C266.85 99.61, 245.29 100.79, 224.88 101.74 C204.46 102.68, 183.23 104.05, 163.06 103.13 C142.88 102.2, 121.81 98.88, 103.81 96.21 C85.81 93.54, 68.94 91, 55.06 87.09 C41.17 83.18, 29.31 77.37, 20.48 72.74 C11.66 68.1, 4.85 64.51, 2.12 59.27 C-0.61 54.03, 0.53 46.82, 4.12 41.29 C7.71 35.75, 14.18 30.47, 23.68 26.07 C33.18 21.67, 46.2 18.35, 61.13 14.87 C76.06 11.39, 94.49 7.66, 113.26 5.17 C132.02 2.68, 151.83 0.72, 173.74 -0.06 C195.64 -0.83, 231.42 0.16, 244.69 0.53 C257.96 0.9, 253.94 1.25, 253.38 2.14 M144.82 1.33 C162.75 -1.09, 186.22 -1.05, 207.03 -0.74 C227.83 -0.43, 250.3 1.46, 269.64 3.18 C288.98 4.91, 306.9 6.17, 323.07 9.6 C339.25 13.03, 355.46 19.13, 366.68 23.78 C377.91 28.42, 384.9 32.57, 390.41 37.47 C395.92 42.37, 400.12 48.09, 399.75 53.16 C399.37 58.22, 395.5 62.99, 388.16 67.85 C380.83 72.72, 368.57 77.99, 355.75 82.37 C342.92 86.75, 328.13 91.12, 311.19 94.13 C294.26 97.15, 274.03 98.93, 254.14 100.44 C234.24 101.96, 212.49 103.26, 191.83 103.22 C171.17 103.18, 149.61 101.97, 130.18 100.22 C110.76 98.46, 91.42 96.15, 75.3 92.69 C59.19 89.23, 44.9 84.15, 33.5 79.47 C22.1 74.78, 12.54 69.78, 6.88 64.56 C1.23 59.35, -1.54 53.24, -0.43 48.18 C0.68 43.12, 6.27 39.2, 13.53 34.2 C20.79 29.2, 30.5 22.25, 43.14 18.2 C55.78 14.15, 72.28 12.41, 89.39 9.92 C106.5 7.43, 136.35 4.63, 145.8 3.27 C155.25 1.91, 145.05 1, 146.07 1.76" stroke="#1e1e1e" stroke-width="2" fill="none"></path></g><g transform="translate(780.0785831267406 1061.0840007688928) rotate(0 18.21666717529297 12.5)"><text x="18.21666717529297" y="0" font-family="Virgil, Segoe UI Emoji" font-size="20px" fill="#1e1e1e" text-anchor="middle" style="white-space: pre;" direction="ltr" dominant-baseline="text-before-edge">PVC</text></g><g stroke-linecap="round"><g transform="translate(786.1384857669318 889) rotate(0 1.8913804831094012 58.15637512905255)"><path d="M1.06 0.1 C1.64 19.46, 3.65 96.54, 4.04 115.78 M0.16 -0.9 C0.55 18.66, 2.84 97.48, 3.23 117.04" stroke="#1e1e1e" stroke-width="2" fill="none"></path></g><g transform="translate(786.1384857669318 889) rotate(0 1.8913804831094012 58.15637512905255)"><path d="M-5.91 93.77 C-2.63 102.27, -0.47 109.41, 3.23 117.04 M-5.91 93.77 C-2.99 98.91, -2.68 105.2, 3.23 117.04" stroke="#1e1e1e" stroke-width="2" fill="none"></path></g><g transform="translate(786.1384857669318 889) rotate(0 1.8913804831094012 58.15637512905255)"><path d="M11.19 93.34 C8.49 102.14, 4.66 109.43, 3.23 117.04 M11.19 93.34 C10.07 98.48, 6.34 104.86, 3.23 117.04" stroke="#1e1e1e" stroke-width="2" fill="none"></path></g></g><mask></mask><g mask="url(#mask-oCvBlKIqZpdP1j0tQ077q)" stroke-linecap="round"><g transform="translate(742.60275729104 343) rotate(0 -0.38332296130352006 -91.70181330768241)"><path d="M-0.72 1.12 C-0.56 -29.27, 0.49 -151.94, 0.35 -182.66 M1.11 0.66 C1.26 -30.04, 0.01 -153.98, -0.01 -184.39" stroke="#1e1e1e" stroke-width="2" fill="none"></path></g><g transform="translate(742.60275729104 343) rotate(0 -0.38332296130352006 -91.70181330768241)"><path d="M8.68 -160.94 C8.43 -165.01, 5.63 -174, -0.01 -184.39 M8.68 -160.94 C5.95 -167.4, 2.75 -174.98, -0.01 -184.39" stroke="#1e1e1e" stroke-width="2" fill="none"></path></g><g transform="translate(742.60275729104 343) rotate(0 -0.38332296130352006 -91.70181330768241)"><path d="M-8.42 -160.84 C-4.39 -164.83, -2.9 -173.84, -0.01 -184.39 M-8.42 -160.84 C-5.73 -167.4, -3.52 -175.01, -0.01 -184.39" stroke="#1e1e1e" stroke-width="2" fill="none"></path></g></g><mask id="mask-oCvBlKIqZpdP1j0tQ077q"><rect x="0" y="0" fill="#fff" width="843.369403213647" height="626.4036266153648"></rect><rect x="632.6360984532716" y="226.29818669231759" fill="#000" width="219.1666717529297" height="50" opacity="1"></rect></mask><g transform="translate(632.6360984532716 226.29818669231759) rotate(0 110.16803878841131 25.068296801540995)"><text x="109.58333587646484" y="0" font-family="Virgil, Segoe UI Emoji" font-size="20px" fill="#1e1e1e" text-anchor="middle" style="white-space: pre;" direction="ltr" dominant-baseline="text-before-edge">1. Requests Azure Disk</text><text x="109.58333587646484" y="25" font-family="Virgil, Segoe UI Emoji" font-size="20px" fill="#1e1e1e" text-anchor="middle" style="white-space: pre;" direction="ltr" dominant-baseline="text-before-edge">Attachment on Node</text></g><g mask="url(#mask-E-BX9zgDthtnjZdzmVyOd)" stroke-linecap="round"><g transform="translate(456.84049687833715 491.81806028160275) rotate(0 45.564946256977066 98.2928543052387)"><path d="M-1.01 0.11 C14.18 32.8, 75.55 162.7, 90.82 195.4 M0.66 -0.88 C15.69 31.98, 74.9 163.25, 89.71 196.31" stroke="#1e1e1e" stroke-width="2" fill="none"></path></g><g transform="translate(456.84049687833715 491.81806028160275) rotate(0 45.564946256977066 98.2928543052387)"><path d="M72.27 178.39 C77.08 182.9, 79.66 187.36, 89.71 196.31 M72.27 178.39 C76.3 182.87, 82.38 187.72, 89.71 196.31" stroke="#1e1e1e" stroke-width="2" fill="none"></path></g><g transform="translate(456.84049687833715 491.81806028160275) rotate(0 45.564946256977066 98.2928543052387)"><path d="M87.87 171.38 C88.39 177.66, 86.73 184.03, 89.71 196.31 M87.87 171.38 C87.63 177.88, 89.4 184.67, 89.71 196.31" stroke="#1e1e1e" stroke-width="2" fill="none"></path></g></g><mask id="mask-E-BX9zgDthtnjZdzmVyOd"><rect x="0" y="0" fill="#fff" width="647.9703893922913" height="788.4037688920802"></rect><rect x="393.98877901177923" y="552.6109145868413" fill="#000" width="216.8333282470703" height="75" opacity="1"></rect></mask><g transform="translate(393.9887790117791 552.6109145868415) rotate(0 107.75424276851118 36.92053740005943)"><text x="108.41666412353516" y="0" font-family="Virgil, Segoe UI Emoji" font-size="20px" fill="#1e1e1e" text-anchor="middle" style="white-space: pre;" direction="ltr" dominant-baseline="text-before-edge">Map Mount Directory </text><text x="108.41666412353516" y="25" font-family="Virgil, Segoe UI Emoji" font-size="20px" fill="#1e1e1e" text-anchor="middle" style="white-space: pre;" direction="ltr" dominant-baseline="text-before-edge">to Pod via Bind </text><text x="108.41666412353516" y="50" font-family="Virgil, Segoe UI Emoji" font-size="20px" fill="#1e1e1e" text-anchor="middle" style="white-space: pre;" direction="ltr" dominant-baseline="text-before-edge">Mount</text></g><g stroke-linecap="round" transform="translate(229.3420341487497 49) rotate(0 194 58)"><path d="M199.9 -0.95 C219.05 -1.75, 240.38 1.27, 259.12 3.59 C277.87 5.91, 296.65 9.31, 312.37 12.99 C328.09 16.67, 342.18 20.98, 353.43 25.67 C364.69 30.36, 374.15 35.38, 379.92 41.11 C385.69 46.84, 388.65 53.94, 388.05 60.05 C387.44 66.16, 382.99 72.05, 376.3 77.77 C369.62 83.49, 359.94 89.66, 347.93 94.35 C335.92 99.04, 320.77 102.83, 304.22 105.92 C287.67 109.01, 268.04 111.35, 248.64 112.91 C229.24 114.47, 207.69 115.33, 187.82 115.29 C167.95 115.25, 148.23 114.64, 129.44 112.68 C110.64 110.72, 90.96 107.12, 75.04 103.53 C59.11 99.95, 45.08 95.96, 33.87 91.16 C22.67 86.37, 13.56 80.39, 7.8 74.75 C2.03 69.11, -1.18 63.33, -0.72 57.31 C-0.26 51.3, 3.77 44.33, 10.54 38.66 C17.32 32.99, 27.45 28.18, 39.92 23.3 C52.39 18.41, 68.83 12.82, 85.35 9.35 C101.88 5.88, 117.05 3.83, 139.07 2.51 C161.09 1.18, 201.43 1.37, 217.46 1.4 C233.49 1.43, 235.54 1.79, 235.23 2.7 M260.79 3.81 C279.94 4.73, 297.68 8.06, 313.55 11.46 C329.41 14.87, 344.97 19.41, 355.98 24.24 C367 29.08, 374.1 34.61, 379.63 40.48 C385.17 46.34, 389.82 53.25, 389.21 59.44 C388.59 65.63, 383.09 72.1, 375.95 77.6 C368.81 83.09, 358.32 87.91, 346.38 92.41 C334.43 96.91, 320.5 101.17, 304.29 104.58 C288.08 107.99, 268.56 110.92, 249.13 112.87 C229.7 114.81, 207.69 116.45, 187.73 116.25 C167.77 116.05, 147.93 113.53, 129.38 111.67 C110.83 109.82, 92.27 108.53, 76.44 105.13 C60.6 101.73, 45.7 96.55, 34.35 91.26 C23 85.97, 13.8 79.43, 8.34 73.39 C2.87 67.34, 0.94 60.77, 1.58 54.97 C2.22 49.17, 5.67 43.85, 12.17 38.58 C18.68 33.3, 28.63 28.12, 40.63 23.32 C52.63 18.53, 67.84 13.1, 84.18 9.8 C100.53 6.5, 119.52 5.34, 138.68 3.54 C157.84 1.73, 179.11 -1.1, 199.16 -1.02 C219.21 -0.93, 249 3.13, 259.01 4.06 C269.01 5, 260.26 3.98, 259.2 4.58" stroke="#1e1e1e" stroke-width="2" fill="none"></path></g><g transform="translate(298.59665294914544 94.48780669118024) rotate(0 124.56666564941406 12.5)"><text x="124.56666564941406" y="0" font-family="Virgil, Segoe UI Emoji" font-size="20px" fill="#1e1e1e" text-anchor="middle" style="white-space: pre;" direction="ltr" dominant-baseline="text-before-edge">Azure Disk on Azure API</text></g><g mask="url(#mask-Ue9EdaQatKG9CY5CA1lDF)" stroke-linecap="round"><g transform="translate(413.24044891884955 176.583916746264) rotate(0 -0.6800852858276585 69.75895802895148)"><path d="M-0.58 0.86 C-0.66 24.2, -1.73 117, -1.7 140.12 M1.32 0.27 C1.15 23.25, -2.5 114.87, -2.82 138.31" stroke="#1e1e1e" stroke-width="2" fill="none"></path></g><g transform="translate(413.24044891884955 176.583916746264) rotate(0 -0.6800852858276585 69.75895802895148)"><path d="M-10.71 114.59 C-7.68 118.81, -6.54 125.74, -2.82 138.31 M-10.71 114.59 C-8.57 121.01, -6.69 128.57, -2.82 138.31" stroke="#1e1e1e" stroke-width="2" fill="none"></path></g><g transform="translate(413.24044891884955 176.583916746264) rotate(0 -0.6800852858276585 69.75895802895148)"><path d="M6.38 115.07 C5.99 119.11, 3.71 125.94, -2.82 138.31 M6.38 115.07 C3.32 121.27, 0 128.69, -2.82 138.31" stroke="#1e1e1e" stroke-width="2" fill="none"></path></g></g><mask id="mask-Ue9EdaQatKG9CY5CA1lDF"><rect x="0" y="0" fill="#fff" width="514.6006194905049" height="416.101832804167"></rect><rect x="311.4853666847798" y="221.34287477521545" fill="#000" width="202.14999389648438" height="50" opacity="1"></rect></mask><g transform="translate(311.4853666847797 221.34287477521548) rotate(0 101.00151576770469 25.43385666434655)"><text x="101.07499694824219" y="0" font-family="Virgil, Segoe UI Emoji" font-size="20px" fill="#1e1e1e" text-anchor="middle" style="white-space: pre;" direction="ltr" dominant-baseline="text-before-edge">2. Mount Volume to </text><text x="101.07499694824219" y="25" font-family="Virgil, Segoe UI Emoji" font-size="20px" fill="#1e1e1e" text-anchor="middle" style="white-space: pre;" direction="ltr" dominant-baseline="text-before-edge">Node directory</text></g><g transform="translate(1037.3420341487497 380) rotate(0 130.39166259765625 37.5)"><text x="0" y="0" font-family="Virgil, Segoe UI Emoji" font-size="20px" fill="#1971c2" text-anchor="start" style="white-space: pre;" direction="ltr" dominant-baseline="text-before-edge">Observes and fulfills</text><text x="0" y="25" font-family="Virgil, Segoe UI Emoji" font-size="20px" fill="#1971c2" text-anchor="start" style="white-space: pre;" direction="ltr" dominant-baseline="text-before-edge">Volume Attachments for</text><text x="0" y="50" font-family="Virgil, Segoe UI Emoji" font-size="20px" fill="#1971c2" text-anchor="start" style="white-space: pre;" direction="ltr" dominant-baseline="text-before-edge">its CSI Driver on its node</text></g><g stroke-linecap="round"><g transform="translate(1028.34203414875 403.30431205016964) rotate(0 -54.500000000000114 9.501493131235009)"><path d="M-0.75 0.48 C-18.95 3.87, -90.37 16.51, -108.51 19.41 M1.05 -0.32 C-17.32 2.79, -90.58 14.35, -109.21 17.51" stroke="#1971c2" stroke-width="2" fill="none"></path></g></g><mask></mask><g stroke-linecap="round" transform="translate(608.3420341487497 1204) rotate(0 194 42.5)"><path d="M122.2 2.98 C139.55 0.55, 163.99 -0.69, 185.18 -0.76 C206.38 -0.83, 229.34 1.19, 249.38 2.57 C269.42 3.94, 288.52 5.09, 305.44 7.5 C322.36 9.91, 338.6 13.14, 350.9 17.02 C363.21 20.9, 373.09 26.24, 379.26 30.76 C385.42 35.28, 388.63 39.5, 387.89 44.16 C387.15 48.82, 382.44 54.54, 374.84 58.74 C367.23 62.94, 355.62 66.08, 342.27 69.36 C328.92 72.64, 312.75 76.12, 294.74 78.43 C276.74 80.74, 255.03 82.29, 234.24 83.22 C213.45 84.14, 190.83 84.32, 169.99 83.98 C149.15 83.64, 128.09 82.91, 109.2 81.17 C90.32 79.42, 71.62 76.85, 56.68 73.49 C41.74 70.12, 28.83 65.4, 19.55 60.98 C10.28 56.57, 3.72 51.63, 1.04 47 C-1.65 42.37, -0.78 37.46, 3.42 33.19 C7.63 28.92, 15.54 25.15, 26.27 21.39 C37 17.63, 48.32 13.93, 67.81 10.61 C87.3 7.3, 127.42 2.96, 143.2 1.5 C158.99 0.04, 161.91 1.21, 162.54 1.86 M127.86 1.31 C145.55 -1.13, 168.35 -1.05, 188.93 -0.87 C209.51 -0.69, 231.22 0.59, 251.33 2.38 C271.45 4.16, 292.64 6.93, 309.62 9.85 C326.59 12.76, 341.35 16.34, 353.17 19.84 C364.98 23.35, 374.71 26.87, 380.5 30.86 C386.29 34.86, 388.91 38.99, 387.91 43.81 C386.91 48.63, 382.59 55.36, 374.47 59.78 C366.36 64.19, 353.03 67.07, 339.22 70.29 C325.41 73.52, 309.77 76.92, 291.63 79.11 C273.49 81.31, 251.42 82.69, 230.37 83.46 C209.33 84.22, 186.23 84.35, 165.38 83.71 C144.52 83.08, 123.61 81.77, 105.25 79.63 C86.88 77.5, 69.5 74.31, 55.18 70.92 C40.87 67.53, 28.23 63.45, 19.38 59.3 C10.53 55.14, 4.59 50.26, 2.07 46.01 C-0.44 41.77, -0.08 37.92, 4.27 33.83 C8.61 29.73, 16.98 25.67, 28.16 21.45 C39.34 17.23, 55.08 11.76, 71.33 8.51 C87.58 5.26, 116.12 2.79, 125.67 1.96 C135.23 1.13, 127.55 2.74, 128.65 3.55" stroke="#1e1e1e" stroke-width="2" fill="none"></path></g><g transform="translate(692.1049842479736 1221.4479617995717) rotate(0 110.05833435058594 25)"><text x="110.05833435058594" y="0" font-family="Virgil, Segoe UI Emoji" font-size="20px" fill="#1e1e1e" text-anchor="middle" style="white-space: pre;" direction="ltr" dominant-baseline="text-before-edge">PV (referencing Azure </text><text x="110.05833435058594" y="25" font-family="Virgil, Segoe UI Emoji" font-size="20px" fill="#1e1e1e" text-anchor="middle" style="white-space: pre;" direction="ltr" dominant-baseline="text-before-edge">Disk)</text></g><g stroke-linecap="round"><g transform="translate(812.2184274349704 1135.9050535732438) rotate(0 0.6521533728189297 29.514961748895985)"><path d="M-0.35 0.35 C0.04 10.36, 1.65 50.39, 1.98 60.07 M1.67 -0.51 C2 9.19, 1.49 48.5, 1.39 58.5" stroke="#1e1e1e" stroke-width="2" fill="none"></path></g></g><mask></mask><g stroke-linecap="round"><g transform="translate(598.3420341487497 1244) rotate(0 -279.5 -545)"><path d="M0.52 -1.18 C-86.98 -32.91, -430.88 -47.12, -524.1 -189.79 C-617.33 -332.45, -590.48 -707.09, -558.84 -857.16 C-527.21 -1007.24, -371.7 -1051.62, -334.3 -1090.23" stroke="#1e1e1e" stroke-width="2.5" fill="none" stroke-dasharray="1.5 8"></path></g></g><mask></mask></svg>