<svg version="1.1" xmlns="http://www.w3.org/2000/svg" viewBox="0 0 426.3047672538869 675.1299216671687" width="426.3047672538869" height="675.1299216671687">
  <!-- svg-source:excalidraw -->
  
  <defs>
    <style class="style-fonts">
      @font-face {
        font-family: "Virgil";
        src: url("https://excalidraw.com/Virgil.woff2");
      }
      @font-face {
        font-family: "Cascadia";
        src: url("https://excalidraw.com/Cascadia.woff2");
      }
      @font-face {
        font-family: "Assistant";
        src: url("https://app.excalidraw.com//dist/excalidraw-assets/Assistant-Regular.woff2");
      }
    </style>
    
  </defs>
  <g stroke-linecap="round" transform="translate(50.63734092275763 20.396920091870925) rotate(0 35.15802188602947 8.438404197191772)"><path d="M0.48 7.04 C0.48 7.04, 0.48 7.04, 0.48 7.04 M0.48 7.04 C0.48 7.04, 0.48 7.04, 0.48 7.04 M2.18 11.17 C4.75 8.22, 7.32 5.26, 8.74 3.63 M2.18 11.17 C4.03 9.05, 5.87 6.93, 8.74 3.63 M5.86 13.04 C8.12 10.44, 10.38 7.84, 15.7 1.72 M5.86 13.04 C8.68 9.79, 11.51 6.54, 15.7 1.72 M9.53 14.91 C13.68 10.14, 17.83 5.36, 21.34 1.33 M9.53 14.91 C11.95 12.13, 14.38 9.34, 21.34 1.33 M14.52 15.27 C18.82 10.33, 23.12 5.38, 27.64 0.18 M14.52 15.27 C18.67 10.5, 22.82 5.73, 27.64 0.18 M18.85 16.39 C22.43 12.26, 26.02 8.14, 32.63 0.54 M18.85 16.39 C23.33 11.24, 27.8 6.09, 32.63 0.54 M23.84 16.75 C27.09 13.01, 30.34 9.27, 38.27 0.14 M23.84 16.75 C26.91 13.21, 29.98 9.68, 38.27 0.14 M28.83 17.11 C33.42 11.82, 38.01 6.54, 43.26 0.5 M28.83 17.11 C33.11 12.18, 37.4 7.24, 43.26 0.5 M34.47 16.71 C38.55 12.01, 42.64 7.32, 48.25 0.86 M34.47 16.71 C38.4 12.19, 42.32 7.68, 48.25 0.86 M39.46 17.07 C42.53 13.54, 45.6 10, 53.23 1.22 M39.46 17.07 C44.02 11.82, 48.59 6.56, 53.23 1.22 M44.44 17.43 C48.53 12.73, 52.62 8.03, 57.56 2.34 M44.44 17.43 C48.31 12.99, 52.17 8.54, 57.56 2.34 M50.74 16.28 C54.85 11.55, 58.97 6.82, 61.89 3.45 M50.74 16.28 C55.11 11.26, 59.47 6.24, 61.89 3.45 M56.38 15.89 C58.73 13.19, 61.08 10.49, 66.23 4.57 M56.38 15.89 C58.9 12.99, 61.42 10.1, 66.23 4.57 M64 13.23 C65.45 11.56, 66.9 9.89, 69.9 6.44 M64 13.23 C66.31 10.56, 68.63 7.9, 69.9 6.44" stroke="#f1413f" stroke-width="0.5" fill="none"></path><path d="M70.32 8.44 C70.32 8.93, 70.14 9.42, 69.78 9.9 C69.43 10.38, 68.89 10.87, 68.2 11.32 C67.5 11.78, 66.62 12.23, 65.61 12.66 C64.59 13.08, 63.4 13.49, 62.09 13.86 C60.78 14.24, 59.32 14.59, 57.76 14.9 C56.2 15.22, 54.5 15.5, 52.74 15.75 C50.97 15.99, 49.1 16.2, 47.18 16.37 C45.27 16.53, 43.27 16.66, 41.26 16.75 C39.26 16.83, 37.19 16.88, 35.16 16.88 C33.12 16.88, 31.06 16.83, 29.05 16.75 C27.05 16.66, 25.05 16.53, 23.13 16.37 C21.22 16.2, 19.34 15.99, 17.58 15.75 C15.82 15.5, 14.12 15.22, 12.56 14.9 C11 14.59, 9.53 14.24, 8.23 13.86 C6.92 13.49, 5.73 13.08, 4.71 12.66 C3.69 12.23, 2.82 11.78, 2.12 11.32 C1.42 10.87, 0.89 10.38, 0.53 9.9 C0.18 9.42, 0 8.93, 0 8.44 C0 7.95, 0.18 7.45, 0.53 6.97 C0.89 6.49, 1.42 6.01, 2.12 5.55 C2.82 5.09, 3.69 4.64, 4.71 4.22 C5.73 3.8, 6.92 3.39, 8.23 3.01 C9.53 2.64, 11 2.29, 12.56 1.97 C14.12 1.66, 15.82 1.37, 17.58 1.13 C19.34 0.89, 21.22 0.68, 23.13 0.51 C25.05 0.34, 27.05 0.21, 29.05 0.13 C31.06 0.04, 33.12 0, 35.16 0 C37.19 0, 39.26 0.04, 41.26 0.13 C43.27 0.21, 45.27 0.34, 47.18 0.51 C49.1 0.68, 50.97 0.89, 52.74 1.13 C54.5 1.37, 56.2 1.66, 57.76 1.97 C59.32 2.29, 60.78 2.64, 62.09 3.01 C63.4 3.39, 64.59 3.8, 65.61 4.22 C66.62 4.64, 67.5 5.09, 68.2 5.55 C68.89 6.01, 69.43 6.49, 69.78 6.97 C70.14 7.45, 70.23 8.19, 70.32 8.44 C70.41 8.68, 70.41 8.19, 70.32 8.44" stroke="#f1413f" stroke-width="1" fill="none"></path></g><g stroke-linecap="round"><g transform="translate(50.40614981295721 35.2208466810614) rotate(0 35.1748118180235 27.191116613533865)" fill-rule="evenodd"><path d="M0 0 C0 0, 0 0, 0 0 M0 0 C0 0, 0 0, 0 0 M1.05 4.89 C1.55 4.32, 2.04 3.75, 3.02 2.62 M1.05 4.89 C1.59 4.27, 2.13 3.65, 3.02 2.62 M2.1 9.78 C3.28 8.42, 4.47 7.06, 6.69 4.49 M2.1 9.78 C3.55 8.11, 5 6.44, 6.69 4.49 M3.15 14.67 C6.07 11.31, 8.99 7.95, 11.02 5.61 M3.15 14.67 C5.02 12.52, 6.89 10.37, 11.02 5.61 M4.86 18.8 C7.47 15.8, 10.08 12.79, 15.36 6.72 M4.86 18.8 C8.44 14.68, 12.01 10.57, 15.36 6.72 M5.91 23.69 C11.22 17.57, 16.54 11.46, 20.34 7.08 M5.91 23.69 C9.68 19.35, 13.45 15.01, 20.34 7.08 M6.96 28.58 C11.87 22.92, 16.79 17.27, 25.33 7.44 M6.96 28.58 C11.1 23.81, 15.24 19.05, 25.33 7.44 M8.01 33.46 C17 23.13, 25.98 12.79, 30.97 7.05 M8.01 33.46 C15.04 25.37, 22.08 17.28, 30.97 7.05 M9.06 38.35 C17.83 28.26, 26.6 18.18, 35.3 8.16 M9.06 38.35 C16.43 29.87, 23.8 21.4, 35.3 8.16 M10.11 43.24 C18.87 33.16, 27.63 23.09, 40.95 7.77 M10.11 43.24 C18.91 33.13, 27.7 23.01, 40.95 7.77 M11.16 48.13 C20.78 37.07, 30.39 26.01, 47.25 6.62 M11.16 48.13 C20.96 36.86, 30.76 25.59, 47.25 6.62 M14.18 50.75 C29.18 33.5, 44.18 16.24, 52.89 6.23 M14.18 50.75 C24.4 39, 34.62 27.25, 52.89 6.23 M17.86 52.62 C29.19 39.58, 40.52 26.55, 58.53 5.83 M17.86 52.62 C26.6 42.56, 35.35 32.5, 58.53 5.83 M22.19 53.74 C36.89 36.83, 51.58 19.92, 65.49 3.93 M22.19 53.74 C33.53 40.69, 44.86 27.65, 65.49 3.93 M27.17 54.1 C43.47 35.35, 59.76 16.61, 69.82 5.04 M27.17 54.1 C43.47 35.35, 59.77 16.6, 69.82 5.04 M32.16 54.46 C42.07 43.06, 51.98 31.66, 68.24 12.95 M32.16 54.46 C41.22 44.03, 50.29 33.61, 68.24 12.95 M37.15 54.82 C48.26 42.04, 59.37 29.26, 66.02 21.61 M37.15 54.82 C45.72 44.96, 54.29 35.1, 66.02 21.61 M42.79 54.42 C47.65 48.83, 52.51 43.24, 64.44 29.52 M42.79 54.42 C50.53 45.52, 58.27 36.62, 64.44 29.52 M48.43 54.03 C52.46 49.4, 56.48 44.77, 62.21 38.18 M48.43 54.03 C53.07 48.7, 57.7 43.37, 62.21 38.18 M56.05 51.37 C57.3 49.93, 58.55 48.49, 59.98 46.84 M56.05 51.37 C57.07 50.2, 58.08 49.02, 59.98 46.84" stroke="#f1413f" stroke-width="0.5" fill="none"></path><path d="M0 0 C4.29 18, 8.57 36.01, 11.88 49.91 M0 0 C3.43 14.41, 6.86 28.82, 11.88 49.91 M11.88 49.91 C13.97 50.94, 16.07 51.97, 17.48 52.67 M11.88 49.91 C13.01 50.47, 14.13 51.02, 17.48 52.67 M17.48 52.67 C19.61 53.06, 21.74 53.45, 23.08 53.7 M17.48 52.67 C19.32 53, 21.16 53.34, 23.08 53.7 M23.08 53.7 C25.11 53.86, 27.15 54.02, 29.63 54.21 M23.08 53.7 C24.5 53.81, 25.93 53.92, 29.63 54.21 M29.63 54.21 C31.72 54.28, 33.81 54.34, 35.14 54.38 M29.63 54.21 C31.2 54.26, 32.78 54.31, 35.14 54.38 M35.14 54.38 C36.78 54.35, 38.42 54.33, 40.22 54.3 M35.14 54.38 C36.56 54.36, 37.99 54.33, 40.22 54.3 M40.22 54.3 C41.71 54.19, 43.2 54.08, 46.25 53.86 M40.22 54.3 C42.22 54.15, 44.21 54.01, 46.25 53.86 M46.25 53.86 C48.22 53.51, 50.2 53.16, 53.57 52.57 M46.25 53.86 C47.78 53.59, 49.32 53.32, 53.57 52.57 M53.57 52.57 C55.4 51.71, 57.23 50.85, 58.56 50.23 M53.57 52.57 C55.49 51.67, 57.42 50.77, 58.56 50.23 M58.56 50.23 C61.05 39.64, 63.54 29.04, 70.35 0.07 M58.56 50.23 C61.86 36.22, 65.15 22.2, 70.35 0.07 M70.35 0.07 C69.91 0.54, 69.47 1.02, 68.35 2.22 M70.35 0.07 C69.7 0.76, 69.06 1.46, 68.35 2.22 M68.35 2.22 C67.76 2.46, 67.17 2.7, 65.42 3.42 M68.35 2.22 C67.72 2.48, 67.08 2.74, 65.42 3.42 M65.42 3.42 C63.74 3.85, 62.06 4.29, 61.1 4.54 M65.42 3.42 C63.79 3.84, 62.16 4.26, 61.1 4.54 M61.1 4.54 C59.28 4.89, 57.46 5.24, 54.88 5.74 M61.1 4.54 C59.84 4.78, 58.59 5.02, 54.88 5.74 M54.88 5.74 C52.98 6.06, 51.08 6.39, 49.35 6.68 M54.88 5.74 C53.09 6.05, 51.3 6.35, 49.35 6.68 M49.35 6.68 C47.57 6.8, 45.78 6.91, 44 7.03 M49.35 6.68 C47.92 6.78, 46.49 6.87, 44 7.03 M44 7.03 C42.5 7.12, 41 7.21, 38.21 7.37 M44 7.03 C42.25 7.13, 40.51 7.24, 38.21 7.37 M38.21 7.37 C36.08 7.31, 33.94 7.24, 32.43 7.2 M38.21 7.37 C36.48 7.32, 34.74 7.27, 32.43 7.2 M32.43 7.2 C31.21 7.22, 29.99 7.23, 26.47 7.28 M32.43 7.2 C30.06 7.23, 27.7 7.27, 26.47 7.28 M26.47 7.28 C25 7.16, 23.53 7.03, 20.42 6.77 M26.47 7.28 C25.02 7.16, 23.57 7.04, 20.42 6.77 M20.42 6.77 C18.16 6.44, 15.9 6.11, 13.86 5.82 M20.42 6.77 C18.78 6.53, 17.13 6.29, 13.86 5.82 M13.86 5.82 C11.27 5.2, 8.69 4.59, 7.3 4.26 M13.86 5.82 C12.03 5.38, 10.2 4.95, 7.3 4.26 M7.3 4.26 C5.81 3.7, 4.33 3.13, 2.98 2.62 M7.3 4.26 C6.18 3.84, 5.07 3.41, 2.98 2.62 M2.98 2.62 C2.21 1.94, 1.44 1.26, 0 0 M2.98 2.62 C2.19 1.93, 1.41 1.24, 0 0 M0 0 C0 0, 0 0, 0 0 M0 0 C0 0, 0 0, 0 0" stroke="#f1413f" stroke-width="1" fill="none"></path></g></g><mask></mask><g stroke-linecap="round" transform="translate(77.62701339385467 47.710664613359086) rotate(0 7.3657399554488165 7.108656675454455)"><path d="M0 0 L14.73 0 L14.73 14.22 L0 14.22" stroke="none" stroke-width="0" fill="#ffffff"></path><path d="M0 0 C5.22 0, 10.44 0, 14.73 0 M0 0 C3.99 0, 7.97 0, 14.73 0 M14.73 0 C14.73 5.57, 14.73 11.14, 14.73 14.22 M14.73 0 C14.73 4, 14.73 7.99, 14.73 14.22 M14.73 14.22 C11.35 14.22, 7.96 14.22, 0 14.22 M14.73 14.22 C10.5 14.22, 6.27 14.22, 0 14.22 M0 14.22 C0 9.22, 0 4.22, 0 0 M0 14.22 C0 11.3, 0 8.39, 0 0" stroke="#f1413f" stroke-width="1" fill="none"></path></g><g stroke-linecap="round" transform="translate(65.76383595654397 67.23553176172072) rotate(0 7.279538889437163 7.2795388894372195)"><path d="M14.56 7.28 C14.56 7.7, 14.52 8.13, 14.45 8.54 C14.38 8.96, 14.26 9.37, 14.12 9.77 C13.98 10.17, 13.79 10.55, 13.58 10.92 C13.37 11.28, 13.13 11.64, 12.86 11.96 C12.59 12.28, 12.28 12.59, 11.96 12.86 C11.64 13.13, 11.28 13.37, 10.92 13.58 C10.55 13.79, 10.17 13.98, 9.77 14.12 C9.37 14.26, 8.96 14.38, 8.54 14.45 C8.13 14.52, 7.7 14.56, 7.28 14.56 C6.86 14.56, 6.43 14.52, 6.02 14.45 C5.6 14.38, 5.19 14.26, 4.79 14.12 C4.39 13.98, 4 13.79, 3.64 13.58 C3.27 13.37, 2.92 13.13, 2.6 12.86 C2.28 12.59, 1.97 12.28, 1.7 11.96 C1.43 11.64, 1.19 11.28, 0.98 10.92 C0.76 10.55, 0.58 10.17, 0.44 9.77 C0.29 9.37, 0.18 8.96, 0.11 8.54 C0.04 8.13, 0 7.7, 0 7.28 C0 6.86, 0.04 6.43, 0.11 6.02 C0.18 5.6, 0.29 5.19, 0.44 4.79 C0.58 4.39, 0.76 4, 0.98 3.64 C1.19 3.27, 1.43 2.92, 1.7 2.6 C1.97 2.28, 2.28 1.97, 2.6 1.7 C2.92 1.43, 3.27 1.19, 3.64 0.98 C4 0.76, 4.39 0.58, 4.79 0.44 C5.19 0.29, 5.6 0.18, 6.02 0.11 C6.43 0.04, 6.86 0, 7.28 0 C7.7 0, 8.13 0.04, 8.54 0.11 C8.96 0.18, 9.37 0.29, 9.77 0.44 C10.17 0.58, 10.55 0.76, 10.92 0.98 C11.28 1.19, 11.64 1.43, 11.96 1.7 C12.28 1.97, 12.59 2.28, 12.86 2.6 C13.13 2.92, 13.37 3.27, 13.58 3.64 C13.79 4, 13.98 4.39, 14.12 4.79 C14.26 5.19, 14.38 5.6, 14.45 6.02 C14.52 6.43, 14.54 7.07, 14.56 7.28 C14.58 7.49, 14.58 7.07, 14.56 7.28" stroke="none" stroke-width="0" fill="#ffffff"></path><path d="M14.56 7.28 C14.56 7.7, 14.52 8.13, 14.45 8.54 C14.38 8.96, 14.26 9.37, 14.12 9.77 C13.98 10.17, 13.79 10.55, 13.58 10.92 C13.37 11.28, 13.13 11.64, 12.86 11.96 C12.59 12.28, 12.28 12.59, 11.96 12.86 C11.64 13.13, 11.28 13.37, 10.92 13.58 C10.55 13.79, 10.17 13.98, 9.77 14.12 C9.37 14.26, 8.96 14.38, 8.54 14.45 C8.13 14.52, 7.7 14.56, 7.28 14.56 C6.86 14.56, 6.43 14.52, 6.02 14.45 C5.6 14.38, 5.19 14.26, 4.79 14.12 C4.39 13.98, 4 13.79, 3.64 13.58 C3.27 13.37, 2.92 13.13, 2.6 12.86 C2.28 12.59, 1.97 12.28, 1.7 11.96 C1.43 11.64, 1.19 11.28, 0.98 10.92 C0.76 10.55, 0.58 10.17, 0.44 9.77 C0.29 9.37, 0.18 8.96, 0.11 8.54 C0.04 8.13, 0 7.7, 0 7.28 C0 6.86, 0.04 6.43, 0.11 6.02 C0.18 5.6, 0.29 5.19, 0.44 4.79 C0.58 4.39, 0.76 4, 0.98 3.64 C1.19 3.27, 1.43 2.92, 1.7 2.6 C1.97 2.28, 2.28 1.97, 2.6 1.7 C2.92 1.43, 3.27 1.19, 3.64 0.98 C4 0.76, 4.39 0.58, 4.79 0.44 C5.19 0.29, 5.6 0.18, 6.02 0.11 C6.43 0.04, 6.86 0, 7.28 0 C7.7 0, 8.13 0.04, 8.54 0.11 C8.96 0.18, 9.37 0.29, 9.77 0.44 C10.17 0.58, 10.55 0.76, 10.92 0.98 C11.28 1.19, 11.64 1.43, 11.96 1.7 C12.28 1.97, 12.59 2.28, 12.86 2.6 C13.13 2.92, 13.37 3.27, 13.58 3.64 C13.79 4, 13.98 4.39, 14.12 4.79 C14.26 5.19, 14.38 5.6, 14.45 6.02 C14.52 6.43, 14.54 7.07, 14.56 7.28 C14.58 7.49, 14.58 7.07, 14.56 7.28" stroke="#f1413f" stroke-width="1" fill="none"></path></g><g stroke-linecap="round"><g transform="translate(96.50830381763672 67.87650291251771) rotate(0 0.06839631182265293 6.762115362218708)" fill-rule="evenodd"><path d="M0 0 L-7.34 13.52 L7.48 13.35 L0 0" stroke="none" stroke-width="0" fill="#ffffff" fill-rule="evenodd"></path><path d="M0 0 C-1.52 2.79, -3.03 5.59, -7.34 13.52 M0 0 C-2.49 4.58, -4.97 9.16, -7.34 13.52 M-7.34 13.52 C-3.52 13.48, 0.29 13.44, 7.48 13.35 M-7.34 13.52 C-4.16 13.49, -0.97 13.45, 7.48 13.35 M7.48 13.35 C4.95 8.83, 2.41 4.3, 0 0 M7.48 13.35 C4.93 8.8, 2.38 4.24, 0 0 M0 0 C0 0, 0 0, 0 0 M0 0 C0 0, 0 0, 0 0" stroke="#f1413f" stroke-width="1" fill="none"></path></g></g><mask></mask><g stroke-linecap="round" transform="translate(178.6797672538869 10) rotate(0 94 59.5)"><path d="M29.75 0 C74.69 0.22, 118.86 0.98, 158.25 0 M29.75 0 C67.12 -0.74, 105.39 -1.08, 158.25 0 M158.25 0 C178.83 -0.38, 187.48 11.88, 188 29.75 M158.25 0 C180.36 -1.96, 189.84 8.3, 188 29.75 M188 29.75 C189.42 44.19, 188.38 59.01, 188 89.25 M188 29.75 C188.87 47.25, 188.3 63.68, 188 89.25 M188 89.25 C189.03 108.8, 177.59 121, 158.25 119 M188 89.25 C187.27 107.19, 178.58 116.82, 158.25 119 M158.25 119 C126.41 119.85, 98.8 118.81, 29.75 119 M158.25 119 C118.16 117.62, 75.98 117.92, 29.75 119 M29.75 119 C8.63 118.22, 0.76 111.03, 0 89.25 M29.75 119 C10.43 116.82, -0.92 108.22, 0 89.25 M0 89.25 C-0.61 72.25, 0.28 53.65, 0 29.75 M0 89.25 C-0.74 66.22, -0.95 44.07, 0 29.75 M0 29.75 C1.28 8.6, 9.67 0.62, 29.75 0 M0 29.75 C1.35 7.91, 9.53 0.28, 29.75 0" stroke="#1e1e1e" stroke-width="2" fill="none"></path></g><g transform="translate(233.03810084153338 57) rotate(0 39.641666412353516 12.5)"><text x="39.641666412353516" y="0" font-family="Virgil, Segoe UI Emoji" font-size="20px" fill="#1e1e1e" text-anchor="middle" style="white-space: pre;" direction="ltr" dominant-baseline="text-before-edge">Backend</text></g><g transform="translate(184.1797672538869 640.1299216671687) rotate(0 28.5 12.5)"><text x="0" y="0" font-family="Virgil, Segoe UI Emoji" font-size="20px" fill="#000000" text-anchor="start" style="white-space: pre;" direction="ltr" dominant-baseline="text-before-edge">Users</text></g><g stroke-linecap="round" transform="translate(224.62258419310638 572.8700783328318) rotate(0 9.875171816384864 8.640775339336699)"><path d="M2.19 3.23 C2.19 3.23, 2.19 3.23, 2.19 3.23 M2.19 3.23 C2.19 3.23, 2.19 3.23, 2.19 3.23 M2.98 14.51 C6.64 10.3, 10.3 6.09, 14.79 0.93 M2.98 14.51 C6.91 9.98, 10.85 5.46, 14.79 0.93 M10.33 18.25 C12.86 15.34, 15.39 12.43, 19.51 7.69 M10.33 18.25 C13.88 14.16, 17.44 10.07, 19.51 7.69 M3.77 15.47 C3.77 15.47, 3.77 15.47, 3.77 15.47 M3.77 15.47 C3.77 15.47, 3.77 15.47, 3.77 15.47 M15.81 15.34 C11.71 11.77, 7.6 8.2, 2.23 3.53 M15.81 15.34 C10.75 10.94, 5.69 6.54, 2.23 3.53 M20.31 8.65 C16.46 5.3, 12.62 1.96, 9.74 -0.54 M20.31 8.65 C17.01 5.78, 13.71 2.91, 9.74 -0.54" stroke="#ced4da" stroke-width="1" fill="none"></path><path d="M19.75 8.64 C19.75 9.14, 19.7 9.65, 19.6 10.14 C19.5 10.63, 19.35 11.13, 19.15 11.6 C18.96 12.07, 18.71 12.53, 18.43 12.96 C18.14 13.39, 17.81 13.81, 17.44 14.19 C17.07 14.58, 16.66 14.94, 16.22 15.26 C15.78 15.58, 15.31 15.87, 14.81 16.12 C14.32 16.37, 13.79 16.59, 13.25 16.76 C12.72 16.93, 12.15 17.06, 11.59 17.15 C11.03 17.24, 10.45 17.28, 9.88 17.28 C9.3 17.28, 8.72 17.24, 8.16 17.15 C7.6 17.06, 7.03 16.93, 6.5 16.76 C5.96 16.59, 5.43 16.37, 4.94 16.12 C4.44 15.87, 3.97 15.58, 3.53 15.26 C3.09 14.94, 2.68 14.58, 2.31 14.19 C1.94 13.81, 1.61 13.39, 1.32 12.96 C1.04 12.53, 0.79 12.07, 0.6 11.6 C0.4 11.13, 0.25 10.63, 0.15 10.14 C0.05 9.65, 0 9.14, 0 8.64 C0 8.14, 0.05 7.63, 0.15 7.14 C0.25 6.65, 0.4 6.16, 0.6 5.69 C0.79 5.22, 1.04 4.75, 1.32 4.32 C1.61 3.89, 1.94 3.47, 2.31 3.09 C2.68 2.7, 3.09 2.34, 3.53 2.02 C3.97 1.7, 4.44 1.41, 4.94 1.16 C5.43 0.91, 5.96 0.69, 6.5 0.52 C7.03 0.35, 7.6 0.22, 8.16 0.13 C8.72 0.04, 9.3 0, 9.88 0 C10.45 0, 11.03 0.04, 11.59 0.13 C12.15 0.22, 12.72 0.35, 13.25 0.52 C13.79 0.69, 14.32 0.91, 14.81 1.16 C15.31 1.41, 15.78 1.7, 16.22 2.02 C16.66 2.34, 17.07 2.7, 17.44 3.09 C17.81 3.47, 18.14 3.89, 18.43 4.32 C18.71 4.75, 18.96 5.22, 19.15 5.69 C19.35 6.16, 19.5 6.65, 19.6 7.14 C19.7 7.63, 19.73 8.39, 19.75 8.64 C19.78 8.89, 19.78 8.39, 19.75 8.64" stroke="#000000" stroke-width="2" fill="none"></path></g><g stroke-linecap="round" transform="translate(181.43891006878403 573.4531461164656) rotate(0 9.875171816384864 8.640775339336699)"><path d="M2.19 3.23 C2.19 3.23, 2.19 3.23, 2.19 3.23 M2.19 3.23 C2.19 3.23, 2.19 3.23, 2.19 3.23 M2.98 14.51 C6.98 9.91, 10.98 5.31, 14.79 0.93 M2.98 14.51 C7.01 9.88, 11.03 5.25, 14.79 0.93 M10.33 18.25 C12.79 15.42, 15.26 12.58, 19.51 7.69 M10.33 18.25 C12.55 15.69, 14.78 13.13, 19.51 7.69 M3.77 15.47 C3.77 15.47, 3.77 15.47, 3.77 15.47 M3.77 15.47 C3.77 15.47, 3.77 15.47, 3.77 15.47 M15.81 15.34 C11.91 11.94, 8 8.55, 2.23 3.53 M15.81 15.34 C11.83 11.88, 7.84 8.41, 2.23 3.53 M20.31 8.65 C17.27 6, 14.23 3.36, 9.74 -0.54 M20.31 8.65 C17.3 6.04, 14.3 3.42, 9.74 -0.54" stroke="#ced4da" stroke-width="1" fill="none"></path><path d="M19.75 8.64 C19.75 9.14, 19.7 9.65, 19.6 10.14 C19.5 10.63, 19.35 11.13, 19.15 11.6 C18.96 12.07, 18.71 12.53, 18.43 12.96 C18.14 13.39, 17.81 13.81, 17.44 14.19 C17.07 14.58, 16.66 14.94, 16.22 15.26 C15.78 15.58, 15.31 15.87, 14.81 16.12 C14.32 16.37, 13.79 16.59, 13.25 16.76 C12.72 16.93, 12.15 17.06, 11.59 17.15 C11.03 17.24, 10.45 17.28, 9.88 17.28 C9.3 17.28, 8.72 17.24, 8.16 17.15 C7.6 17.06, 7.03 16.93, 6.5 16.76 C5.96 16.59, 5.43 16.37, 4.94 16.12 C4.44 15.87, 3.97 15.58, 3.53 15.26 C3.09 14.94, 2.68 14.58, 2.31 14.19 C1.94 13.81, 1.61 13.39, 1.32 12.96 C1.04 12.53, 0.79 12.07, 0.6 11.6 C0.4 11.13, 0.25 10.63, 0.15 10.14 C0.05 9.65, 0 9.14, 0 8.64 C0 8.14, 0.05 7.63, 0.15 7.14 C0.25 6.65, 0.4 6.16, 0.6 5.69 C0.79 5.22, 1.04 4.75, 1.32 4.32 C1.61 3.89, 1.94 3.47, 2.31 3.09 C2.68 2.7, 3.09 2.34, 3.53 2.02 C3.97 1.7, 4.44 1.41, 4.94 1.16 C5.43 0.91, 5.96 0.69, 6.5 0.52 C7.03 0.35, 7.6 0.22, 8.16 0.13 C8.72 0.04, 9.3 0, 9.88 0 C10.45 0, 11.03 0.04, 11.59 0.13 C12.15 0.22, 12.72 0.35, 13.25 0.52 C13.79 0.69, 14.32 0.91, 14.81 1.16 C15.31 1.41, 15.78 1.7, 16.22 2.02 C16.66 2.34, 17.07 2.7, 17.44 3.09 C17.81 3.47, 18.14 3.89, 18.43 4.32 C18.71 4.75, 18.96 5.22, 19.15 5.69 C19.35 6.16, 19.5 6.65, 19.6 7.14 C19.7 7.63, 19.73 8.39, 19.75 8.64 C19.78 8.89, 19.78 8.39, 19.75 8.64" stroke="#000000" stroke-width="2" fill="none"></path></g><g stroke-linecap="round"><g transform="translate(191.8907300760493 632.3841818541155) rotate(0 20.90300106626728 -18.613522148782124)" fill-rule="evenodd"><path d="M11.93 -33.36 C11.93 -33.36, 11.93 -33.36, 11.93 -33.36 M11.93 -33.36 C11.93 -33.36, 11.93 -33.36, 11.93 -33.36 M1.56 -9.24 C7.9 -16.53, 14.24 -23.83, 25.18 -36.41 M1.56 -9.24 C7.29 -15.83, 13.02 -22.42, 25.18 -36.41 M4.32 -0.22 C14.12 -11.49, 23.91 -22.76, 31.22 -31.16 M4.32 -0.22 C15.01 -12.52, 25.69 -24.81, 31.22 -31.16 M14.95 -0.26 C21.18 -7.42, 27.41 -14.59, 36.6 -25.16 M14.95 -0.26 C21.3 -7.56, 27.65 -14.87, 36.6 -25.16 M25.58 -0.29 C29.92 -5.28, 34.26 -10.28, 40.67 -17.65 M25.58 -0.29 C29.87 -5.22, 34.16 -10.16, 40.67 -17.65 M36.21 -0.32 C38.13 -2.53, 40.05 -4.74, 44.08 -9.38 M36.21 -0.32 C38.14 -2.55, 40.08 -4.78, 44.08 -9.38 M0 0 C0 0, 0 0, 0 0 M0 0 C0 0, 0 0, 0 0 M12.04 -0.13 C8.21 -3.46, 4.38 -6.8, 1.47 -9.32 M12.04 -0.13 C8.54 -3.18, 5.03 -6.23, 1.47 -9.32 M24.08 -0.27 C19.14 -4.56, 14.2 -8.85, 2.95 -18.64 M24.08 -0.27 C17.23 -6.22, 10.38 -12.18, 2.95 -18.64 M35.37 -1.06 C24.6 -10.42, 13.83 -19.78, 5.93 -26.64 M35.37 -1.06 C25.48 -9.65, 15.6 -18.24, 5.93 -26.64 M42.88 -5.12 C34.94 -12.03, 26.99 -18.94, 11.18 -32.68 M42.88 -5.12 C33.48 -13.3, 24.07 -21.47, 11.18 -32.68 M41.34 -17.07 C35.16 -22.44, 28.98 -27.81, 18.7 -36.75 M41.34 -17.07 C32.37 -24.86, 23.4 -32.66, 18.7 -36.75" stroke="#ced4da" stroke-width="1" fill="none"></path><path d="M0 0 C0.78 -4.11, 1.34 -18.46, 4.68 -24.67 C8.03 -30.87, 14.94 -36.78, 20.07 -37.23 C25.2 -37.68, 31.83 -33.14, 35.45 -27.36 C39.07 -21.58, 47.71 -7.12, 41.81 -2.56 C35.9 2, 6.97 -0.43, 0 0 M0 0 C0.78 -4.11, 1.34 -18.46, 4.68 -24.67 C8.03 -30.87, 14.94 -36.78, 20.07 -37.23 C25.2 -37.68, 31.83 -33.14, 35.45 -27.36 C39.07 -21.58, 47.71 -7.12, 41.81 -2.56 C35.9 2, 6.97 -0.43, 0 0" stroke="#000000" stroke-width="2" fill="none"></path></g></g><mask></mask><g stroke-linecap="round" transform="translate(202.37685222685832 575.8096705342782) rotate(0 10.702336545928802 9.364544477687787)"><path d="M2.43 3.43 C2.43 3.43, 2.43 3.43, 2.43 3.43 M2.43 3.43 C2.43 3.43, 2.43 3.43, 2.43 3.43 M2.56 15.48 C6.7 10.72, 10.83 5.96, 15.02 1.14 M2.56 15.48 C6.12 11.38, 9.68 7.28, 15.02 1.14 M10.57 18.46 C13.07 15.58, 15.58 12.69, 21.06 6.38 M10.57 18.46 C13.89 14.63, 17.22 10.8, 21.06 6.38 M4.02 16.71 C4.02 16.71, 4.02 16.71, 4.02 16.71 M4.02 16.71 C4.02 16.71, 4.02 16.71, 4.02 16.71 M16.82 17.23 C12.01 13.06, 7.21 8.88, 1.72 4.11 M16.82 17.23 C13.51 14.36, 10.21 11.49, 1.72 4.11 M21.31 10.54 C17.89 7.57, 14.48 4.6, 9.24 0.04 M21.31 10.54 C17.25 7.01, 13.19 3.48, 9.24 0.04" stroke="#ced4da" stroke-width="1" fill="none"></path><path d="M21.4 9.36 C21.4 9.91, 21.35 10.46, 21.24 10.99 C21.13 11.52, 20.97 12.06, 20.76 12.57 C20.55 13.08, 20.28 13.58, 19.97 14.05 C19.66 14.52, 19.3 14.97, 18.9 15.38 C18.5 15.8, 18.06 16.19, 17.58 16.54 C17.11 16.89, 16.59 17.2, 16.05 17.47 C15.52 17.75, 14.94 17.98, 14.36 18.16 C13.78 18.35, 13.17 18.49, 12.56 18.59 C11.95 18.68, 11.32 18.73, 10.7 18.73 C10.08 18.73, 9.45 18.68, 8.84 18.59 C8.23 18.49, 7.62 18.35, 7.04 18.16 C6.46 17.98, 5.89 17.75, 5.35 17.47 C4.81 17.2, 4.3 16.89, 3.82 16.54 C3.35 16.19, 2.9 15.8, 2.5 15.38 C2.11 14.97, 1.74 14.52, 1.43 14.05 C1.12 13.58, 0.86 13.08, 0.65 12.57 C0.43 12.06, 0.27 11.52, 0.16 10.99 C0.06 10.46, 0 9.91, 0 9.36 C0 8.82, 0.06 8.27, 0.16 7.74 C0.27 7.2, 0.43 6.67, 0.65 6.16 C0.86 5.65, 1.12 5.15, 1.43 4.68 C1.74 4.21, 2.11 3.76, 2.5 3.35 C2.9 2.93, 3.35 2.54, 3.82 2.19 C4.3 1.84, 4.81 1.53, 5.35 1.25 C5.89 0.98, 6.46 0.75, 7.04 0.56 C7.62 0.38, 8.23 0.24, 8.84 0.14 C9.45 0.05, 10.08 0, 10.7 0 C11.32 0, 11.95 0.05, 12.56 0.14 C13.17 0.24, 13.78 0.38, 14.36 0.56 C14.94 0.75, 15.52 0.98, 16.05 1.25 C16.59 1.53, 17.11 1.84, 17.58 2.19 C18.06 2.54, 18.5 2.93, 18.9 3.35 C19.3 3.76, 19.66 4.21, 19.97 4.68 C20.28 5.15, 20.55 5.65, 20.76 6.16 C20.97 6.67, 21.13 7.2, 21.24 7.74 C21.35 8.27, 21.38 9.09, 21.4 9.36 C21.43 9.64, 21.43 9.09, 21.4 9.36" stroke="#000000" stroke-width="2" fill="none"></path></g><g stroke-linecap="round"><g transform="translate(221.0420655304997 598.7151171690625) rotate(0 16.718658601522293 9.951582500906)" fill-rule="evenodd"><path d="M0 0 C0 0, 0 0, 0 0 M0 0 C0 0, 0 0, 0 0 M6.04 5.25 C9.8 0.92, 13.56 -3.4, 17.85 -8.34 M6.04 5.25 C8.62 2.28, 11.21 -0.7, 17.85 -8.34 M10.11 12.76 C14.38 7.85, 18.65 2.93, 25.2 -4.6 M10.11 12.76 C15.18 6.92, 20.26 1.08, 25.2 -4.6 M14.18 20.27 C19.75 13.86, 25.32 7.45, 29.27 2.92 M14.18 20.27 C18.32 15.5, 22.47 10.74, 29.27 2.92 M17.59 28.54 C21.98 23.49, 26.37 18.45, 32.02 11.94 M17.59 28.54 C21.33 24.23, 25.08 19.93, 32.02 11.94 M29.53 27 C31.12 25.17, 32.7 23.35, 34.12 21.71 M29.53 27 C31.09 25.21, 32.64 23.42, 34.12 21.71 M14.43 27.6 C14.43 27.6, 14.43 27.6, 14.43 27.6 M14.43 27.6 C14.43 27.6, 14.43 27.6, 14.43 27.6 M26.47 27.47 C21.55 23.2, 16.64 18.92, 9.87 13.04 M26.47 27.47 C22.89 24.36, 19.31 21.24, 9.87 13.04 M33.23 22.75 C22.03 13.01, 10.83 3.27, 3.04 -3.5 M33.23 22.75 C23.37 14.18, 13.51 5.61, 3.04 -3.5 M31.68 10.8 C23.59 3.77, 15.5 -3.26, 9.8 -8.22 M31.68 10.8 C25.83 5.72, 19.98 0.63, 9.8 -8.22" stroke="#ced4da" stroke-width="1" fill="none"></path><path d="M0 0 C0.86 -0.93, 3.58 -4.18, 5.17 -5.57 C6.77 -6.97, 7.56 -7.83, 9.55 -8.36 C11.54 -8.89, 14.99 -8.89, 17.12 -8.76 C19.24 -8.62, 20.83 -8.43, 22.29 -7.56 C23.75 -6.7, 24.88 -5.11, 25.87 -3.58 C26.87 -2.06, 27.47 -0.33, 28.26 1.59 C29.06 3.52, 29.92 5.84, 30.65 7.96 C31.38 10.08, 32.18 12.41, 32.64 14.33 C33.11 16.25, 33.44 17.78, 33.44 19.51 C33.44 21.23, 33.3 23.42, 32.64 24.68 C31.98 25.94, 30.72 26.47, 29.46 27.07 C28.2 27.67, 26.87 28, 25.08 28.26 C23.29 28.53, 20.43 28.73, 18.71 28.66 C16.98 28.59, 15.46 28.93, 14.73 27.86 C14 26.8, 14.66 23.82, 14.33 22.29 C14 20.77, 13.47 20.23, 12.74 18.71 C12.01 17.18, 11.08 15.33, 9.95 13.14 C8.82 10.95, 7.63 7.76, 5.97 5.57 C4.31 3.38, 1 0.93, 0 0 M0 0 C0.86 -0.93, 3.58 -4.18, 5.17 -5.57 C6.77 -6.97, 7.56 -7.83, 9.55 -8.36 C11.54 -8.89, 14.99 -8.89, 17.12 -8.76 C19.24 -8.62, 20.83 -8.43, 22.29 -7.56 C23.75 -6.7, 24.88 -5.11, 25.87 -3.58 C26.87 -2.06, 27.47 -0.33, 28.26 1.59 C29.06 3.52, 29.92 5.84, 30.65 7.96 C31.38 10.08, 32.18 12.41, 32.64 14.33 C33.11 16.25, 33.44 17.78, 33.44 19.51 C33.44 21.23, 33.3 23.42, 32.64 24.68 C31.98 25.94, 30.72 26.47, 29.46 27.07 C28.2 27.67, 26.87 28, 25.08 28.26 C23.29 28.53, 20.43 28.73, 18.71 28.66 C16.98 28.59, 15.46 28.93, 14.73 27.86 C14 26.8, 14.66 23.82, 14.33 22.29 C14 20.77, 13.47 20.23, 12.74 18.71 C12.01 17.18, 11.08 15.33, 9.95 13.14 C8.82 10.95, 7.63 7.76, 5.97 5.57 C4.31 3.38, 1 0.93, 0 0" stroke="#000000" stroke-width="2" fill="none"></path></g></g><mask></mask><g stroke-linecap="round"><g transform="translate(203.12327907716553 598.7032412656581) rotate(0 -16.121563651467795 11.941899001087336)" fill-rule="evenodd"><path d="M-24.42 -2.68 C-24.42 -2.68, -24.42 -2.68, -24.42 -2.68 M-24.42 -2.68 C-24.42 -2.68, -24.42 -2.68, -24.42 -2.68 M-31.51 17.66 C-24.5 9.59, -17.48 1.53, -10.51 -6.49 M-31.51 17.66 C-26.59 12, -21.67 6.34, -10.51 -6.49 M-29.41 27.44 C-20.9 17.65, -12.4 7.87, -2.51 -3.51 M-29.41 27.44 C-21.88 18.78, -14.35 10.12, -2.51 -3.51 M-22.06 31.18 C-19.03 27.7, -16.01 24.22, -8.28 15.33 M-22.06 31.18 C-18.49 27.07, -14.92 22.97, -8.28 15.33 M-12.08 31.9 C-11.73 31.49, -11.37 31.07, -10.77 30.39 M-12.08 31.9 C-11.8 31.57, -11.51 31.24, -10.77 30.39 M-31.63 25.72 C-31.63 25.72, -31.63 25.72, -31.63 25.72 M-31.63 25.72 C-31.63 25.72, -31.63 25.72, -31.63 25.72 M-12.8 31.49 C-17.73 27.2, -22.66 22.91, -30.91 15.74 M-12.8 31.49 C-18.06 26.91, -23.32 22.34, -30.91 15.74 M-9.06 24.14 C-15.69 18.37, -22.33 12.6, -28.68 7.08 M-9.06 24.14 C-14.96 19.01, -20.86 13.88, -28.68 7.08 M-8.34 14.16 C-13.18 9.95, -18.02 5.74, -25.7 -0.93 M-8.34 14.16 C-15.17 8.23, -21.99 2.29, -25.7 -0.93 M-4.6 6.81 C-8.52 3.4, -12.44 0, -20.45 -6.96 M-4.6 6.81 C-10.24 1.91, -15.89 -3, -20.45 -6.96 M-0.1 0.12 C-3.29 -2.65, -6.48 -5.42, -9.16 -7.75 M-0.1 0.12 C-3.48 -2.82, -6.86 -5.76, -9.16 -7.75" stroke="#ced4da" stroke-width="1" fill="none"></path><path d="M0 0 C-0.66 -0.73, -2.59 -3.18, -3.98 -4.38 C-5.37 -5.57, -6.37 -6.63, -8.36 -7.17 C-10.35 -7.7, -13.8 -7.7, -15.92 -7.56 C-18.05 -7.43, -19.64 -7.23, -21.1 -6.37 C-22.56 -5.51, -23.68 -3.91, -24.68 -2.39 C-25.68 -0.86, -26.27 0.86, -27.07 2.79 C-27.86 4.71, -28.73 7.03, -29.46 9.16 C-30.19 11.28, -30.98 13.6, -31.45 15.52 C-31.91 17.45, -32.24 18.97, -32.24 20.7 C-32.24 22.42, -32.11 24.61, -31.45 25.87 C-30.78 27.13, -29.46 27.53, -28.26 28.26 C-27.07 28.99, -26.01 29.72, -24.28 30.25 C-22.56 30.78, -20.1 31.25, -17.91 31.45 C-15.72 31.65, -12.41 32.64, -11.15 31.45 C-9.89 30.25, -10.62 26.07, -10.35 24.28 C-10.08 22.49, -9.89 22.29, -9.55 20.7 C-9.22 19.11, -9.16 17.05, -8.36 14.73 C-7.56 12.41, -6.17 9.22, -4.78 6.77 C-3.38 4.31, -0.8 1.13, 0 0 M0 0 C-0.66 -0.73, -2.59 -3.18, -3.98 -4.38 C-5.37 -5.57, -6.37 -6.63, -8.36 -7.17 C-10.35 -7.7, -13.8 -7.7, -15.92 -7.56 C-18.05 -7.43, -19.64 -7.23, -21.1 -6.37 C-22.56 -5.51, -23.68 -3.91, -24.68 -2.39 C-25.68 -0.86, -26.27 0.86, -27.07 2.79 C-27.86 4.71, -28.73 7.03, -29.46 9.16 C-30.19 11.28, -30.98 13.6, -31.45 15.52 C-31.91 17.45, -32.24 18.97, -32.24 20.7 C-32.24 22.42, -32.11 24.61, -31.45 25.87 C-30.78 27.13, -29.46 27.53, -28.26 28.26 C-27.07 28.99, -26.01 29.72, -24.28 30.25 C-22.56 30.78, -20.1 31.25, -17.91 31.45 C-15.72 31.65, -12.41 32.64, -11.15 31.45 C-9.89 30.25, -10.62 26.07, -10.35 24.28 C-10.08 22.49, -9.89 22.29, -9.55 20.7 C-9.22 19.11, -9.16 17.05, -8.36 14.73 C-7.56 12.41, -6.17 9.22, -4.78 6.77 C-3.38 4.31, -0.8 1.13, 0 0" stroke="#000000" stroke-width="2" fill="none"></path></g></g><mask></mask><g stroke-linecap="round" transform="translate(65.6797672538869 410.9999999999999) rotate(0 138.5 52)"><path d="M26 0 C114.52 -2.75, 204.92 -1.37, 251 0 M26 0 C112.39 -0.66, 197.39 -0.26, 251 0 M251 0 C269.7 0.82, 277.22 8.17, 277 26 M251 0 C269.52 -0.33, 276.44 10.96, 277 26 M277 26 C274.67 38.73, 278.31 52.76, 277 78 M277 26 C277.69 38.78, 276.44 50.26, 277 78 M277 78 C278.28 95.06, 266.74 104.32, 251 104 M277 78 C275.52 94.44, 269.2 106.24, 251 104 M251 104 C177.79 103.27, 106.49 103.02, 26 104 M251 104 C188.08 105.1, 125.13 104.42, 26 104 M26 104 C7.6 102.3, -1.49 93.71, 0 78 M26 104 C10.14 102.49, -0.28 96.05, 0 78 M0 78 C0.7 59.67, 0.14 40.08, 0 26 M0 78 C-1.06 62.25, -0.65 46, 0 26 M0 26 C0.75 8.61, 10.05 -0.04, 26 0 M0 26 C-1.85 7.42, 10.2 1.09, 26 0" stroke="#1e1e1e" stroke-width="2" fill="none"></path></g><g transform="translate(102.77976572800799 437.9999999999999) rotate(0 101.4000015258789 25)"><text x="101.4000015258789" y="0" font-family="Virgil, Segoe UI Emoji" font-size="20px" fill="#1e1e1e" text-anchor="middle" style="white-space: pre;" direction="ltr" dominant-baseline="text-before-edge">Frontend (Running in </text><text x="101.4000015258789" y="25" font-family="Virgil, Segoe UI Emoji" font-size="20px" fill="#1e1e1e" text-anchor="middle" style="white-space: pre;" direction="ltr" dominant-baseline="text-before-edge">Browser)</text></g><g mask="url(#mask-PrLlvMpssFqqkI3A379yG)" stroke-linecap="round"><g transform="translate(349.6797672538869 396.9999999999999) rotate(0 -4 -126.5)"><path d="M0.12 0.96 C-1 -41.08, -6.37 -210.3, -7.53 -252.66 M-1.28 0.42 C-2.43 -41.97, -7.28 -212.54, -8.24 -254.6" stroke="#1e1e1e" stroke-width="2" fill="none"></path></g><g transform="translate(349.6797672538869 396.9999999999999) rotate(0 -4 -126.5)"><path d="M0.92 -231.34 C0.5 -235.9, -2.64 -240.09, -8.24 -254.6 M0.92 -231.34 C-1.1 -237.58, -4.31 -244.92, -8.24 -254.6" stroke="#1e1e1e" stroke-width="2" fill="none"></path></g><g transform="translate(349.6797672538869 396.9999999999999) rotate(0 -4 -126.5)"><path d="M-16.17 -230.89 C-12.67 -235.57, -11.88 -239.86, -8.24 -254.6 M-16.17 -230.89 C-13.29 -237.32, -11.58 -244.78, -8.24 -254.6" stroke="#1e1e1e" stroke-width="2" fill="none"></path></g></g><mask id="mask-PrLlvMpssFqqkI3A379yG"><rect x="0" y="0" fill="#fff" width="457.6797672538869" height="749.9999999999999"></rect><rect x="275.0547672538869" y="245.4999999999999" fill="#000" width="141.25" height="50" opacity="1"></rect></mask><g transform="translate(275.0547672538869 245.4999999999999) rotate(0 70.56623078627035 24.68128406147008)"><text x="70.625" y="0" font-family="Virgil, Segoe UI Emoji" font-size="20px" fill="#1e1e1e" text-anchor="middle" style="white-space: pre;" direction="ltr" dominant-baseline="text-before-edge">Request CDN </text><text x="70.625" y="25" font-family="Virgil, Segoe UI Emoji" font-size="20px" fill="#1e1e1e" text-anchor="middle" style="white-space: pre;" direction="ltr" dominant-baseline="text-before-edge">Download URL</text></g><g stroke-linecap="round" transform="translate(22.48949937169482 218.89148098778435) rotate(0 96.9955580584624 38.79822322338498)"><path d="M19.4 0 C51.42 -1.49, 84.63 0.24, 174.59 0 M19.4 0 C66.94 0.5, 114.27 0.5, 174.59 0 M174.59 0 C188.12 1.19, 195.54 7.67, 193.99 19.4 M174.59 0 C189.08 1.09, 195.06 5.89, 193.99 19.4 M193.99 19.4 C193.6 35.03, 192.03 47.63, 193.99 58.2 M193.99 19.4 C194.89 33.16, 194.35 47.63, 193.99 58.2 M193.99 58.2 C192.02 72.98, 189.35 77.5, 174.59 77.6 M193.99 58.2 C194.79 70.59, 185.27 75.93, 174.59 77.6 M174.59 77.6 C112.91 75.06, 54.74 75.73, 19.4 77.6 M174.59 77.6 C142.9 76.92, 112.03 77.26, 19.4 77.6 M19.4 77.6 C5.18 77.26, -0.61 71.11, 0 58.2 M19.4 77.6 C7.66 78.91, 0.47 69.74, 0 58.2 M0 58.2 C-1.74 49.11, -0.49 36.28, 0 19.4 M0 58.2 C0.25 45.99, 0.65 32.2, 0 19.4 M0 19.4 C-1.12 8.38, 5.35 0.03, 19.4 0 M0 19.4 C-1.12 4.2, 6.8 0.59, 19.4 0" stroke="#1e1e1e" stroke-width="2" fill="none"></path></g><g transform="translate(76.7183910178037 245.18970421116933) rotate(0 42.766666412353516 12.5)"><text x="42.766666412353516" y="0" font-family="Virgil, Segoe UI Emoji" font-size="20px" fill="#1e1e1e" text-anchor="middle" style="white-space: pre;" direction="ltr" dominant-baseline="text-before-edge">CDN Pop</text></g><g stroke-linecap="round"><g transform="translate(86.3924552690346 207.4802388632594) rotate(0 0.5705621062263617 -58.76789694130366)"><path d="M0.31 0.89 C0.68 -18.62, 0.87 -97.06, 1.03 -116.89 M-0.99 0.31 C-0.69 -19.56, -0.23 -99.12, 0.02 -118.67" stroke="#1e1e1e" stroke-width="2" fill="none"></path></g><g transform="translate(86.3924552690346 207.4802388632594) rotate(0 0.5705621062263617 -58.76789694130366)"><path d="M8.36 -95.1 C8.13 -100.02, 6.05 -104.44, 0.02 -118.67 M8.36 -95.1 C6.43 -100.21, 2.92 -107.47, 0.02 -118.67" stroke="#1e1e1e" stroke-width="2" fill="none"></path></g><g transform="translate(86.3924552690346 207.4802388632594) rotate(0 0.5705621062263617 -58.76789694130366)"><path d="M-8.74 -95.25 C-5.52 -100.18, -4.16 -104.58, 0.02 -118.67 M-8.74 -95.25 C-6.26 -100.25, -5.37 -107.48, 0.02 -118.67" stroke="#1e1e1e" stroke-width="2" fill="none"></path></g></g><mask></mask><g mask="url(#mask-UA4xWcSnsb7r7SeHvBi8Y)" stroke-linecap="round"><g transform="translate(113.7794363678945 399.1891065552792) rotate(0 0.5705621062263617 -44.50384428564746)"><path d="M1.02 0.57 C1.28 -14.27, 1.54 -74.63, 1.69 -89.66 M0.09 -0.17 C0.23 -14.81, 0.79 -73.73, 1.03 -88.46" stroke="#1e1e1e" stroke-width="2" fill="none"></path></g><g transform="translate(113.7794363678945 399.1891065552792) rotate(0 0.5705621062263617 -44.50384428564746)"><path d="M9.29 -64.87 C7.81 -71.19, 3.21 -78.17, 1.03 -88.46 M9.29 -64.87 C6.56 -71.01, 4.65 -77.06, 1.03 -88.46" stroke="#1e1e1e" stroke-width="2" fill="none"></path></g><g transform="translate(113.7794363678945 399.1891065552792) rotate(0 0.5705621062263617 -44.50384428564746)"><path d="M-7.81 -65.08 C-3.99 -71.48, -3.29 -78.4, 1.03 -88.46 M-7.81 -65.08 C-6.24 -71.04, -3.85 -77.04, 1.03 -88.46" stroke="#1e1e1e" stroke-width="2" fill="none"></path></g></g><mask id="mask-UA4xWcSnsb7r7SeHvBi8Y"><rect x="0" y="0" fill="#fff" width="214.92056058034723" height="588.1967951265741"></rect><rect x="10" y="342.18526226963183" fill="#000" width="208.6999969482422" height="25" opacity="1"></rect></mask><g transform="translate(10 342.1852622696317) rotate(0 104.67035622564572 12.461406447738398)"><text x="104.3499984741211" y="0" font-family="Virgil, Segoe UI Emoji" font-size="20px" fill="#1e1e1e" text-anchor="middle" style="white-space: pre;" direction="ltr" dominant-baseline="text-before-edge">Request cached Copy</text></g><g stroke-linecap="round"><g transform="translate(215.33949127616688 564.6521173608915) rotate(0 0 -17.68742529301369)"><path d="M0.35 -0.53 C0.25 -6.4, -0.43 -29.96, -0.43 -35.77 M-0.14 0.39 C-0.07 -5.38, 0.54 -29.41, 0.58 -35.27" stroke="#1e1e1e" stroke-width="2" fill="none"></path></g><g transform="translate(215.33949127616688 564.6521173608915) rotate(0 0 -17.68742529301369)"><path d="M6.33 -18.55 C3.72 -24.6, 2.08 -28.77, 0.58 -35.27 M6.33 -18.55 C4.48 -23.64, 2.56 -28.6, 0.58 -35.27" stroke="#1e1e1e" stroke-width="2" fill="none"></path></g><g transform="translate(215.33949127616688 564.6521173608915) rotate(0 0 -17.68742529301369)"><path d="M-5.76 -18.77 C-4.49 -24.79, -2.23 -28.88, 0.58 -35.27 M-5.76 -18.77 C-4.06 -23.77, -2.42 -28.67, 0.58 -35.27" stroke="#1e1e1e" stroke-width="2" fill="none"></path></g></g><mask></mask></svg>