<svg version="1.1" xmlns="http://www.w3.org/2000/svg" viewBox="0 0 468.16666412353516 675.1299216671686" width="468.16666412353516" height="675.1299216671686">
  <!-- svg-source:excalidraw -->
  
  <defs>
    <style class="style-fonts">
      @font-face {
        font-family: "Virgil";
        src: url("https://excalidraw.com/Virgil.woff2");
      }
      @font-face {
        font-family: "Cascadia";
        src: url("https://excalidraw.com/Cascadia.woff2");
      }
      @font-face {
        font-family: "Assistant";
        src: url("https://app.excalidraw.com//dist/excalidraw-assets/Assistant-Regular.woff2");
      }
    </style>
    
  </defs>
  <g stroke-linecap="round" transform="translate(68.5492408441637 20.396920091870925) rotate(0 35.15802188602947 8.438404197191772)"><path d="M0.48 7.04 C0.48 7.04, 0.48 7.04, 0.48 7.04 M0.48 7.04 C0.48 7.04, 0.48 7.04, 0.48 7.04 M2.18 11.17 C4.32 8.71, 6.47 6.25, 8.74 3.63 M2.18 11.17 C3.58 9.57, 4.98 7.96, 8.74 3.63 M5.86 13.04 C7.95 10.64, 10.03 8.24, 15.7 1.72 M5.86 13.04 C9.1 9.31, 12.35 5.58, 15.7 1.72 M9.53 14.91 C11.96 12.12, 14.38 9.33, 21.34 1.33 M9.53 14.91 C12.72 11.25, 15.9 7.58, 21.34 1.33 M14.52 15.27 C18.12 11.13, 21.71 7, 27.64 0.18 M14.52 15.27 C19.34 9.73, 24.16 4.18, 27.64 0.18 M18.85 16.39 C22.59 12.09, 26.32 7.79, 32.63 0.54 M18.85 16.39 C22.56 12.12, 26.26 7.86, 32.63 0.54 M23.84 16.75 C29.46 10.28, 35.09 3.8, 38.27 0.14 M23.84 16.75 C29.28 10.49, 34.72 4.23, 38.27 0.14 M28.83 17.11 C32.01 13.44, 35.2 9.78, 43.26 0.5 M28.83 17.11 C33.06 12.23, 37.3 7.35, 43.26 0.5 M34.47 16.71 C37.33 13.42, 40.2 10.12, 48.25 0.86 M34.47 16.71 C38.12 12.51, 41.77 8.31, 48.25 0.86 M39.46 17.07 C43.66 12.24, 47.86 7.41, 53.23 1.22 M39.46 17.07 C42.54 13.52, 45.63 9.97, 53.23 1.22 M44.44 17.43 C47.47 13.95, 50.5 10.46, 57.56 2.34 M44.44 17.43 C47.53 13.89, 50.61 10.34, 57.56 2.34 M50.74 16.28 C54.39 12.09, 58.04 7.89, 61.89 3.45 M50.74 16.28 C54.5 11.96, 58.26 7.64, 61.89 3.45 M56.38 15.89 C58.48 13.47, 60.58 11.06, 66.23 4.57 M56.38 15.89 C60.19 11.51, 64.01 7.12, 66.23 4.57 M64 13.23 C65.44 11.57, 66.88 9.92, 69.9 6.44 M64 13.23 C65.8 11.15, 67.61 9.07, 69.9 6.44" stroke="#f1413f" stroke-width="0.5" fill="none"></path><path d="M70.32 8.44 C70.32 8.93, 70.14 9.42, 69.78 9.9 C69.43 10.38, 68.89 10.87, 68.2 11.32 C67.5 11.78, 66.62 12.23, 65.61 12.66 C64.59 13.08, 63.4 13.49, 62.09 13.86 C60.78 14.24, 59.32 14.59, 57.76 14.9 C56.2 15.22, 54.5 15.5, 52.74 15.75 C50.97 15.99, 49.1 16.2, 47.18 16.37 C45.27 16.53, 43.27 16.66, 41.26 16.75 C39.26 16.83, 37.19 16.88, 35.16 16.88 C33.12 16.88, 31.06 16.83, 29.05 16.75 C27.05 16.66, 25.05 16.53, 23.13 16.37 C21.22 16.2, 19.34 15.99, 17.58 15.75 C15.82 15.5, 14.12 15.22, 12.56 14.9 C11 14.59, 9.53 14.24, 8.23 13.86 C6.92 13.49, 5.73 13.08, 4.71 12.66 C3.69 12.23, 2.82 11.78, 2.12 11.32 C1.42 10.87, 0.89 10.38, 0.53 9.9 C0.18 9.42, 0 8.93, 0 8.44 C0 7.95, 0.18 7.45, 0.53 6.97 C0.89 6.49, 1.42 6.01, 2.12 5.55 C2.82 5.09, 3.69 4.64, 4.71 4.22 C5.73 3.8, 6.92 3.39, 8.23 3.01 C9.53 2.64, 11 2.29, 12.56 1.97 C14.12 1.66, 15.82 1.37, 17.58 1.13 C19.34 0.89, 21.22 0.68, 23.13 0.51 C25.05 0.34, 27.05 0.21, 29.05 0.13 C31.06 0.04, 33.12 0, 35.16 0 C37.19 0, 39.26 0.04, 41.26 0.13 C43.27 0.21, 45.27 0.34, 47.18 0.51 C49.1 0.68, 50.97 0.89, 52.74 1.13 C54.5 1.37, 56.2 1.66, 57.76 1.97 C59.32 2.29, 60.78 2.64, 62.09 3.01 C63.4 3.39, 64.59 3.8, 65.61 4.22 C66.62 4.64, 67.5 5.09, 68.2 5.55 C68.89 6.01, 69.43 6.49, 69.78 6.97 C70.14 7.45, 70.23 8.19, 70.32 8.44 C70.41 8.68, 70.41 8.19, 70.32 8.44" stroke="#f1413f" stroke-width="1" fill="none"></path></g><g stroke-linecap="round"><g transform="translate(68.31804973436329 35.2208466810614) rotate(0 35.174811818023386 27.191116613533865)" fill-rule="evenodd"><path d="M0 0 C0 0, 0 0, 0 0 M0 0 C0 0, 0 0, 0 0 M1.05 4.89 C1.63 4.22, 2.21 3.56, 3.02 2.62 M1.05 4.89 C1.62 4.24, 2.19 3.58, 3.02 2.62 M2.1 9.78 C3.47 8.2, 4.84 6.62, 6.69 4.49 M2.1 9.78 C3.79 7.84, 5.47 5.9, 6.69 4.49 M3.15 14.67 C5.53 11.93, 7.91 9.19, 11.02 5.61 M3.15 14.67 C5.47 12, 7.79 9.33, 11.02 5.61 M4.86 18.8 C7.14 16.18, 9.42 13.56, 15.36 6.72 M4.86 18.8 C7.53 15.73, 10.2 12.66, 15.36 6.72 M5.91 23.69 C11 17.83, 16.09 11.97, 20.34 7.08 M5.91 23.69 C9.23 19.87, 12.55 16.05, 20.34 7.08 M6.96 28.58 C11.95 22.83, 16.95 17.09, 25.33 7.44 M6.96 28.58 C11.53 23.32, 16.11 18.06, 25.33 7.44 M8.01 33.46 C13.67 26.95, 19.33 20.44, 30.97 7.05 M8.01 33.46 C13.18 27.52, 18.35 21.57, 30.97 7.05 M9.06 38.35 C17.32 28.85, 25.59 19.34, 35.3 8.16 M9.06 38.35 C14.43 32.18, 19.79 26.01, 35.3 8.16 M10.11 43.24 C20.5 31.29, 30.89 19.34, 40.95 7.77 M10.11 43.24 C16.49 35.91, 22.86 28.57, 40.95 7.77 M11.16 48.13 C20.22 37.7, 29.29 27.28, 47.25 6.62 M11.16 48.13 C20.94 36.88, 30.72 25.63, 47.25 6.62 M14.18 50.75 C26.98 36.03, 39.77 21.31, 52.89 6.23 M14.18 50.75 C25.73 37.46, 37.28 24.18, 52.89 6.23 M17.86 52.62 C27.58 41.44, 37.3 30.26, 58.53 5.83 M17.86 52.62 C29.9 38.77, 41.94 24.92, 58.53 5.83 M22.19 53.74 C34.63 39.42, 47.07 25.11, 65.49 3.93 M22.19 53.74 C31.75 42.73, 41.32 31.73, 65.49 3.93 M27.17 54.1 C39.53 39.88, 51.89 25.66, 69.82 5.04 M27.17 54.1 C36.71 43.13, 46.24 32.16, 69.82 5.04 M32.16 54.46 C40.11 45.32, 48.05 36.18, 68.24 12.95 M32.16 54.46 C42.69 42.35, 53.22 30.23, 68.24 12.95 M37.15 54.82 C44.89 45.92, 52.62 37.02, 66.02 21.61 M37.15 54.82 C45.65 45.04, 54.15 35.26, 66.02 21.61 M42.79 54.42 C49.18 47.07, 55.57 39.72, 64.44 29.52 M42.79 54.42 C47.67 48.81, 52.55 43.19, 64.44 29.52 M48.43 54.03 C52.45 49.41, 56.46 44.79, 62.21 38.18 M48.43 54.03 C51.83 50.12, 55.23 46.21, 62.21 38.18 M56.05 51.37 C56.96 50.32, 57.87 49.27, 59.98 46.84 M56.05 51.37 C57.36 49.86, 58.67 48.35, 59.98 46.84" stroke="#f1413f" stroke-width="0.5" fill="none"></path><path d="M0 0 C4.19 17.61, 8.38 35.22, 11.88 49.91 M0 0 C4.01 16.83, 8.01 33.66, 11.88 49.91 M11.88 49.91 C13.98 50.95, 16.09 51.98, 17.48 52.67 M11.88 49.91 C14.05 50.98, 16.22 52.04, 17.48 52.67 M17.48 52.67 C19.58 53.05, 21.68 53.44, 23.08 53.7 M17.48 52.67 C19.25 52.99, 21.01 53.32, 23.08 53.7 M23.08 53.7 C24.94 53.84, 26.8 53.99, 29.63 54.21 M23.08 53.7 C24.82 53.83, 26.56 53.97, 29.63 54.21 M29.63 54.21 C31.66 54.27, 33.69 54.34, 35.14 54.38 M29.63 54.21 C30.99 54.25, 32.36 54.3, 35.14 54.38 M35.14 54.38 C36.6 54.36, 38.06 54.33, 40.22 54.3 M35.14 54.38 C37.04 54.35, 38.93 54.32, 40.22 54.3 M40.22 54.3 C42.29 54.15, 44.36 54, 46.25 53.86 M40.22 54.3 C42.06 54.16, 43.9 54.03, 46.25 53.86 M46.25 53.86 C48.78 53.41, 51.32 52.97, 53.57 52.57 M46.25 53.86 C48.46 53.47, 50.67 53.08, 53.57 52.57 M53.57 52.57 C54.88 51.95, 56.19 51.34, 58.56 50.23 M53.57 52.57 C54.85 51.97, 56.13 51.37, 58.56 50.23 M58.56 50.23 C61.81 36.41, 65.06 22.58, 70.35 0.07 M58.56 50.23 C62.61 32.99, 66.66 15.75, 70.35 0.07 M70.35 0.07 C69.87 0.59, 69.39 1.1, 68.35 2.22 M70.35 0.07 C69.82 0.64, 69.29 1.2, 68.35 2.22 M68.35 2.22 C67.35 2.63, 66.34 3.04, 65.42 3.42 M68.35 2.22 C67.51 2.56, 66.67 2.9, 65.42 3.42 M65.42 3.42 C63.91 3.81, 62.4 4.2, 61.1 4.54 M65.42 3.42 C64.16 3.74, 62.9 4.07, 61.1 4.54 M61.1 4.54 C59.42 4.86, 57.75 5.18, 54.88 5.74 M61.1 4.54 C59.76 4.79, 58.43 5.05, 54.88 5.74 M54.88 5.74 C53.72 5.94, 52.57 6.13, 49.35 6.68 M54.88 5.74 C53.25 6.02, 51.63 6.3, 49.35 6.68 M49.35 6.68 C48.13 6.76, 46.91 6.84, 44 7.03 M49.35 6.68 C47.69 6.79, 46.03 6.9, 44 7.03 M44 7.03 C41.71 7.16, 39.42 7.3, 38.21 7.37 M44 7.03 C42.67 7.11, 41.35 7.19, 38.21 7.37 M38.21 7.37 C36.78 7.33, 35.36 7.29, 32.43 7.2 M38.21 7.37 C36.76 7.33, 35.31 7.28, 32.43 7.2 M32.43 7.2 C31.01 7.22, 29.59 7.24, 26.47 7.28 M32.43 7.2 C30.95 7.22, 29.47 7.24, 26.47 7.28 M26.47 7.28 C25.23 7.18, 23.99 7.07, 20.42 6.77 M26.47 7.28 C25.18 7.17, 23.9 7.06, 20.42 6.77 M20.42 6.77 C18.99 6.56, 17.57 6.35, 13.86 5.82 M20.42 6.77 C18.46 6.48, 16.5 6.2, 13.86 5.82 M13.86 5.82 C12.31 5.45, 10.76 5.08, 7.3 4.26 M13.86 5.82 C12.1 5.4, 10.35 4.98, 7.3 4.26 M7.3 4.26 C5.7 3.65, 4.1 3.05, 2.98 2.62 M7.3 4.26 C5.88 3.72, 4.46 3.18, 2.98 2.62 M2.98 2.62 C2 1.76, 1.03 0.9, 0 0 M2.98 2.62 C1.83 1.61, 0.68 0.6, 0 0 M0 0 C0 0, 0 0, 0 0 M0 0 C0 0, 0 0, 0 0" stroke="#f1413f" stroke-width="1" fill="none"></path></g></g><mask></mask><g stroke-linecap="round" transform="translate(95.53891331526074 47.710664613359086) rotate(0 7.36573995544893 7.108656675454455)"><path d="M0 0 L14.73 0 L14.73 14.22 L0 14.22" stroke="none" stroke-width="0" fill="#ffffff"></path><path d="M0 0 C3.07 0, 6.13 0, 14.73 0 M0 0 C3.74 0, 7.49 0, 14.73 0 M14.73 0 C14.73 4.64, 14.73 9.28, 14.73 14.22 M14.73 0 C14.73 3.03, 14.73 6.05, 14.73 14.22 M14.73 14.22 C11.61 14.22, 8.48 14.22, 0 14.22 M14.73 14.22 C9.88 14.22, 5.02 14.22, 0 14.22 M0 14.22 C0 11.3, 0 8.38, 0 0 M0 14.22 C0 10.38, 0 6.55, 0 0" stroke="#f1413f" stroke-width="1" fill="none"></path></g><g stroke-linecap="round" transform="translate(83.67573587795005 67.23553176172072) rotate(0 7.279538889437163 7.2795388894372195)"><path d="M14.56 7.28 C14.56 7.7, 14.52 8.13, 14.45 8.54 C14.38 8.96, 14.26 9.37, 14.12 9.77 C13.98 10.17, 13.79 10.55, 13.58 10.92 C13.37 11.28, 13.13 11.64, 12.86 11.96 C12.59 12.28, 12.28 12.59, 11.96 12.86 C11.64 13.13, 11.28 13.37, 10.92 13.58 C10.55 13.79, 10.17 13.98, 9.77 14.12 C9.37 14.26, 8.96 14.38, 8.54 14.45 C8.13 14.52, 7.7 14.56, 7.28 14.56 C6.86 14.56, 6.43 14.52, 6.02 14.45 C5.6 14.38, 5.19 14.26, 4.79 14.12 C4.39 13.98, 4 13.79, 3.64 13.58 C3.27 13.37, 2.92 13.13, 2.6 12.86 C2.28 12.59, 1.97 12.28, 1.7 11.96 C1.43 11.64, 1.19 11.28, 0.98 10.92 C0.76 10.55, 0.58 10.17, 0.44 9.77 C0.29 9.37, 0.18 8.96, 0.11 8.54 C0.04 8.13, 0 7.7, 0 7.28 C0 6.86, 0.04 6.43, 0.11 6.02 C0.18 5.6, 0.29 5.19, 0.44 4.79 C0.58 4.39, 0.76 4, 0.98 3.64 C1.19 3.27, 1.43 2.92, 1.7 2.6 C1.97 2.28, 2.28 1.97, 2.6 1.7 C2.92 1.43, 3.27 1.19, 3.64 0.98 C4 0.76, 4.39 0.58, 4.79 0.44 C5.19 0.29, 5.6 0.18, 6.02 0.11 C6.43 0.04, 6.86 0, 7.28 0 C7.7 0, 8.13 0.04, 8.54 0.11 C8.96 0.18, 9.37 0.29, 9.77 0.44 C10.17 0.58, 10.55 0.76, 10.92 0.98 C11.28 1.19, 11.64 1.43, 11.96 1.7 C12.28 1.97, 12.59 2.28, 12.86 2.6 C13.13 2.92, 13.37 3.27, 13.58 3.64 C13.79 4, 13.98 4.39, 14.12 4.79 C14.26 5.19, 14.38 5.6, 14.45 6.02 C14.52 6.43, 14.54 7.07, 14.56 7.28 C14.58 7.49, 14.58 7.07, 14.56 7.28" stroke="none" stroke-width="0" fill="#ffffff"></path><path d="M14.56 7.28 C14.56 7.7, 14.52 8.13, 14.45 8.54 C14.38 8.96, 14.26 9.37, 14.12 9.77 C13.98 10.17, 13.79 10.55, 13.58 10.92 C13.37 11.28, 13.13 11.64, 12.86 11.96 C12.59 12.28, 12.28 12.59, 11.96 12.86 C11.64 13.13, 11.28 13.37, 10.92 13.58 C10.55 13.79, 10.17 13.98, 9.77 14.12 C9.37 14.26, 8.96 14.38, 8.54 14.45 C8.13 14.52, 7.7 14.56, 7.28 14.56 C6.86 14.56, 6.43 14.52, 6.02 14.45 C5.6 14.38, 5.19 14.26, 4.79 14.12 C4.39 13.98, 4 13.79, 3.64 13.58 C3.27 13.37, 2.92 13.13, 2.6 12.86 C2.28 12.59, 1.97 12.28, 1.7 11.96 C1.43 11.64, 1.19 11.28, 0.98 10.92 C0.76 10.55, 0.58 10.17, 0.44 9.77 C0.29 9.37, 0.18 8.96, 0.11 8.54 C0.04 8.13, 0 7.7, 0 7.28 C0 6.86, 0.04 6.43, 0.11 6.02 C0.18 5.6, 0.29 5.19, 0.44 4.79 C0.58 4.39, 0.76 4, 0.98 3.64 C1.19 3.27, 1.43 2.92, 1.7 2.6 C1.97 2.28, 2.28 1.97, 2.6 1.7 C2.92 1.43, 3.27 1.19, 3.64 0.98 C4 0.76, 4.39 0.58, 4.79 0.44 C5.19 0.29, 5.6 0.18, 6.02 0.11 C6.43 0.04, 6.86 0, 7.28 0 C7.7 0, 8.13 0.04, 8.54 0.11 C8.96 0.18, 9.37 0.29, 9.77 0.44 C10.17 0.58, 10.55 0.76, 10.92 0.98 C11.28 1.19, 11.64 1.43, 11.96 1.7 C12.28 1.97, 12.59 2.28, 12.86 2.6 C13.13 2.92, 13.37 3.27, 13.58 3.64 C13.79 4, 13.98 4.39, 14.12 4.79 C14.26 5.19, 14.38 5.6, 14.45 6.02 C14.52 6.43, 14.54 7.07, 14.56 7.28 C14.58 7.49, 14.58 7.07, 14.56 7.28" stroke="#f1413f" stroke-width="1" fill="none"></path></g><g stroke-linecap="round"><g transform="translate(114.42020373904279 67.87650291251771) rotate(0 0.0683963118228803 6.762115362218708)" fill-rule="evenodd"><path d="M0 0 L-7.34 13.52 L7.48 13.35 L0 0" stroke="none" stroke-width="0" fill="#ffffff" fill-rule="evenodd"></path><path d="M0 0 C-2.05 3.77, -4.09 7.54, -7.34 13.52 M0 0 C-1.58 2.91, -3.16 5.82, -7.34 13.52 M-7.34 13.52 C-3.68 13.48, -0.02 13.44, 7.48 13.35 M-7.34 13.52 C-3.81 13.48, -0.28 13.44, 7.48 13.35 M7.48 13.35 C5.64 10.07, 3.8 6.78, 0 0 M7.48 13.35 C5.71 10.18, 3.93 7.02, 0 0 M0 0 C0 0, 0 0, 0 0 M0 0 C0 0, 0 0, 0 0" stroke="#f1413f" stroke-width="1" fill="none"></path></g></g><mask></mask><g stroke-linecap="round" transform="translate(196.59166717529297 10) rotate(0 94 59.5)"><path d="M29.75 0 C65.06 1.05, 101.59 0.68, 158.25 0 M29.75 0 C60.46 -0.39, 89.17 0.12, 158.25 0 M158.25 0 C179.57 -1.74, 189.47 7.97, 188 29.75 M158.25 0 C179.15 -1.42, 189.73 9.97, 188 29.75 M188 29.75 C189.51 41.3, 188.2 56.06, 188 89.25 M188 29.75 C188.21 48.74, 187.7 68.96, 188 89.25 M188 89.25 C186.11 110.86, 176.16 118.4, 158.25 119 M188 89.25 C187.99 108.3, 178.61 118.3, 158.25 119 M158.25 119 C132.7 120.14, 105.37 118.25, 29.75 119 M158.25 119 C124.2 117.55, 91.13 118.75, 29.75 119 M29.75 119 C9.92 118.07, -1.91 111.01, 0 89.25 M29.75 119 C9.62 119.42, -0.67 110.88, 0 89.25 M0 89.25 C0.99 75.32, -1.09 64.9, 0 29.75 M0 89.25 C0.58 74.37, 1.04 61.51, 0 29.75 M0 29.75 C-1.23 11.73, 11.9 0.11, 29.75 0 M0 29.75 C1.35 11.69, 9.38 2.01, 29.75 0" stroke="#1e1e1e" stroke-width="2" fill="none"></path></g><g transform="translate(250.95000076293945 57) rotate(0 39.641666412353516 12.5)"><text x="39.641666412353516" y="0" font-family="Virgil, Segoe UI Emoji" font-size="20px" fill="#1e1e1e" text-anchor="middle" style="white-space: pre;" direction="ltr" dominant-baseline="text-before-edge">Backend</text></g><g transform="translate(202.09166717529297 640.1299216671686) rotate(0 28.5 12.5)"><text x="0" y="0" font-family="Virgil, Segoe UI Emoji" font-size="20px" fill="#000000" text-anchor="start" style="white-space: pre;" direction="ltr" dominant-baseline="text-before-edge">Users</text></g><g stroke-linecap="round" transform="translate(242.53448411451245 572.8700783328317) rotate(0 9.875171816384864 8.640775339336699)"><path d="M2.19 3.23 C2.19 3.23, 2.19 3.23, 2.19 3.23 M2.19 3.23 C2.19 3.23, 2.19 3.23, 2.19 3.23 M2.98 14.51 C7.42 9.4, 11.87 4.29, 14.79 0.93 M2.98 14.51 C7.7 9.08, 12.42 3.66, 14.79 0.93 M10.33 18.25 C12.2 16.1, 14.07 13.95, 19.51 7.69 M10.33 18.25 C13.53 14.57, 16.73 10.89, 19.51 7.69 M3.77 15.47 C3.77 15.47, 3.77 15.47, 3.77 15.47 M3.77 15.47 C3.77 15.47, 3.77 15.47, 3.77 15.47 M15.81 15.34 C12.91 12.82, 10.01 10.3, 2.23 3.53 M15.81 15.34 C12.58 12.53, 9.35 9.72, 2.23 3.53 M20.31 8.65 C17.79 6.45, 15.26 4.26, 9.74 -0.54 M20.31 8.65 C16.22 5.09, 12.13 1.53, 9.74 -0.54" stroke="#ced4da" stroke-width="1" fill="none"></path><path d="M19.75 8.64 C19.75 9.14, 19.7 9.65, 19.6 10.14 C19.5 10.63, 19.35 11.13, 19.15 11.6 C18.96 12.07, 18.71 12.53, 18.43 12.96 C18.14 13.39, 17.81 13.81, 17.44 14.19 C17.07 14.58, 16.66 14.94, 16.22 15.26 C15.78 15.58, 15.31 15.87, 14.81 16.12 C14.32 16.37, 13.79 16.59, 13.25 16.76 C12.72 16.93, 12.15 17.06, 11.59 17.15 C11.03 17.24, 10.45 17.28, 9.88 17.28 C9.3 17.28, 8.72 17.24, 8.16 17.15 C7.6 17.06, 7.03 16.93, 6.5 16.76 C5.96 16.59, 5.43 16.37, 4.94 16.12 C4.44 15.87, 3.97 15.58, 3.53 15.26 C3.09 14.94, 2.68 14.58, 2.31 14.19 C1.94 13.81, 1.61 13.39, 1.32 12.96 C1.04 12.53, 0.79 12.07, 0.6 11.6 C0.4 11.13, 0.25 10.63, 0.15 10.14 C0.05 9.65, 0 9.14, 0 8.64 C0 8.14, 0.05 7.63, 0.15 7.14 C0.25 6.65, 0.4 6.16, 0.6 5.69 C0.79 5.22, 1.04 4.75, 1.32 4.32 C1.61 3.89, 1.94 3.47, 2.31 3.09 C2.68 2.7, 3.09 2.34, 3.53 2.02 C3.97 1.7, 4.44 1.41, 4.94 1.16 C5.43 0.91, 5.96 0.69, 6.5 0.52 C7.03 0.35, 7.6 0.22, 8.16 0.13 C8.72 0.04, 9.3 0, 9.88 0 C10.45 0, 11.03 0.04, 11.59 0.13 C12.15 0.22, 12.72 0.35, 13.25 0.52 C13.79 0.69, 14.32 0.91, 14.81 1.16 C15.31 1.41, 15.78 1.7, 16.22 2.02 C16.66 2.34, 17.07 2.7, 17.44 3.09 C17.81 3.47, 18.14 3.89, 18.43 4.32 C18.71 4.75, 18.96 5.22, 19.15 5.69 C19.35 6.16, 19.5 6.65, 19.6 7.14 C19.7 7.63, 19.73 8.39, 19.75 8.64 C19.78 8.89, 19.78 8.39, 19.75 8.64" stroke="#000000" stroke-width="2" fill="none"></path></g><g stroke-linecap="round" transform="translate(199.35080999019056 573.4531461164655) rotate(0 9.87517181638475 8.640775339336699)"><path d="M2.19 3.23 C2.19 3.23, 2.19 3.23, 2.19 3.23 M2.19 3.23 C2.19 3.23, 2.19 3.23, 2.19 3.23 M2.98 14.51 C5.88 11.17, 8.79 7.83, 14.79 0.93 M2.98 14.51 C5.78 11.29, 8.58 8.07, 14.79 0.93 M10.33 18.25 C13.08 15.09, 15.83 11.92, 19.51 7.69 M10.33 18.25 C13.54 14.55, 16.76 10.85, 19.51 7.69 M3.77 15.47 C3.77 15.47, 3.77 15.47, 3.77 15.47 M3.77 15.47 C3.77 15.47, 3.77 15.47, 3.77 15.47 M15.81 15.34 C13.09 12.97, 10.37 10.61, 2.23 3.53 M15.81 15.34 C11.48 11.57, 7.15 7.81, 2.23 3.53 M20.31 8.65 C16.09 4.98, 11.87 1.31, 9.74 -0.54 M20.31 8.65 C17.87 6.53, 15.44 4.41, 9.74 -0.54" stroke="#ced4da" stroke-width="1" fill="none"></path><path d="M19.75 8.64 C19.75 9.14, 19.7 9.65, 19.6 10.14 C19.5 10.63, 19.35 11.13, 19.15 11.6 C18.96 12.07, 18.71 12.53, 18.43 12.96 C18.14 13.39, 17.81 13.81, 17.44 14.19 C17.07 14.58, 16.66 14.94, 16.22 15.26 C15.78 15.58, 15.31 15.87, 14.81 16.12 C14.32 16.37, 13.79 16.59, 13.25 16.76 C12.72 16.93, 12.15 17.06, 11.59 17.15 C11.03 17.24, 10.45 17.28, 9.88 17.28 C9.3 17.28, 8.72 17.24, 8.16 17.15 C7.6 17.06, 7.03 16.93, 6.5 16.76 C5.96 16.59, 5.43 16.37, 4.94 16.12 C4.44 15.87, 3.97 15.58, 3.53 15.26 C3.09 14.94, 2.68 14.58, 2.31 14.19 C1.94 13.81, 1.61 13.39, 1.32 12.96 C1.04 12.53, 0.79 12.07, 0.6 11.6 C0.4 11.13, 0.25 10.63, 0.15 10.14 C0.05 9.65, 0 9.14, 0 8.64 C0 8.14, 0.05 7.63, 0.15 7.14 C0.25 6.65, 0.4 6.16, 0.6 5.69 C0.79 5.22, 1.04 4.75, 1.32 4.32 C1.61 3.89, 1.94 3.47, 2.31 3.09 C2.68 2.7, 3.09 2.34, 3.53 2.02 C3.97 1.7, 4.44 1.41, 4.94 1.16 C5.43 0.91, 5.96 0.69, 6.5 0.52 C7.03 0.35, 7.6 0.22, 8.16 0.13 C8.72 0.04, 9.3 0, 9.88 0 C10.45 0, 11.03 0.04, 11.59 0.13 C12.15 0.22, 12.72 0.35, 13.25 0.52 C13.79 0.69, 14.32 0.91, 14.81 1.16 C15.31 1.41, 15.78 1.7, 16.22 2.02 C16.66 2.34, 17.07 2.7, 17.44 3.09 C17.81 3.47, 18.14 3.89, 18.43 4.32 C18.71 4.75, 18.96 5.22, 19.15 5.69 C19.35 6.16, 19.5 6.65, 19.6 7.14 C19.7 7.63, 19.73 8.39, 19.75 8.64 C19.78 8.89, 19.78 8.39, 19.75 8.64" stroke="#000000" stroke-width="2" fill="none"></path></g><g stroke-linecap="round"><g transform="translate(209.80262999745491 632.3841818541154) rotate(0 20.90300106626728 -18.613522148782124)" fill-rule="evenodd"><path d="M11.93 -33.36 C11.93 -33.36, 11.93 -33.36, 11.93 -33.36 M11.93 -33.36 C11.93 -33.36, 11.93 -33.36, 11.93 -33.36 M1.56 -9.24 C8.64 -17.38, 15.71 -25.52, 25.18 -36.41 M1.56 -9.24 C9.84 -18.76, 18.11 -28.28, 25.18 -36.41 M4.32 -0.22 C10.96 -7.87, 17.61 -15.51, 31.22 -31.16 M4.32 -0.22 C14.98 -12.49, 25.64 -24.75, 31.22 -31.16 M14.95 -0.26 C19.29 -5.24, 23.62 -10.23, 36.6 -25.16 M14.95 -0.26 C21.86 -8.2, 28.76 -16.15, 36.6 -25.16 M25.58 -0.29 C31.61 -7.22, 37.63 -14.15, 40.67 -17.65 M25.58 -0.29 C29.06 -4.29, 32.54 -8.29, 40.67 -17.65 M36.21 -0.32 C38.32 -2.76, 40.44 -5.19, 44.08 -9.38 M36.21 -0.32 C38.22 -2.64, 40.23 -4.95, 44.08 -9.38 M0 0 C0 0, 0 0, 0 0 M0 0 C0 0, 0 0, 0 0 M12.04 -0.13 C8.06 -3.6, 4.07 -7.06, 1.47 -9.32 M12.04 -0.13 C9.21 -2.59, 6.38 -5.05, 1.47 -9.32 M24.08 -0.27 C17.87 -5.67, 11.65 -11.07, 2.95 -18.64 M24.08 -0.27 C16.48 -6.87, 8.88 -13.48, 2.95 -18.64 M35.37 -1.06 C25.05 -10.02, 14.73 -18.99, 5.93 -26.64 M35.37 -1.06 C27.68 -7.74, 19.99 -14.42, 5.93 -26.64 M42.88 -5.12 C32.19 -14.42, 21.49 -23.72, 11.18 -32.68 M42.88 -5.12 C36.07 -11.04, 29.26 -16.96, 11.18 -32.68 M41.34 -17.07 C33.01 -24.31, 24.67 -31.55, 18.7 -36.75 M41.34 -17.07 C33.7 -23.71, 26.05 -30.35, 18.7 -36.75" stroke="#ced4da" stroke-width="1" fill="none"></path><path d="M0 0 C0.78 -4.11, 1.34 -18.46, 4.68 -24.67 C8.03 -30.87, 14.94 -36.78, 20.07 -37.23 C25.2 -37.68, 31.83 -33.14, 35.45 -27.36 C39.07 -21.58, 47.71 -7.12, 41.81 -2.56 C35.9 2, 6.97 -0.43, 0 0 M0 0 C0.78 -4.11, 1.34 -18.46, 4.68 -24.67 C8.03 -30.87, 14.94 -36.78, 20.07 -37.23 C25.2 -37.68, 31.83 -33.14, 35.45 -27.36 C39.07 -21.58, 47.71 -7.12, 41.81 -2.56 C35.9 2, 6.97 -0.43, 0 0" stroke="#000000" stroke-width="2" fill="none"></path></g></g><mask></mask><g stroke-linecap="round" transform="translate(220.28875214826485 575.8096705342781) rotate(0 10.702336545928802 9.364544477687787)"><path d="M2.43 3.43 C2.43 3.43, 2.43 3.43, 2.43 3.43 M2.43 3.43 C2.43 3.43, 2.43 3.43, 2.43 3.43 M2.56 15.48 C6 11.51, 9.45 7.55, 15.02 1.14 M2.56 15.48 C7.4 9.9, 12.25 4.33, 15.02 1.14 M10.57 18.46 C12.73 15.96, 14.9 13.47, 21.06 6.38 M10.57 18.46 C13.3 15.31, 16.04 12.16, 21.06 6.38 M4.02 16.71 C4.02 16.71, 4.02 16.71, 4.02 16.71 M4.02 16.71 C4.02 16.71, 4.02 16.71, 4.02 16.71 M16.82 17.23 C11.49 12.6, 6.16 7.97, 1.72 4.11 M16.82 17.23 C11.44 12.56, 6.06 7.88, 1.72 4.11 M21.31 10.54 C17.97 7.64, 14.63 4.74, 9.24 0.04 M21.31 10.54 C16.57 6.42, 11.83 2.3, 9.24 0.04" stroke="#ced4da" stroke-width="1" fill="none"></path><path d="M21.4 9.36 C21.4 9.91, 21.35 10.46, 21.24 10.99 C21.13 11.52, 20.97 12.06, 20.76 12.57 C20.55 13.08, 20.28 13.58, 19.97 14.05 C19.66 14.52, 19.3 14.97, 18.9 15.38 C18.5 15.8, 18.06 16.19, 17.58 16.54 C17.11 16.89, 16.59 17.2, 16.05 17.47 C15.52 17.75, 14.94 17.98, 14.36 18.16 C13.78 18.35, 13.17 18.49, 12.56 18.59 C11.95 18.68, 11.32 18.73, 10.7 18.73 C10.08 18.73, 9.45 18.68, 8.84 18.59 C8.23 18.49, 7.62 18.35, 7.04 18.16 C6.46 17.98, 5.89 17.75, 5.35 17.47 C4.81 17.2, 4.3 16.89, 3.82 16.54 C3.35 16.19, 2.9 15.8, 2.5 15.38 C2.11 14.97, 1.74 14.52, 1.43 14.05 C1.12 13.58, 0.86 13.08, 0.65 12.57 C0.43 12.06, 0.27 11.52, 0.16 10.99 C0.06 10.46, 0 9.91, 0 9.36 C0 8.82, 0.06 8.27, 0.16 7.74 C0.27 7.2, 0.43 6.67, 0.65 6.16 C0.86 5.65, 1.12 5.15, 1.43 4.68 C1.74 4.21, 2.11 3.76, 2.5 3.35 C2.9 2.93, 3.35 2.54, 3.82 2.19 C4.3 1.84, 4.81 1.53, 5.35 1.25 C5.89 0.98, 6.46 0.75, 7.04 0.56 C7.62 0.38, 8.23 0.24, 8.84 0.14 C9.45 0.05, 10.08 0, 10.7 0 C11.32 0, 11.95 0.05, 12.56 0.14 C13.17 0.24, 13.78 0.38, 14.36 0.56 C14.94 0.75, 15.52 0.98, 16.05 1.25 C16.59 1.53, 17.11 1.84, 17.58 2.19 C18.06 2.54, 18.5 2.93, 18.9 3.35 C19.3 3.76, 19.66 4.21, 19.97 4.68 C20.28 5.15, 20.55 5.65, 20.76 6.16 C20.97 6.67, 21.13 7.2, 21.24 7.74 C21.35 8.27, 21.38 9.09, 21.4 9.36 C21.43 9.64, 21.43 9.09, 21.4 9.36" stroke="#000000" stroke-width="2" fill="none"></path></g><g stroke-linecap="round"><g transform="translate(238.9539654519058 598.7151171690624) rotate(0 16.718658601522293 9.951582500906)" fill-rule="evenodd"><path d="M0 0 C0 0, 0 0, 0 0 M0 0 C0 0, 0 0, 0 0 M6.04 5.25 C10.21 0.45, 14.38 -4.35, 17.85 -8.34 M6.04 5.25 C10.25 0.41, 14.46 -4.44, 17.85 -8.34 M10.11 12.76 C14.28 7.96, 18.45 3.16, 25.2 -4.6 M10.11 12.76 C16.03 5.94, 21.96 -0.87, 25.2 -4.6 M14.18 20.27 C19.52 14.13, 24.86 7.99, 29.27 2.92 M14.18 20.27 C18.84 14.91, 23.5 9.55, 29.27 2.92 M17.59 28.54 C21.88 23.6, 26.17 18.67, 32.02 11.94 M17.59 28.54 C23.29 21.98, 29 15.42, 32.02 11.94 M29.53 27 C30.92 25.4, 32.32 23.79, 34.12 21.71 M29.53 27 C30.7 25.65, 31.87 24.31, 34.12 21.71 M14.43 27.6 C14.43 27.6, 14.43 27.6, 14.43 27.6 M14.43 27.6 C14.43 27.6, 14.43 27.6, 14.43 27.6 M26.47 27.47 C22.35 23.89, 18.23 20.31, 9.87 13.04 M26.47 27.47 C21.05 22.76, 15.63 18.05, 9.87 13.04 M33.23 22.75 C23.9 14.63, 14.56 6.52, 3.04 -3.5 M33.23 22.75 C24.18 14.88, 15.13 7.02, 3.04 -3.5 M31.68 10.8 C23.17 3.4, 14.65 -4, 9.8 -8.22 M31.68 10.8 C26.11 5.96, 20.54 1.11, 9.8 -8.22" stroke="#ced4da" stroke-width="1" fill="none"></path><path d="M0 0 C0.86 -0.93, 3.58 -4.18, 5.17 -5.57 C6.77 -6.97, 7.56 -7.83, 9.55 -8.36 C11.54 -8.89, 14.99 -8.89, 17.12 -8.76 C19.24 -8.62, 20.83 -8.43, 22.29 -7.56 C23.75 -6.7, 24.88 -5.11, 25.87 -3.58 C26.87 -2.06, 27.47 -0.33, 28.26 1.59 C29.06 3.52, 29.92 5.84, 30.65 7.96 C31.38 10.08, 32.18 12.41, 32.64 14.33 C33.11 16.25, 33.44 17.78, 33.44 19.51 C33.44 21.23, 33.3 23.42, 32.64 24.68 C31.98 25.94, 30.72 26.47, 29.46 27.07 C28.2 27.67, 26.87 28, 25.08 28.26 C23.29 28.53, 20.43 28.73, 18.71 28.66 C16.98 28.59, 15.46 28.93, 14.73 27.86 C14 26.8, 14.66 23.82, 14.33 22.29 C14 20.77, 13.47 20.23, 12.74 18.71 C12.01 17.18, 11.08 15.33, 9.95 13.14 C8.82 10.95, 7.63 7.76, 5.97 5.57 C4.31 3.38, 1 0.93, 0 0 M0 0 C0.86 -0.93, 3.58 -4.18, 5.17 -5.57 C6.77 -6.97, 7.56 -7.83, 9.55 -8.36 C11.54 -8.89, 14.99 -8.89, 17.12 -8.76 C19.24 -8.62, 20.83 -8.43, 22.29 -7.56 C23.75 -6.7, 24.88 -5.11, 25.87 -3.58 C26.87 -2.06, 27.47 -0.33, 28.26 1.59 C29.06 3.52, 29.92 5.84, 30.65 7.96 C31.38 10.08, 32.18 12.41, 32.64 14.33 C33.11 16.25, 33.44 17.78, 33.44 19.51 C33.44 21.23, 33.3 23.42, 32.64 24.68 C31.98 25.94, 30.72 26.47, 29.46 27.07 C28.2 27.67, 26.87 28, 25.08 28.26 C23.29 28.53, 20.43 28.73, 18.71 28.66 C16.98 28.59, 15.46 28.93, 14.73 27.86 C14 26.8, 14.66 23.82, 14.33 22.29 C14 20.77, 13.47 20.23, 12.74 18.71 C12.01 17.18, 11.08 15.33, 9.95 13.14 C8.82 10.95, 7.63 7.76, 5.97 5.57 C4.31 3.38, 1 0.93, 0 0" stroke="#000000" stroke-width="2" fill="none"></path></g></g><mask></mask><g stroke-linecap="round"><g transform="translate(221.0351789985716 598.703241265658) rotate(0 -16.121563651467795 11.941899001087336)" fill-rule="evenodd"><path d="M-24.42 -2.68 C-24.42 -2.68, -24.42 -2.68, -24.42 -2.68 M-24.42 -2.68 C-24.42 -2.68, -24.42 -2.68, -24.42 -2.68 M-31.51 17.66 C-25.72 11, -19.92 4.33, -10.51 -6.49 M-31.51 17.66 C-23.31 8.23, -15.11 -1.2, -10.51 -6.49 M-29.41 27.44 C-21.95 18.85, -14.48 10.27, -2.51 -3.51 M-29.41 27.44 C-20.85 17.6, -12.3 7.76, -2.51 -3.51 M-22.06 31.18 C-18.52 27.11, -14.99 23.05, -8.28 15.33 M-22.06 31.18 C-18.65 27.26, -15.24 23.34, -8.28 15.33 M-12.08 31.9 C-11.58 31.32, -11.08 30.74, -10.77 30.39 M-12.08 31.9 C-11.64 31.38, -11.19 30.87, -10.77 30.39 M-31.63 25.72 C-31.63 25.72, -31.63 25.72, -31.63 25.72 M-31.63 25.72 C-31.63 25.72, -31.63 25.72, -31.63 25.72 M-12.8 31.49 C-18.25 26.74, -23.71 22, -30.91 15.74 M-12.8 31.49 C-18.07 26.9, -23.35 22.31, -30.91 15.74 M-9.06 24.14 C-15.92 18.17, -22.78 12.21, -28.68 7.08 M-9.06 24.14 C-13.79 20.02, -18.52 15.91, -28.68 7.08 M-8.34 14.16 C-14.74 8.6, -21.14 3.03, -25.7 -0.93 M-8.34 14.16 C-12.16 10.84, -15.98 7.52, -25.7 -0.93 M-4.6 6.81 C-10.66 1.55, -16.71 -3.72, -20.45 -6.96 M-4.6 6.81 C-8.08 3.79, -11.55 0.77, -20.45 -6.96 M-0.1 0.12 C-2.58 -2.03, -5.05 -4.18, -9.16 -7.75 M-0.1 0.12 C-3.43 -2.78, -6.77 -5.67, -9.16 -7.75" stroke="#ced4da" stroke-width="1" fill="none"></path><path d="M0 0 C-0.66 -0.73, -2.59 -3.18, -3.98 -4.38 C-5.37 -5.57, -6.37 -6.63, -8.36 -7.17 C-10.35 -7.7, -13.8 -7.7, -15.92 -7.56 C-18.05 -7.43, -19.64 -7.23, -21.1 -6.37 C-22.56 -5.51, -23.68 -3.91, -24.68 -2.39 C-25.68 -0.86, -26.27 0.86, -27.07 2.79 C-27.86 4.71, -28.73 7.03, -29.46 9.16 C-30.19 11.28, -30.98 13.6, -31.45 15.52 C-31.91 17.45, -32.24 18.97, -32.24 20.7 C-32.24 22.42, -32.11 24.61, -31.45 25.87 C-30.78 27.13, -29.46 27.53, -28.26 28.26 C-27.07 28.99, -26.01 29.72, -24.28 30.25 C-22.56 30.78, -20.1 31.25, -17.91 31.45 C-15.72 31.65, -12.41 32.64, -11.15 31.45 C-9.89 30.25, -10.62 26.07, -10.35 24.28 C-10.08 22.49, -9.89 22.29, -9.55 20.7 C-9.22 19.11, -9.16 17.05, -8.36 14.73 C-7.56 12.41, -6.17 9.22, -4.78 6.77 C-3.38 4.31, -0.8 1.13, 0 0 M0 0 C-0.66 -0.73, -2.59 -3.18, -3.98 -4.38 C-5.37 -5.57, -6.37 -6.63, -8.36 -7.17 C-10.35 -7.7, -13.8 -7.7, -15.92 -7.56 C-18.05 -7.43, -19.64 -7.23, -21.1 -6.37 C-22.56 -5.51, -23.68 -3.91, -24.68 -2.39 C-25.68 -0.86, -26.27 0.86, -27.07 2.79 C-27.86 4.71, -28.73 7.03, -29.46 9.16 C-30.19 11.28, -30.98 13.6, -31.45 15.52 C-31.91 17.45, -32.24 18.97, -32.24 20.7 C-32.24 22.42, -32.11 24.61, -31.45 25.87 C-30.78 27.13, -29.46 27.53, -28.26 28.26 C-27.07 28.99, -26.01 29.72, -24.28 30.25 C-22.56 30.78, -20.1 31.25, -17.91 31.45 C-15.72 31.65, -12.41 32.64, -11.15 31.45 C-9.89 30.25, -10.62 26.07, -10.35 24.28 C-10.08 22.49, -9.89 22.29, -9.55 20.7 C-9.22 19.11, -9.16 17.05, -8.36 14.73 C-7.56 12.41, -6.17 9.22, -4.78 6.77 C-3.38 4.31, -0.8 1.13, 0 0" stroke="#000000" stroke-width="2" fill="none"></path></g></g><mask></mask><g stroke-linecap="round" transform="translate(83.59166717529297 411) rotate(0 138.5 52)"><path d="M26 0 C104.02 -2.96, 181.66 -0.14, 251 0 M26 0 C112.12 -0.04, 197.13 0.56, 251 0 M251 0 C269.04 -1.26, 276.68 8.63, 277 26 M251 0 C266.16 2.04, 274.79 7.97, 277 26 M277 26 C276.22 39.71, 277.79 56.78, 277 78 M277 26 C277.1 43.83, 277.17 61.71, 277 78 M277 78 C275.94 94.28, 268.19 105.35, 251 104 M277 78 C277.01 94.26, 266.14 106.22, 251 104 M251 104 C187.73 101.96, 123.13 101.73, 26 104 M251 104 C167.55 102.87, 82.97 103.56, 26 104 M26 104 C9.54 102.54, 1.8 96.46, 0 78 M26 104 C7.26 106.08, 2.29 95.46, 0 78 M0 78 C1.34 58.89, -1.79 41.6, 0 26 M0 78 C0.28 61.55, 0.1 44.76, 0 26 M0 26 C0.57 8.54, 9.75 1.86, 26 0 M0 26 C-1 7.64, 7.8 -0.03, 26 0" stroke="#1e1e1e" stroke-width="2" fill="none"></path></g><g transform="translate(120.69166564941406 438) rotate(0 101.4000015258789 25)"><text x="101.4000015258789" y="0" font-family="Virgil, Segoe UI Emoji" font-size="20px" fill="#1e1e1e" text-anchor="middle" style="white-space: pre;" direction="ltr" dominant-baseline="text-before-edge">Frontend (Running in </text><text x="101.4000015258789" y="25" font-family="Virgil, Segoe UI Emoji" font-size="20px" fill="#1e1e1e" text-anchor="middle" style="white-space: pre;" direction="ltr" dominant-baseline="text-before-edge">Browser)</text></g><g mask="url(#mask-AteLD_KKyA-b0Ul22K-Ht)" stroke-linecap="round"><g transform="translate(367.59166717529297 397) rotate(0 -4 -126.5)"><path d="M0.92 0.97 C-0.35 -41.13, -7.27 -210.55, -8.65 -252.82 M-0.06 0.43 C-0.84 -41.43, -4.99 -208.65, -6.28 -251.19" stroke="#1e1e1e" stroke-width="2" fill="none"></path></g><g transform="translate(367.59166717529297 397) rotate(0 -4 -126.5)"><path d="M2.91 -227.93 C2.61 -233.88, -0.65 -236.67, -6.28 -251.19 M2.91 -227.93 C0.29 -236.14, -3.25 -243.19, -6.28 -251.19" stroke="#1e1e1e" stroke-width="2" fill="none"></path></g><g transform="translate(367.59166717529297 397) rotate(0 -4 -126.5)"><path d="M-14.19 -227.47 C-10.85 -233.64, -10.49 -236.53, -6.28 -251.19 M-14.19 -227.47 C-11.17 -236, -9.07 -243.2, -6.28 -251.19" stroke="#1e1e1e" stroke-width="2" fill="none"></path></g></g><mask id="mask-AteLD_KKyA-b0Ul22K-Ht"><rect x="0" y="0" fill="#fff" width="475.59166717529297" height="750"></rect><rect x="269.0166702270508" y="245.5" fill="#000" width="189.14999389648438" height="50" opacity="1"></rect></mask><g transform="translate(269.0166702270508 245.5) rotate(0 94.70930066332221 25.574630627781147)"><text x="94.57499694824219" y="0" font-family="Virgil, Segoe UI Emoji" font-size="20px" fill="#1e1e1e" text-anchor="middle" style="white-space: pre;" direction="ltr" dominant-baseline="text-before-edge">Request Download </text><text x="94.57499694824219" y="25" font-family="Virgil, Segoe UI Emoji" font-size="20px" fill="#1e1e1e" text-anchor="middle" style="white-space: pre;" direction="ltr" dominant-baseline="text-before-edge">URL</text></g><g mask="url(#mask-sU2i74gOAd7fAXoKsTzAg)" stroke-linecap="round"><g transform="translate(110.59166717529297 393.47135498018406) rotate(0 0 -145.73567749009203)"><path d="M0.64 0.36 C0.7 -48.05, -0.25 -241.51, -0.28 -290.28 M-0.49 -0.5 C-0.55 -49.23, -1.44 -243.3, -1.38 -291.77" stroke="#1e1e1e" stroke-width="2" fill="none"></path></g><g transform="translate(110.59166717529297 393.47135498018406) rotate(0 0 -145.73567749009203)"><path d="M7.22 -268.3 C5.66 -274.5, 4.94 -279.1, -1.38 -291.77 M7.22 -268.3 C4.27 -272.98, 2.21 -279.74, -1.38 -291.77" stroke="#1e1e1e" stroke-width="2" fill="none"></path></g><g transform="translate(110.59166717529297 393.47135498018406) rotate(0 0 -145.73567749009203)"><path d="M-9.88 -268.26 C-7.23 -274.57, -3.74 -279.17, -1.38 -291.77 M-9.88 -268.26 C-8.78 -272.95, -6.78 -279.71, -1.38 -291.77" stroke="#1e1e1e" stroke-width="2" fill="none"></path></g></g><mask id="mask-sU2i74gOAd7fAXoKsTzAg"><rect x="0" y="0" fill="#fff" width="210.59166717529297" height="784.9427099603681"></rect><rect x="10" y="222.73567749009203" fill="#000" width="201.18333435058594" height="50" opacity="1"></rect></mask><g transform="translate(10 222.73567749009203) rotate(0 100.21926996054492 25.028029398289505)"><text x="100.59166717529297" y="0" font-family="Virgil, Segoe UI Emoji" font-size="20px" fill="#1e1e1e" text-anchor="middle" style="white-space: pre;" direction="ltr" dominant-baseline="text-before-edge">View Image Directly </text><text x="100.59166717529297" y="25" font-family="Virgil, Segoe UI Emoji" font-size="20px" fill="#1e1e1e" text-anchor="middle" style="white-space: pre;" direction="ltr" dominant-baseline="text-before-edge">from Bucket</text></g><g stroke-linecap="round"><g transform="translate(230.48749923706055 563.5649608335842) rotate(0 -1.5 -17)"><path d="M0.03 -0.36 C-0.44 -5.93, -2.53 -27.92, -3.03 -33.51 M-0.62 0.64 C-1.15 -5.05, -3.02 -28.58, -3.48 -34.22" stroke="#1e1e1e" stroke-width="2" fill="none"></path></g><g transform="translate(230.48749923706055 563.5649608335842) rotate(0 -1.5 -17)"><path d="M3.62 -18.7 C1.18 -22.88, 0.62 -26.95, -3.48 -34.22 M3.62 -18.7 C1.23 -23.37, -1.25 -28.83, -3.48 -34.22" stroke="#1e1e1e" stroke-width="2" fill="none"></path></g><g transform="translate(230.48749923706055 563.5649608335842) rotate(0 -1.5 -17)"><path d="M-8.01 -17.77 C-7.35 -22.2, -4.81 -26.52, -3.48 -34.22 M-8.01 -17.77 C-6.63 -22.72, -5.32 -28.48, -3.48 -34.22" stroke="#1e1e1e" stroke-width="2" fill="none"></path></g></g><mask></mask></svg>