<svg version="1.1" xmlns="http://www.w3.org/2000/svg" viewBox="0 0 601.7859560460142 350.285893" width="601.7859560460142" height="350.285893">
  <!-- svg-source:excalidraw -->
  
  <defs>
    <style class="style-fonts">
      @font-face {
        font-family: "Virgil";
        src: url("https://excalidraw.com/Virgil.woff2");
      }
      @font-face {
        font-family: "Cascadia";
        src: url("https://excalidraw.com/Cascadia.woff2");
      }
      @font-face {
        font-family: "Assistant";
        src: url("https://app.excalidraw.com//dist/excalidraw-assets/Assistant-Regular.woff2");
      }
    </style>
    
  </defs>
  <g stroke-linecap="round" transform="translate(177.8669946401128 296.285893) rotate(0 108.24166870117188 22)"><path d="M0.64 -1.74 L216.06 1.83 L215.23 43.55 L1.33 42.2" stroke="none" stroke-width="0" fill="#b2f2bb"></path><path d="M0 0 C50.2 -1.8, 98.36 -2.96, 216.48 0 M0 0 C84.54 1.36, 168.08 0.67, 216.48 0 M216.48 0 C216.57 10.33, 216.77 24.16, 216.48 44 M216.48 0 C216.82 8.62, 216.23 19.02, 216.48 44 M216.48 44 C164.81 43.3, 113.36 44.13, 0 44 M216.48 44 C142.03 44.48, 69.83 44.07, 0 44 M0 44 C-0.67 29.9, 0.25 12.43, 0 0 M0 44 C0.01 27.2, 0.33 11.48, 0 0" stroke="#1e1e1e" stroke-width="2" fill="none"></path></g><g stroke-linecap="round" transform="translate(142.45033774362832 141.5) rotate(0 143.6583251953125 22)"><path d="M-0.42 1.83 L286.06 -0.45 L288.64 42.2 L0.39 44.04" stroke="none" stroke-width="0" fill="#ffc9c9"></path><path d="M0 0 C107.98 -0.83, 215.01 1.97, 287.32 0 M0 0 C73.45 -1.43, 146.51 -1.77, 287.32 0 M287.32 0 C287.96 12.3, 285.74 19.71, 287.32 44 M287.32 0 C287.8 14.12, 287.02 28.4, 287.32 44 M287.32 44 C206.38 44, 126.48 44.13, 0 44 M287.32 44 C189.81 42.68, 91.85 43, 0 44 M0 44 C0.27 34.48, 1.66 26.25, 0 0 M0 44 C0.54 28.98, 0.15 12.32, 0 0" stroke="#1e1e1e" stroke-width="2" fill="none"></path></g><g stroke-linecap="round" transform="translate(256.3753331659916 16.5) rotate(0 29.73332977294922 22)"><path d="M1.33 -1.8 L59.86 0.04 L57.64 43.55 L1.27 44.19" stroke="none" stroke-width="0" fill="#ffc9c9"></path><path d="M0 0 C11.51 0.64, 25.98 -0.48, 59.47 0 M0 0 C16.15 0.56, 32.9 0.66, 59.47 0 M59.47 0 C59.56 18.03, 57.24 33.39, 59.47 44 M59.47 0 C59 12.7, 59 25.52, 59.47 44 M59.47 44 C40.76 42.24, 19.76 45.42, 0 44 M59.47 44 C45.61 43.36, 34.23 43.82, 0 44 M0 44 C0.68 31.07, -1.01 18.01, 0 0 M0 44 C-0.35 30, -0.77 13.95, 0 0" stroke="#1e1e1e" stroke-width="2" fill="none"></path></g><g mask="url(#mask-Il2vOeRRUbumJ-4YipdgP)" stroke-linecap="round"><g transform="translate(283.53396004199385 191.202993) rotate(0 0 47.54145)"><path d="M0.05 -0.23 C-0.16 15.37, -0.39 78.4, -0.51 94.32 M-1.38 -1.4 C-1.86 14.28, -1.67 79.11, -1.73 95.46" stroke="#1e1e1e" stroke-width="2" fill="none"></path></g><g transform="translate(283.53396004199385 191.202993) rotate(0 0 47.54145)"><path d="M-10.27 71.97 C-7.44 79.56, -5.25 87.78, -1.73 95.46 M-10.27 71.97 C-6.91 78.59, -5.88 87.13, -1.73 95.46" stroke="#1e1e1e" stroke-width="2" fill="none"></path></g><g transform="translate(283.53396004199385 191.202993) rotate(0 0 47.54145)"><path d="M6.83 71.98 C3.51 79.58, -0.46 87.79, -1.73 95.46 M6.83 71.98 C4.75 78.65, 0.34 87.18, -1.73 95.46" stroke="#1e1e1e" stroke-width="2" fill="none"></path></g></g><mask id="mask-Il2vOeRRUbumJ-4YipdgP"><rect x="0" y="0" fill="#fff" width="383.53396004199385" height="386.285893"></rect><rect x="174.68396156787276" y="213.744443" fill="#000" width="217.6999969482422" height="50" opacity="1"></rect></mask><g mask="url(#mask-Qvg9WsMrCyB8OM2_hmdBU)" stroke-linecap="round"><g transform="translate(286.1083282248751 61.5) rotate(0 0.000003686182026285678 39.5)"><path d="M-0.51 -0.76 C-0.63 12.48, -0.65 65.87, -0.66 79.22 M1.42 1.46 C1.69 14.33, 2.22 64.59, 1.71 77.21" stroke="#1e1e1e" stroke-width="2" fill="none"></path></g><g transform="translate(286.1083282248751 61.5) rotate(0 0.000003686182026285678 39.5)"><path d="M-6.58 53.63 C-5.37 59.74, -1.22 67.01, 1.71 77.21 M-6.58 53.63 C-4.61 61.66, -0.22 68.24, 1.71 77.21" stroke="#1e1e1e" stroke-width="2" fill="none"></path></g><g transform="translate(286.1083282248751 61.5) rotate(0 0.000003686182026285678 39.5)"><path d="M10.52 53.82 C6.53 59.8, 5.48 67.01, 1.71 77.21 M10.52 53.82 C6.88 61.65, 5.66 68.17, 1.71 77.21" stroke="#1e1e1e" stroke-width="2" fill="none"></path></g></g><mask id="mask-Qvg9WsMrCyB8OM2_hmdBU"><rect x="0" y="0" fill="#fff" width="386.10833559723915" height="240.5"></rect><rect x="268.06666588017333" y="88.5" fill="#000" width="36.08333206176758" height="25" opacity="1"></rect></mask><g transform="translate(199.41699769187062 305.785893) rotate(0 86.69166564941406 12.5)"><text x="86.69166564941406" y="0" font-family="Virgil, Segoe UI Emoji" font-size="20px" fill="#1e1e1e" text-anchor="middle" style="white-space: pre;" direction="ltr" dominant-baseline="text-before-edge">Persistent Volume</text></g><g transform="translate(170.15032706247598 151) rotate(0 115.95833587646484 12.5)"><text x="115.95833587646484" y="0" font-family="Virgil, Segoe UI Emoji" font-size="20px" fill="#1e1e1e" text-anchor="middle" style="white-space: pre;" direction="ltr" dominant-baseline="text-before-edge">Persistent Volume Claim</text></g><g transform="translate(268.26699576364786 26) rotate(0 17.84166717529297 12.5)"><text x="17.84166717529297" y="0" font-family="Virgil, Segoe UI Emoji" font-size="20px" fill="#1e1e1e" text-anchor="middle" style="white-space: pre;" direction="ltr" dominant-baseline="text-before-edge">Pod</text></g><g transform="translate(174.68396156787276 213.744443) rotate(0 108.00977317682009 24.491350274560965)"><text x="108.8499984741211" y="0" font-family="Virgil, Segoe UI Emoji" font-size="20px" fill="#1e1e1e" text-anchor="middle" style="white-space: pre;" direction="ltr" dominant-baseline="text-before-edge">Gets bound to PV by </text><text x="108.8499984741211" y="25" font-family="Virgil, Segoe UI Emoji" font-size="20px" fill="#1e1e1e" text-anchor="middle" style="white-space: pre;" direction="ltr" dominant-baseline="text-before-edge">Admin</text></g><g transform="translate(268.06666588017333 88.5) rotate(0 18.673022746568563 12.23083158582449)"><text x="18.04166603088379" y="0" font-family="Virgil, Segoe UI Emoji" font-size="20px" fill="#1e1e1e" text-anchor="middle" style="white-space: pre;" direction="ltr" dominant-baseline="text-before-edge">Use</text></g><g transform="translate(28.108662938940824 10) rotate(0 77.55833435058594 12.5)"><text x="0" y="0" font-family="Virgil, Segoe UI Emoji" font-size="20px" fill="#e03131" text-anchor="start" style="white-space: pre;" direction="ltr" dominant-baseline="text-before-edge">Created By you</text></g><g transform="translate(28.108663088354888 48) rotate(0 82.10832977294922 12.5)"><text x="0" y="0" font-family="Virgil, Segoe UI Emoji" font-size="20px" fill="#2f9e44" text-anchor="start" style="white-space: pre;" direction="ltr" dominant-baseline="text-before-edge">Exists in cluster</text></g><g stroke-linecap="round"><g transform="translate(10.841213046014218 203.2901215) rotate(0 260.5 1.5)"><path d="M-0.84 -0.59 C86.04 0.25, 433.81 3.45, 520.85 3.87 M0.92 1.71 C87.66 2.32, 433.18 2.04, 519.82 2.21" stroke="#f08c00" stroke-width="2" fill="none"></path></g></g><mask></mask><g transform="translate(488.8192880460142 221.6090735) rotate(0 42.59166717529297 12.5)"><text x="0" y="0" font-family="Virgil, Segoe UI Emoji" font-size="20px" fill="#1971c2" text-anchor="start" style="white-space: pre;" direction="ltr" dominant-baseline="text-before-edge">Platform</text></g><g transform="translate(489.81928887072127 167.79691250000002) rotate(0 50.983333587646484 12.5)"><text x="0" y="0" font-family="Virgil, Segoe UI Emoji" font-size="20px" fill="#1971c2" text-anchor="start" style="white-space: pre;" direction="ltr" dominant-baseline="text-before-edge">Application</text></g></svg>