<svg version="1.1" xmlns="http://www.w3.org/2000/svg" viewBox="0 0 765.5499877929688 1213" width="765.5499877929688" height="1213">
  <!-- svg-source:excalidraw -->
  
  <defs>
    <style class="style-fonts">
      @font-face {
        font-family: "Virgil";
        src: url("https://excalidraw.com/Virgil.woff2");
      }
      @font-face {
        font-family: "Cascadia";
        src: url("https://excalidraw.com/Cascadia.woff2");
      }
      @font-face {
        font-family: "Assistant";
        src: url("https://app.excalidraw.com//dist/excalidraw-assets/Assistant-Regular.woff2");
      }
    </style>
    
  </defs>
  <g stroke-linecap="round" transform="translate(10 223) rotate(0 194.5 302.5)"><path d="M32 0 C112.91 -2.75, 196.01 -2.04, 357 0 M32 0 C159.02 -0.22, 287.46 -0.44, 357 0 M357 0 C379.24 1.25, 390.76 9.57, 389 32 M357 0 C379.9 -0.09, 390.33 9.48, 389 32 M389 32 C391.56 243.83, 391.23 455.78, 389 573 M389 32 C390.18 183.5, 390.84 334.23, 389 573 M389 573 C390.15 593.16, 378.86 605.14, 357 605 M389 573 C386.82 594.95, 380.05 606.48, 357 605 M357 605 C251.37 608.35, 147.94 605.73, 32 605 M357 605 C247.92 605.93, 137.53 605.22, 32 605 M32 605 C11.17 603.23, -0.23 592.94, 0 573 M32 605 C10.65 605.08, 1.42 595.71, 0 573 M0 573 C-2.29 446.24, -2.67 319.08, 0 32 M0 573 C-0.51 418.61, -0.18 265.23, 0 32 M0 32 C1.16 8.99, 9.86 0.19, 32 0 M0 32 C-0.38 9.5, 10.04 -0.8, 32 0" stroke="#1e1e1e" stroke-width="2" fill="none"></path></g><g transform="translate(15 228) rotate(0 43.141666412353516 25)"><text x="0" y="0" font-family="Virgil, Segoe UI Emoji" font-size="20px" fill="#1e1e1e" text-anchor="start" style="white-space: pre;" direction="ltr" dominant-baseline="text-before-edge">    </text><text x="0" y="25" font-family="Virgil, Segoe UI Emoji" font-size="20px" fill="#1e1e1e" text-anchor="start" style="white-space: pre;" direction="ltr" dominant-baseline="text-before-edge">    Node</text></g><g stroke-linecap="round" transform="translate(136 10) rotate(0 117 64.5)"><path d="M103.92 1.34 C117.82 -0.41, 134.8 0.62, 149.12 2.84 C163.44 5.05, 178.3 9.52, 189.85 14.64 C201.39 19.75, 211.19 26.42, 218.4 33.53 C225.61 40.65, 231.32 49.14, 233.12 57.35 C234.91 65.56, 233.02 74.95, 229.16 82.78 C225.3 90.62, 218.95 98.09, 209.95 104.37 C200.95 110.66, 188.26 116.51, 175.17 120.49 C162.07 124.47, 146.35 127.11, 131.37 128.25 C116.39 129.38, 99.87 129.61, 85.3 127.31 C70.73 125.01, 55.56 119.52, 43.94 114.47 C32.32 109.42, 22.92 103.94, 15.59 97 C8.27 90.05, 1.97 81.07, -0.01 72.81 C-1.99 64.54, -0.44 55.58, 3.73 47.4 C7.9 39.22, 15.66 30.13, 25.02 23.74 C34.37 17.35, 44.67 12.96, 59.86 9.04 C75.05 5.12, 104.93 1.33, 116.17 0.24 C127.4 -0.86, 127.45 1.26, 127.29 2.46 M155.6 3.76 C169.97 5.44, 184.31 11.87, 195.18 17.19 C206.06 22.51, 214.36 28.67, 220.85 35.66 C227.35 42.65, 233.03 51, 234.15 59.11 C235.26 67.22, 232.42 76.33, 227.53 84.34 C222.63 92.36, 214.45 100.7, 204.76 107.2 C195.08 113.7, 182.98 119.48, 169.42 123.32 C155.85 127.16, 138.51 129.98, 123.4 130.25 C108.28 130.52, 92.52 128.06, 78.74 124.95 C64.96 121.85, 51.62 116.99, 40.72 111.61 C29.82 106.23, 20.02 100.07, 13.34 92.66 C6.66 85.25, 1.77 75.52, 0.62 67.16 C-0.52 58.79, 1.49 49.77, 6.5 42.46 C11.5 35.15, 20.69 29.49, 30.67 23.3 C40.65 17.11, 53.32 9.16, 66.38 5.33 C79.44 1.49, 94.32 0.7, 109.03 0.27 C123.74 -0.17, 147.18 2.06, 154.63 2.71 C162.08 3.36, 154.12 3.15, 153.71 4.17" stroke="#1e1e1e" stroke-width="2" fill="none"></path></g><g transform="translate(185.21850354941625 61.891612613467686) rotate(0 67.55000305175781 12.5)"><text x="67.55000305175781" y="0" font-family="Virgil, Segoe UI Emoji" font-size="20px" fill="#1e1e1e" text-anchor="middle" style="white-space: pre;" direction="ltr" dominant-baseline="text-before-edge">Ceph Cluster*</text></g><g stroke-linecap="round" transform="translate(138 618) rotate(0 114.5 85.5)"><path d="M32 0 C79.42 2.71, 124.31 1.87, 197 0 M32 0 C92.51 0.87, 152.23 0.39, 197 0 M197 0 C220.17 1.8, 229.12 12.19, 229 32 M197 0 C217.84 0.81, 228.34 10.2, 229 32 M229 32 C229.19 73.19, 226.4 112.14, 229 139 M229 32 C228.34 58.06, 230.03 84.24, 229 139 M229 139 C229.46 159.18, 220.11 170.07, 197 171 M229 139 C231.26 161.85, 216.24 171.85, 197 171 M197 171 C140.99 170.29, 81.51 172.41, 32 171 M197 171 C162.11 169.89, 127.85 170.45, 32 171 M32 171 C9.37 172.83, -0.5 159.57, 0 139 M32 171 C12.32 169.04, 2.15 159.98, 0 139 M0 139 C-0.54 106.03, 2.93 70.36, 0 32 M0 139 C0.27 115.35, 0.16 92.37, 0 32 M0 32 C1.46 9.71, 12.12 -0.42, 32 0 M0 32 C0.96 8.37, 12.4 1.42, 32 0" stroke="#1e1e1e" stroke-width="2" fill="none"></path></g><g transform="translate(163.08333587646484 691) rotate(0 89.41666412353516 12.5)"><text x="89.41666412353516" y="0" font-family="Virgil, Segoe UI Emoji" font-size="20px" fill="#1e1e1e" text-anchor="middle" style="white-space: pre;" direction="ltr" dominant-baseline="text-before-edge">Pod with Workload</text></g><g stroke-linecap="round" transform="translate(137.99999952328153 283.29594099999997) rotate(0 114.5 67.5)"><path d="M32 0 C97.18 1.01, 158.76 0.61, 197 0 M32 0 C81.79 1.76, 129.8 1.62, 197 0 M197 0 C217.9 0.7, 228.42 10.26, 229 32 M197 0 C219.92 -1.93, 227.21 11.91, 229 32 M229 32 C227.22 59.86, 228.53 84.76, 229 103 M229 32 C229.76 54.62, 230.41 77.92, 229 103 M229 103 C230.97 125.65, 216.51 135.74, 197 135 M229 103 C230.11 124.77, 219.59 136.65, 197 135 M197 135 C159.03 135.19, 123.21 135.4, 32 135 M197 135 C146.27 136.91, 96.58 135.61, 32 135 M32 135 C12.1 133.29, 1.87 124.03, 0 103 M32 135 C11.27 132.85, 0.3 122.56, 0 103 M0 103 C-2.36 74.05, -0.5 46.38, 0 32 M0 103 C0.93 84.83, 0.92 67.41, 0 32 M0 32 C0.83 8.67, 12.17 1.24, 32 0 M0 32 C-1.56 8.69, 10.14 -1.86, 32 0" stroke="#1e1e1e" stroke-width="2" fill="none"></path></g><g transform="translate(148.3166651726956 313.29594099999997) rotate(0 104.18333435058594 37.5)"><text x="104.18333435058594" y="0" font-family="Virgil, Segoe UI Emoji" font-size="20px" fill="#1e1e1e" text-anchor="middle" style="white-space: pre;" direction="ltr" dominant-baseline="text-before-edge">Ju Files CSI Driver </text><text x="104.18333435058594" y="25" font-family="Virgil, Segoe UI Emoji" font-size="20px" fill="#1e1e1e" text-anchor="middle" style="white-space: pre;" direction="ltr" dominant-baseline="text-before-edge">Node Pod</text><text x="104.18333435058594" y="50" font-family="Virgil, Segoe UI Emoji" font-size="20px" fill="#1e1e1e" text-anchor="middle" style="white-space: pre;" direction="ltr" dominant-baseline="text-before-edge">(Part of Daemonset)</text></g><g stroke-linecap="round" transform="translate(46.521019000000706 936) rotate(0 199.5 51.5)"><path d="M205.73 -0.27 C225.17 -0.78, 247.36 2, 266.51 3.7 C285.66 5.41, 304.24 6.7, 320.63 9.97 C337.02 13.24, 353.24 18.71, 364.83 23.32 C376.41 27.93, 384.53 32.62, 390.12 37.61 C395.7 42.61, 398.78 48.23, 398.32 53.28 C397.87 58.33, 394.19 62.83, 387.41 67.9 C380.63 72.98, 370.11 79.34, 357.64 83.73 C345.17 88.12, 329.71 91.25, 312.6 94.27 C295.48 97.28, 274.86 100.2, 254.96 101.81 C235.05 103.43, 213.49 104.42, 193.16 103.96 C172.82 103.5, 152.16 100.95, 132.95 99.08 C113.74 97.21, 94.24 95.74, 77.9 92.74 C61.56 89.74, 46.43 85.67, 34.91 81.08 C23.38 76.48, 14.6 70.3, 8.75 65.16 C2.89 60.02, -0.56 55.42, -0.22 50.24 C0.12 45.05, 3.92 39.07, 10.78 34.04 C17.64 29, 28.21 24.08, 40.93 20.01 C53.65 15.93, 69.89 12.68, 87.08 9.58 C104.27 6.48, 119.36 2.93, 144.07 1.43 C168.78 -0.08, 215.85 0.06, 235.35 0.55 C254.85 1.03, 261.97 3.31, 261.09 4.35 M184.55 -1 C203.95 -1.73, 227.93 1.67, 248.01 2.9 C268.1 4.14, 287.89 3.84, 305.04 6.4 C322.2 8.97, 337.81 14.17, 350.93 18.29 C364.04 22.42, 375.91 26.36, 383.76 31.15 C391.61 35.95, 396.23 41.77, 398.02 47.07 C399.8 52.36, 399.07 57.74, 394.47 62.93 C389.87 68.12, 381.28 73.82, 370.42 78.21 C359.56 82.59, 344.95 85.61, 329.3 89.25 C313.65 92.89, 295.78 98, 276.5 100.06 C257.22 102.11, 234.37 101.52, 213.63 101.57 C192.89 101.61, 171.84 101.47, 152.09 100.34 C132.33 99.2, 112.41 97.2, 95.11 94.75 C77.8 92.3, 61.86 89.71, 48.27 85.64 C34.67 81.57, 21.59 75.24, 13.54 70.35 C5.49 65.46, 1.24 61.36, -0.03 56.29 C-1.3 51.23, 0.9 45.44, 5.93 39.97 C10.96 34.49, 19.58 28.2, 30.13 23.42 C40.69 18.63, 53.73 14.64, 69.27 11.26 C84.81 7.88, 104.12 5.05, 123.36 3.14 C142.61 1.23, 174.51 0.1, 184.75 -0.21 C194.98 -0.52, 184.52 0.22, 184.78 1.29" stroke="#1e1e1e" stroke-width="2" fill="none"></path></g><g transform="translate(227.73654897799133 975.0840007688928) rotate(0 18.21666717529297 12.5)"><text x="18.21666717529297" y="0" font-family="Virgil, Segoe UI Emoji" font-size="20px" fill="#1e1e1e" text-anchor="middle" style="white-space: pre;" direction="ltr" dominant-baseline="text-before-edge">PVC</text></g><g stroke-linecap="round"><g transform="translate(250.36031361875075 809) rotate(0 1.2892945956461972 55.14782982754923)"><path d="M-0.26 0.42 C0.1 18.61, 1.62 91.91, 2.23 110.05 M1.81 -0.4 C1.97 17.89, 0.89 93.05, 1.1 111.46" stroke="#1e1e1e" stroke-width="2" fill="none"></path></g><g transform="translate(250.36031361875075 809) rotate(0 1.2892945956461972 55.14782982754923)"><path d="M-7.38 87.94 C-3.9 94.58, -2.42 103.73, 1.1 111.46 M-7.38 87.94 C-4.88 92.13, -3.32 97.48, 1.1 111.46" stroke="#1e1e1e" stroke-width="2" fill="none"></path></g><g transform="translate(250.36031361875075 809) rotate(0 1.2892945956461972 55.14782982754923)"><path d="M9.73 87.99 C7.97 94.58, 4.22 103.71, 1.1 111.46 M9.73 87.99 C8.53 92.27, 6.39 97.6, 1.1 111.46" stroke="#1e1e1e" stroke-width="2" fill="none"></path></g></g><mask></mask><g stroke-linecap="round"><g transform="translate(242.1003684297175 263.29594099999997) rotate(0 -2.1828067467008623 -51.72614039024353)"><path d="M-0.35 -0.24 C-0.89 -17.72, -2.71 -87.36, -3.54 -104.46 M1.67 -1.42 C1.06 -18.82, -3.29 -86.22, -4.05 -103.45" stroke="#1e1e1e" stroke-width="2" fill="none"></path></g><g transform="translate(242.1003684297175 263.29594099999997) rotate(0 -2.1828067467008623 -51.72614039024353)"><path d="M5.79 -80.46 C2.56 -85.51, -1.45 -94.85, -4.05 -103.45 M5.79 -80.46 C2.68 -89.28, -1.11 -96.76, -4.05 -103.45" stroke="#1e1e1e" stroke-width="2" fill="none"></path></g><g transform="translate(242.1003684297175 263.29594099999997) rotate(0 -2.1828067467008623 -51.72614039024353)"><path d="M-11.29 -79.52 C-9.76 -84.78, -9.02 -94.38, -4.05 -103.45 M-11.29 -79.52 C-8.35 -88.52, -6.1 -96.34, -4.05 -103.45" stroke="#1e1e1e" stroke-width="2" fill="none"></path></g></g><mask></mask><g mask="url(#mask-KU3UQCHat4ziddr2w2iGJ)" stroke-linecap="round"><g transform="translate(238.64439789082735 433.64517177417997) rotate(0 0.44475778310265923 84.48618432115256)"><path d="M-0.93 0.65 C-0.75 28.81, 1.49 140.01, 1.91 167.95 M0.78 -0.05 C0.82 28.31, 1.43 140.74, 1.5 168.95" stroke="#1e1e1e" stroke-width="2" fill="none"></path></g><g transform="translate(238.64439789082735 433.64517177417997) rotate(0 0.44475778310265923 84.48618432115256)"><path d="M-7.15 145.49 C-3.07 155.92, -2.67 164.03, 1.5 168.95 M-7.15 145.49 C-5.95 151.41, -2.17 157.44, 1.5 168.95" stroke="#1e1e1e" stroke-width="2" fill="none"></path></g><g transform="translate(238.64439789082735 433.64517177417997) rotate(0 0.44475778310265923 84.48618432115256)"><path d="M9.95 145.42 C7.72 155.74, 1.81 163.88, 1.5 168.95 M9.95 145.42 C7.03 151.37, 6.68 157.42, 1.5 168.95" stroke="#1e1e1e" stroke-width="2" fill="none"></path></g></g><mask id="mask-KU3UQCHat4ziddr2w2iGJ"><rect x="0" y="0" fill="#fff" width="339.53391345703267" height="702.6175404164851"></rect><rect x="130.67249155039462" y="480.6313560953324" fill="#000" width="216.8333282470703" height="75" opacity="1"></rect></mask><g transform="translate(130.67249155039462 480.6313560953324) rotate(0 108.45936915017683 37.46278069512914)"><text x="108.41666412353516" y="0" font-family="Virgil, Segoe UI Emoji" font-size="20px" fill="#1e1e1e" text-anchor="middle" style="white-space: pre;" direction="ltr" dominant-baseline="text-before-edge">Map Mount Directory </text><text x="108.41666412353516" y="25" font-family="Virgil, Segoe UI Emoji" font-size="20px" fill="#1e1e1e" text-anchor="middle" style="white-space: pre;" direction="ltr" dominant-baseline="text-before-edge">to Pod via Bind </text><text x="108.41666412353516" y="50" font-family="Virgil, Segoe UI Emoji" font-size="20px" fill="#1e1e1e" text-anchor="middle" style="white-space: pre;" direction="ltr" dominant-baseline="text-before-edge">Mount</text></g><g transform="translate(485 292.75) rotate(0 135.27499389648438 62.5)"><text x="0" y="0" font-family="Virgil, Segoe UI Emoji" font-size="20px" fill="#1971c2" text-anchor="start" style="white-space: pre;" direction="ltr" dominant-baseline="text-before-edge">Observes and fulfills</text><text x="0" y="25" font-family="Virgil, Segoe UI Emoji" font-size="20px" fill="#1971c2" text-anchor="start" style="white-space: pre;" direction="ltr" dominant-baseline="text-before-edge">Volume Attachments for</text><text x="0" y="50" font-family="Virgil, Segoe UI Emoji" font-size="20px" fill="#1971c2" text-anchor="start" style="white-space: pre;" direction="ltr" dominant-baseline="text-before-edge">its CSI Driver on its node</text><text x="0" y="75" font-family="Virgil, Segoe UI Emoji" font-size="20px" fill="#1971c2" text-anchor="start" style="white-space: pre;" direction="ltr" dominant-baseline="text-before-edge"></text><text x="0" y="100" font-family="Virgil, Segoe UI Emoji" font-size="20px" fill="#1971c2" text-anchor="start" style="white-space: pre;" direction="ltr" dominant-baseline="text-before-edge">Runs FUSE Mount Process </text></g><g stroke-linecap="round"><g transform="translate(476 326.8323451330628) rotate(0 -48.500000238359235 9.537881152696087)"><path d="M1.06 -0.56 C-14.95 2.87, -79.29 16.52, -95.82 19.87 M0.16 1.76 C-15.93 4.91, -80.16 15.55, -96.15 18.16" stroke="#1971c2" stroke-width="2" fill="none"></path></g></g><mask></mask><g stroke-linecap="round" transform="translate(56 1118) rotate(0 194 42.5)"><path d="M108.86 4.88 C125.49 2.14, 149.84 0.15, 170.59 -0.48 C191.34 -1.1, 213.09 0.09, 233.37 1.15 C253.66 2.21, 274.32 3.55, 292.3 5.86 C310.28 8.17, 327.52 11.37, 341.26 15 C354.99 18.63, 366.85 23.46, 374.71 27.64 C382.58 31.82, 387.4 35.62, 388.43 40.07 C389.46 44.52, 387.03 49.71, 380.89 54.35 C374.75 58.98, 364.07 63.95, 351.58 67.89 C339.1 71.83, 323.03 75.41, 305.99 78.01 C288.94 80.61, 269.47 82.31, 249.33 83.49 C229.2 84.67, 206.27 85.16, 185.18 85.09 C164.1 85.03, 142.09 84.66, 122.84 83.07 C103.59 81.47, 85.73 78.73, 69.69 75.53 C53.64 72.33, 37.48 67.95, 26.58 63.88 C15.67 59.8, 8.52 55.56, 4.25 51.08 C-0.02 46.6, -1.54 41.42, 0.96 37 C3.47 32.59, 10.09 28.56, 19.3 24.59 C28.52 20.63, 37.21 16.87, 56.24 13.19 C75.27 9.52, 116.26 4.35, 133.48 2.52 C150.7 0.7, 158.42 1.76, 159.56 2.25 M113.64 3.26 C130.7 1.16, 155.21 1.47, 175.82 1 C196.43 0.52, 217.1 -0.67, 237.29 0.41 C257.49 1.48, 278.96 4.77, 297.01 7.45 C315.05 10.13, 332.22 13.24, 345.55 16.5 C358.88 19.76, 370.07 22.97, 376.97 27.03 C383.87 31.09, 386.73 36.2, 386.93 40.86 C387.13 45.51, 384.44 50.48, 378.17 54.95 C371.9 59.43, 361.87 63.92, 349.29 67.73 C336.71 71.54, 320.1 75.05, 302.71 77.83 C285.32 80.62, 265.03 83.08, 244.94 84.45 C224.86 85.81, 202.97 86.68, 182.18 86.04 C161.39 85.39, 139.6 82.71, 120.19 80.56 C100.78 78.41, 81.35 75.88, 65.7 73.13 C50.04 70.39, 36.75 67.86, 26.26 64.11 C15.77 60.37, 6.87 55.39, 2.74 50.66 C-1.4 45.94, -1.6 40.26, 1.44 35.77 C4.49 31.28, 10.92 27.84, 20.99 23.73 C31.07 19.62, 46.41 14.52, 61.9 11.1 C77.39 7.69, 105.06 4.47, 113.92 3.23 C122.78 1.98, 113.68 2.66, 115.07 3.63" stroke="#1e1e1e" stroke-width="2" fill="none"></path></g><g transform="translate(147.1962844498098 1135.4479617995717) rotate(0 102.625 25)"><text x="102.625" y="0" font-family="Virgil, Segoe UI Emoji" font-size="20px" fill="#1e1e1e" text-anchor="middle" style="white-space: pre;" direction="ltr" dominant-baseline="text-before-edge">PV (referencing Disk </text><text x="102.625" y="25" font-family="Virgil, Segoe UI Emoji" font-size="20px" fill="#1e1e1e" text-anchor="middle" style="white-space: pre;" direction="ltr" dominant-baseline="text-before-edge">information)</text></g><g stroke-linecap="round"><g transform="translate(259.85401789103435 1049.9054915685856) rotate(0 0.6581215953872288 29.514669644018113)"><path d="M0.58 0.23 C1.09 10.14, 2.01 50.15, 1.97 59.89 M-0.58 -0.7 C-0.07 8.84, 0.82 48.14, 1.37 58.22" stroke="#1e1e1e" stroke-width="2" fill="none"></path></g></g><mask></mask></svg>