<svg version="1.1" xmlns="http://www.w3.org/2000/svg" viewBox="0 0 482.6416702270508 675.1299216671684" width="482.6416702270508" height="675.1299216671684">
  <!-- svg-source:excalidraw -->
  
  <defs>
    <style class="style-fonts">
      @font-face {
        font-family: "Virgil";
        src: url("https://excalidraw.com/Virgil.woff2");
      }
      @font-face {
        font-family: "Cascadia";
        src: url("https://excalidraw.com/Cascadia.woff2");
      }
      @font-face {
        font-family: "Assistant";
        src: url("https://app.excalidraw.com//dist/excalidraw-assets/Assistant-Regular.woff2");
      }
    </style>
    
  </defs>
  <g stroke-linecap="round" transform="translate(75.13257672062855 20.396920091870925) rotate(0 35.15802188602947 8.438404197191772)"><path d="M0.48 7.04 C0.48 7.04, 0.48 7.04, 0.48 7.04 M0.48 7.04 C0.48 7.04, 0.48 7.04, 0.48 7.04 M2.18 11.17 C4.23 8.82, 6.27 6.47, 8.74 3.63 M2.18 11.17 C4.46 8.56, 6.73 5.94, 8.74 3.63 M5.86 13.04 C9.54 8.81, 13.21 4.58, 15.7 1.72 M5.86 13.04 C9.21 9.19, 12.56 5.33, 15.7 1.72 M9.53 14.91 C14.12 9.63, 18.72 4.35, 21.34 1.33 M9.53 14.91 C13.55 10.29, 17.57 5.67, 21.34 1.33 M14.52 15.27 C18.65 10.52, 22.79 5.76, 27.64 0.18 M14.52 15.27 C19.59 9.44, 24.67 3.6, 27.64 0.18 M18.85 16.39 C24.34 10.08, 29.82 3.76, 32.63 0.54 M18.85 16.39 C22.8 11.84, 26.75 7.3, 32.63 0.54 M23.84 16.75 C26.94 13.18, 30.04 9.61, 38.27 0.14 M23.84 16.75 C27.72 12.28, 31.61 7.81, 38.27 0.14 M28.83 17.11 C33.4 11.85, 37.97 6.59, 43.26 0.5 M28.83 17.11 C32.31 13.1, 35.79 9.1, 43.26 0.5 M34.47 16.71 C38.24 12.38, 42.01 8.04, 48.25 0.86 M34.47 16.71 C37.84 12.83, 41.21 8.95, 48.25 0.86 M39.46 17.07 C43.84 12.03, 48.22 6.99, 53.23 1.22 M39.46 17.07 C43.76 12.12, 48.06 7.18, 53.23 1.22 M44.44 17.43 C49.54 11.57, 54.63 5.71, 57.56 2.34 M44.44 17.43 C48.68 12.55, 52.93 7.67, 57.56 2.34 M50.74 16.28 C54.9 11.5, 59.06 6.72, 61.89 3.45 M50.74 16.28 C53.65 12.93, 56.56 9.59, 61.89 3.45 M56.38 15.89 C59.86 11.89, 63.34 7.89, 66.23 4.57 M56.38 15.89 C59.02 12.86, 61.66 9.83, 66.23 4.57 M64 13.23 C65.46 11.54, 66.93 9.85, 69.9 6.44 M64 13.23 C65.78 11.18, 67.56 9.13, 69.9 6.44" stroke="#f1413f" stroke-width="0.5" fill="none"></path><path d="M70.32 8.44 C70.32 8.93, 70.14 9.42, 69.78 9.9 C69.43 10.38, 68.89 10.87, 68.2 11.32 C67.5 11.78, 66.62 12.23, 65.61 12.66 C64.59 13.08, 63.4 13.49, 62.09 13.86 C60.78 14.24, 59.32 14.59, 57.76 14.9 C56.2 15.22, 54.5 15.5, 52.74 15.75 C50.97 15.99, 49.1 16.2, 47.18 16.37 C45.27 16.53, 43.27 16.66, 41.26 16.75 C39.26 16.83, 37.19 16.88, 35.16 16.88 C33.12 16.88, 31.06 16.83, 29.05 16.75 C27.05 16.66, 25.05 16.53, 23.13 16.37 C21.22 16.2, 19.34 15.99, 17.58 15.75 C15.82 15.5, 14.12 15.22, 12.56 14.9 C11 14.59, 9.53 14.24, 8.23 13.86 C6.92 13.49, 5.73 13.08, 4.71 12.66 C3.69 12.23, 2.82 11.78, 2.12 11.32 C1.42 10.87, 0.89 10.38, 0.53 9.9 C0.18 9.42, 0 8.93, 0 8.44 C0 7.95, 0.18 7.45, 0.53 6.97 C0.89 6.49, 1.42 6.01, 2.12 5.55 C2.82 5.09, 3.69 4.64, 4.71 4.22 C5.73 3.8, 6.92 3.39, 8.23 3.01 C9.53 2.64, 11 2.29, 12.56 1.97 C14.12 1.66, 15.82 1.37, 17.58 1.13 C19.34 0.89, 21.22 0.68, 23.13 0.51 C25.05 0.34, 27.05 0.21, 29.05 0.13 C31.06 0.04, 33.12 0, 35.16 0 C37.19 0, 39.26 0.04, 41.26 0.13 C43.27 0.21, 45.27 0.34, 47.18 0.51 C49.1 0.68, 50.97 0.89, 52.74 1.13 C54.5 1.37, 56.2 1.66, 57.76 1.97 C59.32 2.29, 60.78 2.64, 62.09 3.01 C63.4 3.39, 64.59 3.8, 65.61 4.22 C66.62 4.64, 67.5 5.09, 68.2 5.55 C68.89 6.01, 69.43 6.49, 69.78 6.97 C70.14 7.45, 70.23 8.19, 70.32 8.44 C70.41 8.68, 70.41 8.19, 70.32 8.44" stroke="#f1413f" stroke-width="1" fill="none"></path></g><g stroke-linecap="round"><g transform="translate(74.90138561082813 35.2208466810614) rotate(0 35.174811818023386 27.191116613533865)" fill-rule="evenodd"><path d="M0 0 C0 0, 0 0, 0 0 M0 0 C0 0, 0 0, 0 0 M1.05 4.89 C1.82 4, 2.59 3.11, 3.02 2.62 M1.05 4.89 C1.78 4.05, 2.5 3.22, 3.02 2.62 M2.1 9.78 C3.03 8.7, 3.97 7.63, 6.69 4.49 M2.1 9.78 C3.27 8.43, 4.44 7.08, 6.69 4.49 M3.15 14.67 C5.84 11.57, 8.52 8.48, 11.02 5.61 M3.15 14.67 C5.2 12.31, 7.25 9.95, 11.02 5.61 M4.86 18.8 C8.68 14.41, 12.49 10.02, 15.36 6.72 M4.86 18.8 C8.33 14.8, 11.8 10.81, 15.36 6.72 M5.91 23.69 C8.85 20.31, 11.78 16.93, 20.34 7.08 M5.91 23.69 C10.14 18.82, 14.38 13.94, 20.34 7.08 M6.96 28.58 C10.85 24.1, 14.74 19.62, 25.33 7.44 M6.96 28.58 C12.62 22.06, 18.29 15.55, 25.33 7.44 M8.01 33.46 C12.66 28.12, 17.3 22.77, 30.97 7.05 M8.01 33.46 C15.51 24.83, 23.02 16.2, 30.97 7.05 M9.06 38.35 C16.8 29.45, 24.54 20.55, 35.3 8.16 M9.06 38.35 C18.17 27.87, 27.29 17.39, 35.3 8.16 M10.11 43.24 C21.17 30.52, 32.23 17.79, 40.95 7.77 M10.11 43.24 C18.48 33.61, 26.85 23.98, 40.95 7.77 M11.16 48.13 C20.43 37.46, 29.71 26.8, 47.25 6.62 M11.16 48.13 C24.18 33.16, 37.19 18.18, 47.25 6.62 M14.18 50.75 C25.4 37.84, 36.63 24.93, 52.89 6.23 M14.18 50.75 C25.49 37.75, 36.79 24.74, 52.89 6.23 M17.86 52.62 C27.58 41.44, 37.31 30.25, 58.53 5.83 M17.86 52.62 C26.59 42.57, 35.33 32.53, 58.53 5.83 M22.19 53.74 C31.3 43.25, 40.42 32.77, 65.49 3.93 M22.19 53.74 C31.12 43.47, 40.04 33.2, 65.49 3.93 M27.17 54.1 C39.07 40.41, 50.97 26.72, 69.82 5.04 M27.17 54.1 C41.18 37.98, 55.19 21.87, 69.82 5.04 M32.16 54.46 C44.13 40.69, 56.1 26.92, 68.24 12.95 M32.16 54.46 C42.43 42.65, 52.7 30.83, 68.24 12.95 M37.15 54.82 C46.14 44.47, 55.14 34.13, 66.02 21.61 M37.15 54.82 C45.07 45.71, 52.99 36.6, 66.02 21.61 M42.79 54.42 C48.45 47.91, 54.12 41.39, 64.44 29.52 M42.79 54.42 C48.23 48.17, 53.66 41.92, 64.44 29.52 M48.43 54.03 C53.51 48.19, 58.58 42.36, 62.21 38.18 M48.43 54.03 C53.64 48.04, 58.84 42.06, 62.21 38.18 M56.05 51.37 C56.85 50.44, 57.66 49.51, 59.98 46.84 M56.05 51.37 C57.16 50.09, 58.27 48.81, 59.98 46.84" stroke="#f1413f" stroke-width="0.5" fill="none"></path><path d="M0 0 C2.65 11.13, 5.3 22.26, 11.88 49.91 M0 0 C3.09 12.96, 6.17 25.92, 11.88 49.91 M11.88 49.91 C13.17 50.55, 14.47 51.18, 17.48 52.67 M11.88 49.91 C13.57 50.74, 15.25 51.57, 17.48 52.67 M17.48 52.67 C19.1 52.96, 20.73 53.26, 23.08 53.7 M17.48 52.67 C18.81 52.91, 20.14 53.16, 23.08 53.7 M23.08 53.7 C25.5 53.89, 27.91 54.08, 29.63 54.21 M23.08 53.7 C25.21 53.86, 27.34 54.03, 29.63 54.21 M29.63 54.21 C31.15 54.26, 32.67 54.31, 35.14 54.38 M29.63 54.21 C30.92 54.25, 32.21 54.29, 35.14 54.38 M35.14 54.38 C36.65 54.36, 38.16 54.33, 40.22 54.3 M35.14 54.38 C36.71 54.36, 38.27 54.33, 40.22 54.3 M40.22 54.3 C41.7 54.19, 43.19 54.08, 46.25 53.86 M40.22 54.3 C41.53 54.2, 42.85 54.11, 46.25 53.86 M46.25 53.86 C48.46 53.47, 50.68 53.08, 53.57 52.57 M46.25 53.86 C47.85 53.58, 49.45 53.3, 53.57 52.57 M53.57 52.57 C54.87 51.96, 56.17 51.35, 58.56 50.23 M53.57 52.57 C54.61 52.08, 55.65 51.59, 58.56 50.23 M58.56 50.23 C62.92 31.67, 67.29 13.1, 70.35 0.07 M58.56 50.23 C63.03 31.2, 67.51 12.17, 70.35 0.07 M70.35 0.07 C69.59 0.88, 68.84 1.7, 68.35 2.22 M70.35 0.07 C69.79 0.67, 69.23 1.27, 68.35 2.22 M68.35 2.22 C67.23 2.67, 66.11 3.13, 65.42 3.42 M68.35 2.22 C67.57 2.53, 66.79 2.85, 65.42 3.42 M65.42 3.42 C64.31 3.7, 63.2 3.99, 61.1 4.54 M65.42 3.42 C63.86 3.82, 62.31 4.22, 61.1 4.54 M61.1 4.54 C59.14 4.91, 57.18 5.29, 54.88 5.74 M61.1 4.54 C59.2 4.9, 57.3 5.27, 54.88 5.74 M54.88 5.74 C52.98 6.06, 51.09 6.39, 49.35 6.68 M54.88 5.74 C53.62 5.95, 52.37 6.17, 49.35 6.68 M49.35 6.68 C48.04 6.77, 46.72 6.85, 44 7.03 M49.35 6.68 C47.85 6.78, 46.34 6.88, 44 7.03 M44 7.03 C42.33 7.13, 40.66 7.23, 38.21 7.37 M44 7.03 C42.17 7.14, 40.33 7.25, 38.21 7.37 M38.21 7.37 C36.21 7.31, 34.21 7.25, 32.43 7.2 M38.21 7.37 C36.32 7.31, 34.42 7.26, 32.43 7.2 M32.43 7.2 C30.4 7.23, 28.38 7.26, 26.47 7.28 M32.43 7.2 C30.56 7.23, 28.68 7.25, 26.47 7.28 M26.47 7.28 C24.74 7.14, 23.02 6.99, 20.42 6.77 M26.47 7.28 C24.46 7.11, 22.44 6.94, 20.42 6.77 M20.42 6.77 C18.21 6.45, 16 6.12, 13.86 5.82 M20.42 6.77 C18.07 6.43, 15.72 6.08, 13.86 5.82 M13.86 5.82 C12.35 5.46, 10.85 5.1, 7.3 4.26 M13.86 5.82 C11.65 5.29, 9.43 4.77, 7.3 4.26 M7.3 4.26 C5.91 3.73, 4.52 3.2, 2.98 2.62 M7.3 4.26 C6.25 3.86, 5.2 3.46, 2.98 2.62 M2.98 2.62 C2.26 1.99, 1.54 1.35, 0 0 M2.98 2.62 C1.98 1.74, 0.98 0.86, 0 0 M0 0 C0 0, 0 0, 0 0 M0 0 C0 0, 0 0, 0 0" stroke="#f1413f" stroke-width="1" fill="none"></path></g></g><mask></mask><g stroke-linecap="round" transform="translate(102.12224919172559 47.710664613359086) rotate(0 7.36573995544893 7.108656675454455)"><path d="M0 0 L14.73 0 L14.73 14.22 L0 14.22" stroke="none" stroke-width="0" fill="#ffffff"></path><path d="M0 0 C4.23 0, 8.47 0, 14.73 0 M0 0 C3.35 0, 6.7 0, 14.73 0 M14.73 0 C14.73 4.43, 14.73 8.86, 14.73 14.22 M14.73 0 C14.73 4.93, 14.73 9.86, 14.73 14.22 M14.73 14.22 C9.23 14.22, 3.72 14.22, 0 14.22 M14.73 14.22 C9.71 14.22, 4.7 14.22, 0 14.22 M0 14.22 C0 8.69, 0 3.16, 0 0 M0 14.22 C0 9.38, 0 4.54, 0 0" stroke="#f1413f" stroke-width="1" fill="none"></path></g><g stroke-linecap="round" transform="translate(90.25907175441489 67.23553176172072) rotate(0 7.279538889437163 7.2795388894372195)"><path d="M14.56 7.28 C14.56 7.7, 14.52 8.13, 14.45 8.54 C14.38 8.96, 14.26 9.37, 14.12 9.77 C13.98 10.17, 13.79 10.55, 13.58 10.92 C13.37 11.28, 13.13 11.64, 12.86 11.96 C12.59 12.28, 12.28 12.59, 11.96 12.86 C11.64 13.13, 11.28 13.37, 10.92 13.58 C10.55 13.79, 10.17 13.98, 9.77 14.12 C9.37 14.26, 8.96 14.38, 8.54 14.45 C8.13 14.52, 7.7 14.56, 7.28 14.56 C6.86 14.56, 6.43 14.52, 6.02 14.45 C5.6 14.38, 5.19 14.26, 4.79 14.12 C4.39 13.98, 4 13.79, 3.64 13.58 C3.27 13.37, 2.92 13.13, 2.6 12.86 C2.28 12.59, 1.97 12.28, 1.7 11.96 C1.43 11.64, 1.19 11.28, 0.98 10.92 C0.76 10.55, 0.58 10.17, 0.44 9.77 C0.29 9.37, 0.18 8.96, 0.11 8.54 C0.04 8.13, 0 7.7, 0 7.28 C0 6.86, 0.04 6.43, 0.11 6.02 C0.18 5.6, 0.29 5.19, 0.44 4.79 C0.58 4.39, 0.76 4, 0.98 3.64 C1.19 3.27, 1.43 2.92, 1.7 2.6 C1.97 2.28, 2.28 1.97, 2.6 1.7 C2.92 1.43, 3.27 1.19, 3.64 0.98 C4 0.76, 4.39 0.58, 4.79 0.44 C5.19 0.29, 5.6 0.18, 6.02 0.11 C6.43 0.04, 6.86 0, 7.28 0 C7.7 0, 8.13 0.04, 8.54 0.11 C8.96 0.18, 9.37 0.29, 9.77 0.44 C10.17 0.58, 10.55 0.76, 10.92 0.98 C11.28 1.19, 11.64 1.43, 11.96 1.7 C12.28 1.97, 12.59 2.28, 12.86 2.6 C13.13 2.92, 13.37 3.27, 13.58 3.64 C13.79 4, 13.98 4.39, 14.12 4.79 C14.26 5.19, 14.38 5.6, 14.45 6.02 C14.52 6.43, 14.54 7.07, 14.56 7.28 C14.58 7.49, 14.58 7.07, 14.56 7.28" stroke="none" stroke-width="0" fill="#ffffff"></path><path d="M14.56 7.28 C14.56 7.7, 14.52 8.13, 14.45 8.54 C14.38 8.96, 14.26 9.37, 14.12 9.77 C13.98 10.17, 13.79 10.55, 13.58 10.92 C13.37 11.28, 13.13 11.64, 12.86 11.96 C12.59 12.28, 12.28 12.59, 11.96 12.86 C11.64 13.13, 11.28 13.37, 10.92 13.58 C10.55 13.79, 10.17 13.98, 9.77 14.12 C9.37 14.26, 8.96 14.38, 8.54 14.45 C8.13 14.52, 7.7 14.56, 7.28 14.56 C6.86 14.56, 6.43 14.52, 6.02 14.45 C5.6 14.38, 5.19 14.26, 4.79 14.12 C4.39 13.98, 4 13.79, 3.64 13.58 C3.27 13.37, 2.92 13.13, 2.6 12.86 C2.28 12.59, 1.97 12.28, 1.7 11.96 C1.43 11.64, 1.19 11.28, 0.98 10.92 C0.76 10.55, 0.58 10.17, 0.44 9.77 C0.29 9.37, 0.18 8.96, 0.11 8.54 C0.04 8.13, 0 7.7, 0 7.28 C0 6.86, 0.04 6.43, 0.11 6.02 C0.18 5.6, 0.29 5.19, 0.44 4.79 C0.58 4.39, 0.76 4, 0.98 3.64 C1.19 3.27, 1.43 2.92, 1.7 2.6 C1.97 2.28, 2.28 1.97, 2.6 1.7 C2.92 1.43, 3.27 1.19, 3.64 0.98 C4 0.76, 4.39 0.58, 4.79 0.44 C5.19 0.29, 5.6 0.18, 6.02 0.11 C6.43 0.04, 6.86 0, 7.28 0 C7.7 0, 8.13 0.04, 8.54 0.11 C8.96 0.18, 9.37 0.29, 9.77 0.44 C10.17 0.58, 10.55 0.76, 10.92 0.98 C11.28 1.19, 11.64 1.43, 11.96 1.7 C12.28 1.97, 12.59 2.28, 12.86 2.6 C13.13 2.92, 13.37 3.27, 13.58 3.64 C13.79 4, 13.98 4.39, 14.12 4.79 C14.26 5.19, 14.38 5.6, 14.45 6.02 C14.52 6.43, 14.54 7.07, 14.56 7.28 C14.58 7.49, 14.58 7.07, 14.56 7.28" stroke="#f1413f" stroke-width="1" fill="none"></path></g><g stroke-linecap="round"><g transform="translate(121.00353961550763 67.87650291251771) rotate(0 0.0683963118228803 6.762115362218708)" fill-rule="evenodd"><path d="M0 0 L-7.34 13.52 L7.48 13.35 L0 0" stroke="none" stroke-width="0" fill="#ffffff" fill-rule="evenodd"></path><path d="M0 0 C-2.16 3.98, -4.32 7.95, -7.34 13.52 M0 0 C-2.33 4.28, -4.65 8.57, -7.34 13.52 M-7.34 13.52 C-2.05 13.46, 3.25 13.4, 7.48 13.35 M-7.34 13.52 C-4.21 13.49, -1.09 13.45, 7.48 13.35 M7.48 13.35 C5.86 10.47, 4.25 7.59, 0 0 M7.48 13.35 C4.77 8.51, 2.05 3.67, 0 0 M0 0 C0 0, 0 0, 0 0 M0 0 C0 0, 0 0, 0 0" stroke="#f1413f" stroke-width="1" fill="none"></path></g></g><mask></mask><g stroke-linecap="round" transform="translate(203.1750030517578 10) rotate(0 94 59.5)"><path d="M29.75 0 C74.54 -1.82, 118.81 1.51, 158.25 0 M29.75 0 C73.74 1.05, 118.76 1.28, 158.25 0 M158.25 0 C179.21 -1.46, 186.73 11.8, 188 29.75 M158.25 0 C177.68 0.71, 187.37 9.74, 188 29.75 M188 29.75 C188.64 43.33, 187.19 59.48, 188 89.25 M188 29.75 C188.92 46.1, 188.73 63.68, 188 89.25 M188 89.25 C187.78 109.25, 177.97 120.43, 158.25 119 M188 89.25 C187.41 109.13, 176.62 119.38, 158.25 119 M158.25 119 C116.68 119.76, 76.72 121.1, 29.75 119 M158.25 119 C127.88 118.58, 97.8 119.56, 29.75 119 M29.75 119 C11.42 120.69, 0.95 108.26, 0 89.25 M29.75 119 C7.73 121.16, 0.91 109.33, 0 89.25 M0 89.25 C0.61 70.02, 0.26 46.65, 0 29.75 M0 89.25 C0.18 76.38, 0.34 61.74, 0 29.75 M0 29.75 C-1.39 9.7, 10.32 -1.09, 29.75 0 M0 29.75 C-1.71 10.67, 9.46 0.48, 29.75 0" stroke="#1e1e1e" stroke-width="2" fill="none"></path></g><g transform="translate(257.5333366394043 57) rotate(0 39.641666412353516 12.5)"><text x="39.641666412353516" y="0" font-family="Virgil, Segoe UI Emoji" font-size="20px" fill="#1e1e1e" text-anchor="middle" style="white-space: pre;" direction="ltr" dominant-baseline="text-before-edge">Backend</text></g><g transform="translate(208.6750030517578 640.1299216671684) rotate(0 28.5 12.5)"><text x="0" y="0" font-family="Virgil, Segoe UI Emoji" font-size="20px" fill="#000000" text-anchor="start" style="white-space: pre;" direction="ltr" dominant-baseline="text-before-edge">Users</text></g><g stroke-linecap="round" transform="translate(249.1178199909773 572.8700783328316) rotate(0 9.87517181638475 8.640775339336699)"><path d="M2.19 3.23 C2.19 3.23, 2.19 3.23, 2.19 3.23 M2.19 3.23 C2.19 3.23, 2.19 3.23, 2.19 3.23 M2.98 14.51 C5.83 11.23, 8.69 7.94, 14.79 0.93 M2.98 14.51 C5.57 11.53, 8.16 8.55, 14.79 0.93 M10.33 18.25 C13.72 14.34, 17.12 10.44, 19.51 7.69 M10.33 18.25 C13.93 14.11, 17.53 9.96, 19.51 7.69 M3.77 15.47 C3.77 15.47, 3.77 15.47, 3.77 15.47 M3.77 15.47 C3.77 15.47, 3.77 15.47, 3.77 15.47 M15.81 15.34 C10.54 10.76, 5.27 6.18, 2.23 3.53 M15.81 15.34 C11.91 11.95, 8.01 8.55, 2.23 3.53 M20.31 8.65 C17.89 6.55, 15.48 4.45, 9.74 -0.54 M20.31 8.65 C17.49 6.19, 14.66 3.74, 9.74 -0.54" stroke="#ced4da" stroke-width="1" fill="none"></path><path d="M19.75 8.64 C19.75 9.14, 19.7 9.65, 19.6 10.14 C19.5 10.63, 19.35 11.13, 19.15 11.6 C18.96 12.07, 18.71 12.53, 18.43 12.96 C18.14 13.39, 17.81 13.81, 17.44 14.19 C17.07 14.58, 16.66 14.94, 16.22 15.26 C15.78 15.58, 15.31 15.87, 14.81 16.12 C14.32 16.37, 13.79 16.59, 13.25 16.76 C12.72 16.93, 12.15 17.06, 11.59 17.15 C11.03 17.24, 10.45 17.28, 9.88 17.28 C9.3 17.28, 8.72 17.24, 8.16 17.15 C7.6 17.06, 7.03 16.93, 6.5 16.76 C5.96 16.59, 5.43 16.37, 4.94 16.12 C4.44 15.87, 3.97 15.58, 3.53 15.26 C3.09 14.94, 2.68 14.58, 2.31 14.19 C1.94 13.81, 1.61 13.39, 1.32 12.96 C1.04 12.53, 0.79 12.07, 0.6 11.6 C0.4 11.13, 0.25 10.63, 0.15 10.14 C0.05 9.65, 0 9.14, 0 8.64 C0 8.14, 0.05 7.63, 0.15 7.14 C0.25 6.65, 0.4 6.16, 0.6 5.69 C0.79 5.22, 1.04 4.75, 1.32 4.32 C1.61 3.89, 1.94 3.47, 2.31 3.09 C2.68 2.7, 3.09 2.34, 3.53 2.02 C3.97 1.7, 4.44 1.41, 4.94 1.16 C5.43 0.91, 5.96 0.69, 6.5 0.52 C7.03 0.35, 7.6 0.22, 8.16 0.13 C8.72 0.04, 9.3 0, 9.88 0 C10.45 0, 11.03 0.04, 11.59 0.13 C12.15 0.22, 12.72 0.35, 13.25 0.52 C13.79 0.69, 14.32 0.91, 14.81 1.16 C15.31 1.41, 15.78 1.7, 16.22 2.02 C16.66 2.34, 17.07 2.7, 17.44 3.09 C17.81 3.47, 18.14 3.89, 18.43 4.32 C18.71 4.75, 18.96 5.22, 19.15 5.69 C19.35 6.16, 19.5 6.65, 19.6 7.14 C19.7 7.63, 19.73 8.39, 19.75 8.64 C19.78 8.89, 19.78 8.39, 19.75 8.64" stroke="#000000" stroke-width="2" fill="none"></path></g><g stroke-linecap="round" transform="translate(205.9341458666554 573.4531461164656) rotate(0 9.87517181638475 8.640775339336699)"><path d="M2.19 3.23 C2.19 3.23, 2.19 3.23, 2.19 3.23 M2.19 3.23 C2.19 3.23, 2.19 3.23, 2.19 3.23 M2.98 14.51 C7.04 9.84, 11.09 5.18, 14.79 0.93 M2.98 14.51 C6.01 11.02, 9.05 7.53, 14.79 0.93 M10.33 18.25 C12.96 15.23, 15.59 12.2, 19.51 7.69 M10.33 18.25 C12.29 15.99, 14.26 13.73, 19.51 7.69 M3.77 15.47 C3.77 15.47, 3.77 15.47, 3.77 15.47 M3.77 15.47 C3.77 15.47, 3.77 15.47, 3.77 15.47 M15.81 15.34 C12.1 12.11, 8.38 8.88, 2.23 3.53 M15.81 15.34 C10.75 10.94, 5.68 6.53, 2.23 3.53 M20.31 8.65 C16.31 5.17, 12.31 1.7, 9.74 -0.54 M20.31 8.65 C17.5 6.21, 14.69 3.76, 9.74 -0.54" stroke="#ced4da" stroke-width="1" fill="none"></path><path d="M19.75 8.64 C19.75 9.14, 19.7 9.65, 19.6 10.14 C19.5 10.63, 19.35 11.13, 19.15 11.6 C18.96 12.07, 18.71 12.53, 18.43 12.96 C18.14 13.39, 17.81 13.81, 17.44 14.19 C17.07 14.58, 16.66 14.94, 16.22 15.26 C15.78 15.58, 15.31 15.87, 14.81 16.12 C14.32 16.37, 13.79 16.59, 13.25 16.76 C12.72 16.93, 12.15 17.06, 11.59 17.15 C11.03 17.24, 10.45 17.28, 9.88 17.28 C9.3 17.28, 8.72 17.24, 8.16 17.15 C7.6 17.06, 7.03 16.93, 6.5 16.76 C5.96 16.59, 5.43 16.37, 4.94 16.12 C4.44 15.87, 3.97 15.58, 3.53 15.26 C3.09 14.94, 2.68 14.58, 2.31 14.19 C1.94 13.81, 1.61 13.39, 1.32 12.96 C1.04 12.53, 0.79 12.07, 0.6 11.6 C0.4 11.13, 0.25 10.63, 0.15 10.14 C0.05 9.65, 0 9.14, 0 8.64 C0 8.14, 0.05 7.63, 0.15 7.14 C0.25 6.65, 0.4 6.16, 0.6 5.69 C0.79 5.22, 1.04 4.75, 1.32 4.32 C1.61 3.89, 1.94 3.47, 2.31 3.09 C2.68 2.7, 3.09 2.34, 3.53 2.02 C3.97 1.7, 4.44 1.41, 4.94 1.16 C5.43 0.91, 5.96 0.69, 6.5 0.52 C7.03 0.35, 7.6 0.22, 8.16 0.13 C8.72 0.04, 9.3 0, 9.88 0 C10.45 0, 11.03 0.04, 11.59 0.13 C12.15 0.22, 12.72 0.35, 13.25 0.52 C13.79 0.69, 14.32 0.91, 14.81 1.16 C15.31 1.41, 15.78 1.7, 16.22 2.02 C16.66 2.34, 17.07 2.7, 17.44 3.09 C17.81 3.47, 18.14 3.89, 18.43 4.32 C18.71 4.75, 18.96 5.22, 19.15 5.69 C19.35 6.16, 19.5 6.65, 19.6 7.14 C19.7 7.63, 19.73 8.39, 19.75 8.64 C19.78 8.89, 19.78 8.39, 19.75 8.64" stroke="#000000" stroke-width="2" fill="none"></path></g><g stroke-linecap="round"><g transform="translate(216.38596587391976 632.3841818541152) rotate(0 20.90300106626728 -18.613522148782124)" fill-rule="evenodd"><path d="M11.93 -33.36 C11.93 -33.36, 11.93 -33.36, 11.93 -33.36 M11.93 -33.36 C11.93 -33.36, 11.93 -33.36, 11.93 -33.36 M1.56 -9.24 C8.33 -17.03, 15.09 -24.81, 25.18 -36.41 M1.56 -9.24 C6.62 -15.06, 11.68 -20.88, 25.18 -36.41 M4.32 -0.22 C11.07 -7.99, 17.82 -15.75, 31.22 -31.16 M4.32 -0.22 C11.9 -8.94, 19.49 -17.67, 31.22 -31.16 M14.95 -0.26 C20.88 -7.07, 26.8 -13.89, 36.6 -25.16 M14.95 -0.26 C23.02 -9.54, 31.1 -18.83, 36.6 -25.16 M25.58 -0.29 C31.29 -6.86, 37 -13.43, 40.67 -17.65 M25.58 -0.29 C29.59 -4.9, 33.6 -9.52, 40.67 -17.65 M36.21 -0.32 C37.94 -2.32, 39.67 -4.31, 44.08 -9.38 M36.21 -0.32 C38.27 -2.69, 40.32 -5.06, 44.08 -9.38 M0 0 C0 0, 0 0, 0 0 M0 0 C0 0, 0 0, 0 0 M12.04 -0.13 C8.34 -3.35, 4.64 -6.57, 1.47 -9.32 M12.04 -0.13 C8.75 -2.99, 5.46 -5.85, 1.47 -9.32 M24.08 -0.27 C17.79 -5.74, 11.5 -11.21, 2.95 -18.64 M24.08 -0.27 C18.08 -5.48, 12.08 -10.7, 2.95 -18.64 M35.37 -1.06 C23.98 -10.96, 12.59 -20.86, 5.93 -26.64 M35.37 -1.06 C26.31 -8.93, 17.25 -16.8, 5.93 -26.64 M42.88 -5.12 C33.87 -12.95, 24.87 -20.78, 11.18 -32.68 M42.88 -5.12 C32.18 -14.43, 21.47 -23.74, 11.18 -32.68 M41.34 -17.07 C33.43 -23.94, 25.52 -30.81, 18.7 -36.75 M41.34 -17.07 C32.55 -24.71, 23.75 -32.35, 18.7 -36.75" stroke="#ced4da" stroke-width="1" fill="none"></path><path d="M0 0 C0.78 -4.11, 1.34 -18.46, 4.68 -24.67 C8.03 -30.87, 14.94 -36.78, 20.07 -37.23 C25.2 -37.68, 31.83 -33.14, 35.45 -27.36 C39.07 -21.58, 47.71 -7.12, 41.81 -2.56 C35.9 2, 6.97 -0.43, 0 0 M0 0 C0.78 -4.11, 1.34 -18.46, 4.68 -24.67 C8.03 -30.87, 14.94 -36.78, 20.07 -37.23 C25.2 -37.68, 31.83 -33.14, 35.45 -27.36 C39.07 -21.58, 47.71 -7.12, 41.81 -2.56 C35.9 2, 6.97 -0.43, 0 0" stroke="#000000" stroke-width="2" fill="none"></path></g></g><mask></mask><g stroke-linecap="round" transform="translate(226.8720880247297 575.8096705342782) rotate(0 10.702336545928915 9.364544477687787)"><path d="M2.43 3.43 C2.43 3.43, 2.43 3.43, 2.43 3.43 M2.43 3.43 C2.43 3.43, 2.43 3.43, 2.43 3.43 M2.56 15.48 C7.06 10.29, 11.57 5.11, 15.02 1.14 M2.56 15.48 C6.55 10.89, 10.53 6.3, 15.02 1.14 M10.57 18.46 C13.8 14.74, 17.04 11.02, 21.06 6.38 M10.57 18.46 C14.3 14.17, 18.03 9.88, 21.06 6.38 M4.02 16.71 C4.02 16.71, 4.02 16.71, 4.02 16.71 M4.02 16.71 C4.02 16.71, 4.02 16.71, 4.02 16.71 M16.82 17.23 C11.4 12.53, 5.99 7.82, 1.72 4.11 M16.82 17.23 C12.11 13.14, 7.4 9.05, 1.72 4.11 M21.31 10.54 C18.84 8.39, 16.37 6.25, 9.24 0.04 M21.31 10.54 C17.33 7.08, 13.34 3.61, 9.24 0.04" stroke="#ced4da" stroke-width="1" fill="none"></path><path d="M21.4 9.36 C21.4 9.91, 21.35 10.46, 21.24 10.99 C21.13 11.52, 20.97 12.06, 20.76 12.57 C20.55 13.08, 20.28 13.58, 19.97 14.05 C19.66 14.52, 19.3 14.97, 18.9 15.38 C18.5 15.8, 18.06 16.19, 17.58 16.54 C17.11 16.89, 16.59 17.2, 16.05 17.47 C15.52 17.75, 14.94 17.98, 14.36 18.16 C13.78 18.35, 13.17 18.49, 12.56 18.59 C11.95 18.68, 11.32 18.73, 10.7 18.73 C10.08 18.73, 9.45 18.68, 8.84 18.59 C8.23 18.49, 7.62 18.35, 7.04 18.16 C6.46 17.98, 5.89 17.75, 5.35 17.47 C4.81 17.2, 4.3 16.89, 3.82 16.54 C3.35 16.19, 2.9 15.8, 2.5 15.38 C2.11 14.97, 1.74 14.52, 1.43 14.05 C1.12 13.58, 0.86 13.08, 0.65 12.57 C0.43 12.06, 0.27 11.52, 0.16 10.99 C0.06 10.46, 0 9.91, 0 9.36 C0 8.82, 0.06 8.27, 0.16 7.74 C0.27 7.2, 0.43 6.67, 0.65 6.16 C0.86 5.65, 1.12 5.15, 1.43 4.68 C1.74 4.21, 2.11 3.76, 2.5 3.35 C2.9 2.93, 3.35 2.54, 3.82 2.19 C4.3 1.84, 4.81 1.53, 5.35 1.25 C5.89 0.98, 6.46 0.75, 7.04 0.56 C7.62 0.38, 8.23 0.24, 8.84 0.14 C9.45 0.05, 10.08 0, 10.7 0 C11.32 0, 11.95 0.05, 12.56 0.14 C13.17 0.24, 13.78 0.38, 14.36 0.56 C14.94 0.75, 15.52 0.98, 16.05 1.25 C16.59 1.53, 17.11 1.84, 17.58 2.19 C18.06 2.54, 18.5 2.93, 18.9 3.35 C19.3 3.76, 19.66 4.21, 19.97 4.68 C20.28 5.15, 20.55 5.65, 20.76 6.16 C20.97 6.67, 21.13 7.2, 21.24 7.74 C21.35 8.27, 21.38 9.09, 21.4 9.36 C21.43 9.64, 21.43 9.09, 21.4 9.36" stroke="#000000" stroke-width="2" fill="none"></path></g><g stroke-linecap="round"><g transform="translate(245.53730132837063 598.7151171690623) rotate(0 16.71865860152218 9.951582500906)" fill-rule="evenodd"><path d="M0 0 C0 0, 0 0, 0 0 M0 0 C0 0, 0 0, 0 0 M6.04 5.25 C10.27 0.38, 14.51 -4.5, 17.85 -8.34 M6.04 5.25 C9.72 1.01, 13.41 -3.23, 17.85 -8.34 M10.11 12.76 C13.19 9.21, 16.28 5.66, 25.2 -4.6 M10.11 12.76 C15.09 7.03, 20.07 1.31, 25.2 -4.6 M14.18 20.27 C17.23 16.76, 20.29 13.24, 29.27 2.92 M14.18 20.27 C17.96 15.92, 21.74 11.57, 29.27 2.92 M17.59 28.54 C21.26 24.32, 24.93 20.09, 32.02 11.94 M17.59 28.54 C22.28 23.15, 26.97 17.75, 32.02 11.94 M29.53 27 C31.34 24.92, 33.14 22.84, 34.12 21.71 M29.53 27 C30.57 25.81, 31.6 24.62, 34.12 21.71 M14.43 27.6 C14.43 27.6, 14.43 27.6, 14.43 27.6 M14.43 27.6 C14.43 27.6, 14.43 27.6, 14.43 27.6 M26.47 27.47 C20.15 21.97, 13.82 16.48, 9.87 13.04 M26.47 27.47 C22.45 23.98, 18.44 20.49, 9.87 13.04 M33.23 22.75 C22.82 13.7, 12.41 4.65, 3.04 -3.5 M33.23 22.75 C23.56 14.34, 13.89 5.94, 3.04 -3.5 M31.68 10.8 C24.84 4.85, 17.99 -1.1, 9.8 -8.22 M31.68 10.8 C25.98 5.84, 20.27 0.88, 9.8 -8.22" stroke="#ced4da" stroke-width="1" fill="none"></path><path d="M0 0 C0.86 -0.93, 3.58 -4.18, 5.17 -5.57 C6.77 -6.97, 7.56 -7.83, 9.55 -8.36 C11.54 -8.89, 14.99 -8.89, 17.12 -8.76 C19.24 -8.62, 20.83 -8.43, 22.29 -7.56 C23.75 -6.7, 24.88 -5.11, 25.87 -3.58 C26.87 -2.06, 27.47 -0.33, 28.26 1.59 C29.06 3.52, 29.92 5.84, 30.65 7.96 C31.38 10.08, 32.18 12.41, 32.64 14.33 C33.11 16.25, 33.44 17.78, 33.44 19.51 C33.44 21.23, 33.3 23.42, 32.64 24.68 C31.98 25.94, 30.72 26.47, 29.46 27.07 C28.2 27.67, 26.87 28, 25.08 28.26 C23.29 28.53, 20.43 28.73, 18.71 28.66 C16.98 28.59, 15.46 28.93, 14.73 27.86 C14 26.8, 14.66 23.82, 14.33 22.29 C14 20.77, 13.47 20.23, 12.74 18.71 C12.01 17.18, 11.08 15.33, 9.95 13.14 C8.82 10.95, 7.63 7.76, 5.97 5.57 C4.31 3.38, 1 0.93, 0 0 M0 0 C0.86 -0.93, 3.58 -4.18, 5.17 -5.57 C6.77 -6.97, 7.56 -7.83, 9.55 -8.36 C11.54 -8.89, 14.99 -8.89, 17.12 -8.76 C19.24 -8.62, 20.83 -8.43, 22.29 -7.56 C23.75 -6.7, 24.88 -5.11, 25.87 -3.58 C26.87 -2.06, 27.47 -0.33, 28.26 1.59 C29.06 3.52, 29.92 5.84, 30.65 7.96 C31.38 10.08, 32.18 12.41, 32.64 14.33 C33.11 16.25, 33.44 17.78, 33.44 19.51 C33.44 21.23, 33.3 23.42, 32.64 24.68 C31.98 25.94, 30.72 26.47, 29.46 27.07 C28.2 27.67, 26.87 28, 25.08 28.26 C23.29 28.53, 20.43 28.73, 18.71 28.66 C16.98 28.59, 15.46 28.93, 14.73 27.86 C14 26.8, 14.66 23.82, 14.33 22.29 C14 20.77, 13.47 20.23, 12.74 18.71 C12.01 17.18, 11.08 15.33, 9.95 13.14 C8.82 10.95, 7.63 7.76, 5.97 5.57 C4.31 3.38, 1 0.93, 0 0" stroke="#000000" stroke-width="2" fill="none"></path></g></g><mask></mask><g stroke-linecap="round"><g transform="translate(227.61851487503645 598.7032412656579) rotate(0 -16.121563651467795 11.941899001087336)" fill-rule="evenodd"><path d="M-24.42 -2.68 C-24.42 -2.68, -24.42 -2.68, -24.42 -2.68 M-24.42 -2.68 C-24.42 -2.68, -24.42 -2.68, -24.42 -2.68 M-31.51 17.66 C-23.56 8.52, -15.62 -0.62, -10.51 -6.49 M-31.51 17.66 C-24.66 9.78, -17.81 1.91, -10.51 -6.49 M-29.41 27.44 C-21.53 18.38, -13.66 9.33, -2.51 -3.51 M-29.41 27.44 C-23.79 20.98, -18.18 14.52, -2.51 -3.51 M-22.06 31.18 C-16.78 25.1, -11.49 19.02, -8.28 15.33 M-22.06 31.18 C-18.17 26.71, -14.29 22.24, -8.28 15.33 M-12.08 31.9 C-11.75 31.51, -11.42 31.13, -10.77 30.39 M-12.08 31.9 C-11.8 31.57, -11.51 31.24, -10.77 30.39 M-31.63 25.72 C-31.63 25.72, -31.63 25.72, -31.63 25.72 M-31.63 25.72 C-31.63 25.72, -31.63 25.72, -31.63 25.72 M-12.8 31.49 C-17.9 27.05, -23 22.62, -30.91 15.74 M-12.8 31.49 C-19.83 25.37, -26.87 19.26, -30.91 15.74 M-9.06 24.14 C-15.08 18.9, -21.1 13.67, -28.68 7.08 M-9.06 24.14 C-16.33 17.81, -23.6 11.49, -28.68 7.08 M-8.34 14.16 C-14.19 9.07, -20.05 3.98, -25.7 -0.93 M-8.34 14.16 C-12.12 10.88, -15.9 7.59, -25.7 -0.93 M-4.6 6.81 C-9.37 2.67, -14.14 -1.48, -20.45 -6.96 M-4.6 6.81 C-10.02 2.1, -15.43 -2.61, -20.45 -6.96 M-0.1 0.12 C-2.65 -2.1, -5.2 -4.31, -9.16 -7.75 M-0.1 0.12 C-3.29 -2.65, -6.48 -5.43, -9.16 -7.75" stroke="#ced4da" stroke-width="1" fill="none"></path><path d="M0 0 C-0.66 -0.73, -2.59 -3.18, -3.98 -4.38 C-5.37 -5.57, -6.37 -6.63, -8.36 -7.17 C-10.35 -7.7, -13.8 -7.7, -15.92 -7.56 C-18.05 -7.43, -19.64 -7.23, -21.1 -6.37 C-22.56 -5.51, -23.68 -3.91, -24.68 -2.39 C-25.68 -0.86, -26.27 0.86, -27.07 2.79 C-27.86 4.71, -28.73 7.03, -29.46 9.16 C-30.19 11.28, -30.98 13.6, -31.45 15.52 C-31.91 17.45, -32.24 18.97, -32.24 20.7 C-32.24 22.42, -32.11 24.61, -31.45 25.87 C-30.78 27.13, -29.46 27.53, -28.26 28.26 C-27.07 28.99, -26.01 29.72, -24.28 30.25 C-22.56 30.78, -20.1 31.25, -17.91 31.45 C-15.72 31.65, -12.41 32.64, -11.15 31.45 C-9.89 30.25, -10.62 26.07, -10.35 24.28 C-10.08 22.49, -9.89 22.29, -9.55 20.7 C-9.22 19.11, -9.16 17.05, -8.36 14.73 C-7.56 12.41, -6.17 9.22, -4.78 6.77 C-3.38 4.31, -0.8 1.13, 0 0 M0 0 C-0.66 -0.73, -2.59 -3.18, -3.98 -4.38 C-5.37 -5.57, -6.37 -6.63, -8.36 -7.17 C-10.35 -7.7, -13.8 -7.7, -15.92 -7.56 C-18.05 -7.43, -19.64 -7.23, -21.1 -6.37 C-22.56 -5.51, -23.68 -3.91, -24.68 -2.39 C-25.68 -0.86, -26.27 0.86, -27.07 2.79 C-27.86 4.71, -28.73 7.03, -29.46 9.16 C-30.19 11.28, -30.98 13.6, -31.45 15.52 C-31.91 17.45, -32.24 18.97, -32.24 20.7 C-32.24 22.42, -32.11 24.61, -31.45 25.87 C-30.78 27.13, -29.46 27.53, -28.26 28.26 C-27.07 28.99, -26.01 29.72, -24.28 30.25 C-22.56 30.78, -20.1 31.25, -17.91 31.45 C-15.72 31.65, -12.41 32.64, -11.15 31.45 C-9.89 30.25, -10.62 26.07, -10.35 24.28 C-10.08 22.49, -9.89 22.29, -9.55 20.7 C-9.22 19.11, -9.16 17.05, -8.36 14.73 C-7.56 12.41, -6.17 9.22, -4.78 6.77 C-3.38 4.31, -0.8 1.13, 0 0" stroke="#000000" stroke-width="2" fill="none"></path></g></g><mask></mask><g stroke-linecap="round" transform="translate(90.17500305175781 411) rotate(0 138.5 52)"><path d="M26 0 C105.62 -1.56, 183.41 0.67, 251 0 M26 0 C84.63 1.06, 142 1.69, 251 0 M251 0 C270.17 -0.84, 277.91 8.89, 277 26 M251 0 C269.67 1.78, 277.47 6.43, 277 26 M277 26 C275.52 37.3, 278.97 52.77, 277 78 M277 26 C278.42 42.8, 276.96 58.51, 277 78 M277 78 C276.07 94.88, 269.98 102.6, 251 104 M277 78 C278.46 95.77, 270.34 102.88, 251 104 M251 104 C161.55 105.42, 71.73 105.02, 26 104 M251 104 C196.06 104.89, 141.22 105.67, 26 104 M26 104 C9.29 104.55, 1.31 95.36, 0 78 M26 104 C7.58 103.54, -1.67 95.03, 0 78 M0 78 C-1.15 62.84, -1.19 46.02, 0 26 M0 78 C-0.74 59.86, -0.32 39.75, 0 26 M0 26 C-1.75 8.86, 8.19 -1.68, 26 0 M0 26 C1.92 7.75, 9.93 0.86, 26 0" stroke="#1e1e1e" stroke-width="2" fill="none"></path></g><g transform="translate(127.2750015258789 438) rotate(0 101.4000015258789 25)"><text x="101.4000015258789" y="0" font-family="Virgil, Segoe UI Emoji" font-size="20px" fill="#1e1e1e" text-anchor="middle" style="white-space: pre;" direction="ltr" dominant-baseline="text-before-edge">Frontend (Running in </text><text x="101.4000015258789" y="25" font-family="Virgil, Segoe UI Emoji" font-size="20px" fill="#1e1e1e" text-anchor="middle" style="white-space: pre;" direction="ltr" dominant-baseline="text-before-edge">Browser)</text></g><g mask="url(#mask-umut1K6vZ2l4JmMwbUza-)" stroke-linecap="round"><g transform="translate(374.1750030517578 397) rotate(0 -4 -126.5)"><path d="M0.08 -0.96 C-1.21 -43.15, -6.13 -210.95, -7.37 -252.92 M-1.34 1.15 C-2.76 -40.84, -6.91 -209.25, -7.98 -251.34" stroke="#1e1e1e" stroke-width="2" fill="none"></path></g><g transform="translate(374.1750030517578 397) rotate(0 -4 -126.5)"><path d="M1.16 -228.07 C-3.5 -234.68, -4.77 -242.33, -7.98 -251.34 M1.16 -228.07 C-0.98 -236.16, -4.76 -243.85, -7.98 -251.34" stroke="#1e1e1e" stroke-width="2" fill="none"></path></g><g transform="translate(374.1750030517578 397) rotate(0 -4 -126.5)"><path d="M-15.94 -227.64 C-14.96 -234.4, -10.6 -242.2, -7.98 -251.34 M-15.94 -227.64 C-12.64 -235.74, -10.98 -243.57, -7.98 -251.34" stroke="#1e1e1e" stroke-width="2" fill="none"></path></g></g><mask id="mask-umut1K6vZ2l4JmMwbUza-"><rect x="0" y="0" fill="#fff" width="482.1750030517578" height="750"></rect><rect x="267.70833587646484" y="258" fill="#000" width="204.93333435058594" height="25" opacity="1"></rect></mask><g transform="translate(267.70833587646484 258) rotate(0 102.51343727942094 13.114078005668716)"><text x="102.46666717529297" y="0" font-family="Virgil, Segoe UI Emoji" font-size="20px" fill="#1e1e1e" text-anchor="middle" style="white-space: pre;" direction="ltr" dominant-baseline="text-before-edge">Request Upload URL</text></g><g mask="url(#mask-GMtla1vYKXuzAz8FRu0fy)" stroke-linecap="round"><g transform="translate(117.17500305175781 392.4587604835774) rotate(0 0 -145.2293802417887)"><path d="M1.07 1.16 C1.36 -47.27, 0.92 -241.4, 0.6 -290.17 M0.17 0.73 C0.46 -48.12, -0.26 -243.58, -0.04 -292.14" stroke="#1e1e1e" stroke-width="2" fill="none"></path></g><g transform="translate(117.17500305175781 392.4587604835774) rotate(0 0 -145.2293802417887)"><path d="M8.51 -268.65 C8.63 -272.35, 5.44 -279.62, -0.04 -292.14 M8.51 -268.65 C5.66 -274.02, 5.7 -279.63, -0.04 -292.14" stroke="#1e1e1e" stroke-width="2" fill="none"></path></g><g transform="translate(117.17500305175781 392.4587604835774) rotate(0 0 -145.2293802417887)"><path d="M-8.59 -268.65 C-5 -272.5, -4.71 -279.77, -0.04 -292.14 M-8.59 -268.65 C-7.72 -274.01, -3.95 -279.61, -0.04 -292.14" stroke="#1e1e1e" stroke-width="2" fill="none"></path></g></g><mask id="mask-GMtla1vYKXuzAz8FRu0fy"><rect x="0" y="0" fill="#fff" width="217.1750030517578" height="782.9175209671548"></rect><rect x="10" y="222.2293802417887" fill="#000" width="214.35000610351562" height="50" opacity="1"></rect></mask><g transform="translate(10 222.2293802417887) rotate(0 107.71676490158166 24.740807934668823)"><text x="107.17500305175781" y="0" font-family="Virgil, Segoe UI Emoji" font-size="20px" fill="#1e1e1e" text-anchor="middle" style="white-space: pre;" direction="ltr" dominant-baseline="text-before-edge">Upload Image directly</text><text x="107.17500305175781" y="25" font-family="Virgil, Segoe UI Emoji" font-size="20px" fill="#1e1e1e" text-anchor="middle" style="white-space: pre;" direction="ltr" dominant-baseline="text-before-edge">to Bucket</text></g><g stroke-linecap="round"><g transform="translate(239.1750030517578 567) rotate(0 -0.5 -19)"><path d="M0.21 0.21 C-0.01 -6.06, -1.18 -31.57, -1.38 -37.86 M-0.35 -0.16 C-0.39 -6.58, -0.18 -32.39, -0.35 -38.75" stroke="#1e1e1e" stroke-width="2" fill="none"></path></g><g transform="translate(239.1750030517578 567) rotate(0 -0.5 -19)"><path d="M6.28 -20.94 C4.78 -26.69, 2.76 -31.17, -0.35 -38.75 M6.28 -20.94 C3.34 -27.69, 1.26 -34.55, -0.35 -38.75" stroke="#1e1e1e" stroke-width="2" fill="none"></path></g><g transform="translate(239.1750030517578 567) rotate(0 -0.5 -19)"><path d="M-6.73 -20.85 C-4.5 -26.65, -2.79 -31.15, -0.35 -38.75 M-6.73 -20.85 C-4.59 -27.64, -1.61 -34.53, -0.35 -38.75" stroke="#1e1e1e" stroke-width="2" fill="none"></path></g></g><mask></mask></svg>